<svg xmlns="http://www.w3.org/2000/svg" width="10.5" height="14" viewBox="0 0 10.5 14">
  <path id="Icon_awesome-file-alt" data-name="Icon awesome-file-alt" d="M6.125,3.719V0H.656A.655.655,0,0,0,0,.656V13.344A.655.655,0,0,0,.656,14H9.844a.655.655,0,0,0,.656-.656V4.375H6.781A.658.658,0,0,1,6.125,3.719Zm1.75,6.453a.329.329,0,0,1-.328.328H2.953a.329.329,0,0,1-.328-.328V9.953a.329.329,0,0,1,.328-.328H7.547a.329.329,0,0,1,.328.328Zm0-1.75a.329.329,0,0,1-.328.328H2.953a.329.329,0,0,1-.328-.328V8.2a.329.329,0,0,1,.328-.328H7.547a.329.329,0,0,1,.328.328Zm0-1.969v.219A.329.329,0,0,1,7.547,7H2.953a.329.329,0,0,1-.328-.328V6.453a.329.329,0,0,1,.328-.328H7.547A.329.329,0,0,1,7.875,6.453ZM10.5,3.333V3.5H7V0h.167a.656.656,0,0,1,.465.191l2.677,2.68A.654.654,0,0,1,10.5,3.333Z" fill="#747474"/>
</svg>
