<svg xmlns="http://www.w3.org/2000/svg" width="18.93" height="18.93" viewBox="0 0 18.93 18.93">
  <g id="Icon_feather-play-circle" data-name="Icon feather-play-circle" transform="translate(0 0)">
    <path id="Path_1609" data-name="Path 1609" d="M10.965,1.5a9.467,9.467,0,0,1,3.684,18.186A9.467,9.467,0,0,1,7.28,2.244,9.406,9.406,0,0,1,10.965,1.5Zm0,17.209a7.744,7.744,0,1,0-5.476-2.268A7.693,7.693,0,0,0,10.965,18.709Z" transform="translate(-1.5 -1.5)" fill="#747474"/>
    <path id="Path_1610" data-name="Path 1610" d="M14.36,10.5a.86.86,0,0,1,.477.145L20,14.086a.86.86,0,0,1,0,1.432L14.838,18.96a.86.86,0,0,1-1.338-.716V11.36a.86.86,0,0,1,.86-.86Zm3.612,4.3-2.751-1.834v3.668Z" transform="translate(-6.616 -5.337)" fill="#747474"/>
  </g>
</svg>
