<svg xmlns="http://www.w3.org/2000/svg" width="15.159" height="15.954" viewBox="0 0 15.159 15.954">
  <g id="Icon_feather-folder-plus" data-name="Icon feather-folder-plus" transform="translate(-0.001 -0.001)">
    <path id="Path_1611" data-name="Path 1611" d="M14.266,18.954H3.893A2.4,2.4,0,0,1,1.5,16.561V5.393A2.4,2.4,0,0,1,3.893,3H7.881a.8.8,0,0,1,.664.355L9.9,5.393h4.362a2.4,2.4,0,0,1,2.393,2.393v8.775A2.4,2.4,0,0,1,14.266,18.954ZM3.893,4.6a.8.8,0,0,0-.8.8V16.561a.8.8,0,0,0,.8.8H14.266a.8.8,0,0,0,.8-.8V7.786a.8.8,0,0,0-.8-.8H9.477a.8.8,0,0,1-.664-.355L7.455,4.6Z" transform="translate(-1.499 -2.999)" fill="#747474"/>
    <path id="Path_1612" data-name="Path 1612" d="M17.3,21.382a.8.8,0,0,1-.8-.8V15.8a.8.8,0,1,1,1.6,0v4.786A.8.8,0,0,1,17.3,21.382Z" transform="translate(-10.115 -8.618)" fill="#747474"/>
    <path id="Path_1613" data-name="Path 1613" d="M17.584,21.1H12.8a.8.8,0,0,1,0-1.6h4.786a.8.8,0,0,1,0,1.6Z" transform="translate(-8.008 -10.725)" fill="#747474"/>
  </g>
</svg>
