<svg xmlns="http://www.w3.org/2000/svg" width="17.227" height="18.95" viewBox="0 0 17.227 18.95">
  <g id="Icon_feather-database" data-name="Icon feather-database" transform="translate(0)">
    <path id="Path_1609" data-name="Path 1609" d="M11.614,1.5a18.9,18.9,0,0,1,5.754.8,6.381,6.381,0,0,1,1.922.962,2.128,2.128,0,0,1,.937,1.682c0,.772-.5,1.857-2.86,2.644a18.9,18.9,0,0,1-5.754.8,18.9,18.9,0,0,1-5.754-.8,6.381,6.381,0,0,1-1.922-.962A2.128,2.128,0,0,1,3,4.946c0-.772.5-1.857,2.86-2.644A18.9,18.9,0,0,1,11.614,1.5Zm0,5.168a17.165,17.165,0,0,0,5.209-.713c1.389-.463,1.682-.936,1.682-1.01s-.292-.547-1.682-1.01a17.165,17.165,0,0,0-5.209-.713A17.165,17.165,0,0,0,6.4,3.935c-1.389.463-1.682.936-1.682,1.01s.292.547,1.682,1.01A17.165,17.165,0,0,0,11.614,6.668Z" transform="translate(-3 -1.5)" fill="#747474"/>
    <path id="Path_1610" data-name="Path 1610" d="M11.614,20.807C7.465,20.807,3,19.729,3,17.361a.861.861,0,1,1,1.723,0c0,.074.291.55,1.672,1.011a17.186,17.186,0,0,0,5.218.712,17.186,17.186,0,0,0,5.218-.712c1.382-.461,1.672-.937,1.672-1.011a.861.861,0,1,1,1.723,0C20.227,19.729,15.762,20.807,11.614,20.807Z" transform="translate(-3 -7.886)" fill="#747474"/>
    <path id="Path_1611" data-name="Path 1611" d="M11.614,22.366C7.465,22.366,3,21.288,3,18.921V6.861a.861.861,0,1,1,1.723,0V18.921c0,.074.291.55,1.672,1.011a17.186,17.186,0,0,0,5.218.712,17.186,17.186,0,0,0,5.218-.712C18.214,19.471,18.5,19,18.5,18.921V6.861a.861.861,0,1,1,1.723,0V18.921C20.227,21.288,15.762,22.366,11.614,22.366Z" transform="translate(-3 -3.416)" fill="#747474"/>
  </g>
</svg>
