<svg xmlns="http://www.w3.org/2000/svg" width="13.053" height="15.954" viewBox="0 0 13.053 15.954">
  <g id="Icon_feather-file-plus" data-name="Icon feather-file-plus" transform="translate(0 -0.001)">
    <path id="Path_1611" data-name="Path 1611" d="M6.676,1.5h5.8a.725.725,0,0,1,.513.212l4.351,4.351a.725.725,0,0,1,.212.513v8.7a2.178,2.178,0,0,1-2.176,2.176h-8.7A2.178,2.178,0,0,1,4.5,15.279V3.676A2.178,2.178,0,0,1,6.676,1.5Zm5.5,1.45h-5.5a.726.726,0,0,0-.725.725v11.6A.726.726,0,0,0,6.676,16h8.7a.726.726,0,0,0,.725-.725v-8.4Z" transform="translate(-4.5 -1.499)" fill="#747474"/>
    <path id="Path_1612" data-name="Path 1612" d="M24.576,7.3H20.225a.725.725,0,0,1-.725-.725V2.225a.725.725,0,1,1,1.45,0V5.851h3.626a.725.725,0,0,1,0,1.45Z" transform="translate(-12.248 -1.499)" fill="#747474"/>
    <path id="Path_1613" data-name="Path 1613" d="M17.225,22.3a.725.725,0,0,1-.725-.725V17.225a.725.725,0,1,1,1.45,0v4.351A.725.725,0,0,1,17.225,22.3Z" transform="translate(-10.699 -9.248)" fill="#747474"/>
    <path id="Path_1614" data-name="Path 1614" d="M17.076,22.45H12.725a.725.725,0,0,1,0-1.45h4.351a.725.725,0,0,1,0,1.45Z" transform="translate(-8.374 -11.572)" fill="#747474"/>
  </g>
</svg>
