<svg xmlns="http://www.w3.org/2000/svg" width="17.224" height="19.014" viewBox="0 0 17.224 19.014">
  <g id="Icon_feather-box" data-name="Icon feather-box" transform="translate(0 0)">
    <path id="Path_1609" data-name="Path 1609" d="M11.612,20.447a2.587,2.587,0,0,1-1.291-.345L4.3,16.657l0,0A2.591,2.591,0,0,1,3,14.421V7.53A2.592,2.592,0,0,1,4.292,5.294l0,0,6.026-3.444a2.584,2.584,0,0,1,2.581,0l6.026,3.444,0,0a2.591,2.591,0,0,1,1.292,2.235V14.42a2.592,2.592,0,0,1-1.292,2.236l0,0L12.9,20.1A2.587,2.587,0,0,1,11.612,20.447Zm-6.46-5.283,6.026,3.444,0,0a.861.861,0,0,0,.861,0l0,0,6.026-3.444a.864.864,0,0,0,.43-.744V7.53a.863.863,0,0,0-.43-.744L12.046,3.343l0,0a.861.861,0,0,0-.861,0l0,0L5.152,6.786a.864.864,0,0,0-.43.744V14.42A.863.863,0,0,0,5.152,15.163Z" transform="translate(-3 -1.503)" fill="#747474"/>
    <path id="Path_1610" data-name="Path 1610" d="M11.785,15.012a.861.861,0,0,1-.431-.116L3.835,10.547A.861.861,0,0,1,4.7,9.056l7.087,4.1,7.087-4.1a.861.861,0,0,1,.862,1.491L12.216,14.9A.861.861,0,0,1,11.785,15.012Z" transform="translate(-3.172 -4.67)" fill="#747474"/>
    <path id="Path_1611" data-name="Path 1611" d="M17.361,26.9a.861.861,0,0,1-.861-.861V17.361a.861.861,0,1,1,1.722,0v8.681A.861.861,0,0,1,17.361,26.9Z" transform="translate(-8.749 -7.889)" fill="#747474"/>
  </g>
</svg>
