<svg xmlns="http://www.w3.org/2000/svg" width="18.933" height="18.933" viewBox="0 0 18.933 18.933">
  <g id="Icon_feather-settings" data-name="Icon feather-settings" transform="translate(0 0)">
    <path id="Path_1609" data-name="Path 1609" d="M15.155,12A3.155,3.155,0,1,1,12,15.155,3.159,3.159,0,0,1,15.155,12Zm0,4.733a1.578,1.578,0,1,0-1.578-1.578A1.58,1.58,0,0,0,15.155,16.733Z" transform="translate(-5.689 -5.689)" fill="#747474"/>
    <path id="Path_1610" data-name="Path 1610" d="M9.529,18.933a2.369,2.369,0,0,1-2.367-2.367v-.06a.51.51,0,0,0-.335-.462l-.046-.019a.513.513,0,0,0-.563.1l-.044.044a2.367,2.367,0,1,1-3.348-3.348l.043-.043a.51.51,0,0,0,.1-.563l0-.008A.512.512,0,0,0,2.5,11.9H2.367a2.367,2.367,0,0,1,0-4.733h.06a.51.51,0,0,0,.462-.335q.009-.023.019-.046a.51.51,0,0,0-.1-.563l-.044-.044A2.367,2.367,0,1,1,6.112,2.827l.043.043a.513.513,0,0,0,.563.1.789.789,0,0,1,.157-.05A.512.512,0,0,0,7.1,2.5V2.367a2.367,2.367,0,1,1,4.733,0v.069a.512.512,0,0,0,.311.468l.008,0a.513.513,0,0,0,.563-.1l.044-.044a2.367,2.367,0,1,1,3.348,3.348l-.043.043a.51.51,0,0,0-.1.563.789.789,0,0,1,.05.157.512.512,0,0,0,.421.225h.132a2.367,2.367,0,0,1,0,4.733H16.5a.512.512,0,0,0-.468.311l0,.008a.51.51,0,0,0,.1.563l.044.044a2.367,2.367,0,1,1-3.348,3.348l-.043-.043a.513.513,0,0,0-.563-.1l-.008,0a.512.512,0,0,0-.311.468v.132A2.369,2.369,0,0,1,9.529,18.933ZM7.4,14.572a2.079,2.079,0,0,1,1.345,1.9q0,.009,0,.018v.071a.789.789,0,1,0,1.578,0v-.134s0,0,0,0a2.1,2.1,0,0,1,3.565-1.492l.006.006.047.047a.79.79,0,1,0,1.117-1.117l-.048-.048L15,13.82a2.1,2.1,0,0,1,1.492-3.565h.074a.789.789,0,0,0,0-1.578h-.137a2.089,2.089,0,0,1-1.913-1.267.789.789,0,0,1-.057-.208,2.08,2.08,0,0,1,.479-2.153l.006-.006L14.991,5a.79.79,0,1,0-1.117-1.117l-.048.048-.006.006a2.1,2.1,0,0,1-3.565-1.492s0,0,0,0V2.367a.789.789,0,1,0-1.578,0V2.5s0,0,0,0A2.089,2.089,0,0,1,7.41,4.417a.789.789,0,0,1-.208.057A2.091,2.091,0,0,1,5.049,4l-.006-.006L5,3.942A.79.79,0,1,0,3.879,5.059l.048.048.006.006A2.08,2.08,0,0,1,4.36,7.4a2.079,2.079,0,0,1-1.9,1.345H2.367a.789.789,0,0,0,0,1.578H2.5A2.1,2.1,0,0,1,4,13.884l-.006.006-.047.047a.79.79,0,1,0,1.117,1.117l.048-.048L5.112,15A2.09,2.09,0,0,1,7.4,14.572Z" transform="translate(0 0)" fill="#747474"/>
  </g>
</svg>
