<svg xmlns="http://www.w3.org/2000/svg" width="15.475" height="18.914" viewBox="0 0 15.475 18.914">
  <g id="Icon_feather-file-text" data-name="Icon feather-file-text" transform="translate(0 0)">
    <path id="Path_1609" data-name="Path 1609" d="M7.079,1.5h6.878a.86.86,0,0,1,.608.252L19.723,6.91a.86.86,0,0,1,.252.608V17.834A2.582,2.582,0,0,1,17.4,20.414H7.079A2.582,2.582,0,0,1,4.5,17.834V4.079A2.582,2.582,0,0,1,7.079,1.5ZM13.6,3.219H7.079a.861.861,0,0,0-.86.86V17.834a.861.861,0,0,0,.86.86H17.4a.861.861,0,0,0,.86-.86V7.874Z" transform="translate(-4.5 -1.5)" fill="#747474"/>
    <path id="Path_1610" data-name="Path 1610" d="M25.518,8.378H20.36a.86.86,0,0,1-.86-.86V2.36a.86.86,0,0,1,1.719,0v4.3h4.3a.86.86,0,0,1,0,1.719Z" transform="translate(-10.903 -1.5)" fill="#747474"/>
    <path id="Path_1611" data-name="Path 1611" d="M18.237,19.719H11.36a.86.86,0,0,1,0-1.719h6.878a.86.86,0,0,1,0,1.719Z" transform="translate(-7.061 -8.543)" fill="#747474"/>
    <path id="Path_1612" data-name="Path 1612" d="M18.237,25.719H11.36a.86.86,0,0,1,0-1.719h6.878a.86.86,0,0,1,0,1.719Z" transform="translate(-7.061 -11.104)" fill="#747474"/>
    <path id="Path_1613" data-name="Path 1613" d="M13.079,13.719H11.36a.86.86,0,0,1,0-1.719h1.719a.86.86,0,0,1,0,1.719Z" transform="translate(-7.061 -5.982)" fill="#747474"/>
  </g>
</svg>
