<svg xmlns="http://www.w3.org/2000/svg" width="17.225" height="18.947" viewBox="0 0 17.225 18.947">
  <g id="Icon_feather-lock" data-name="Icon feather-lock" transform="translate(0)">
    <path id="Path_1609" data-name="Path 1609" d="M5.584,15H17.641a2.587,2.587,0,0,1,2.584,2.584v6.029A2.587,2.587,0,0,1,17.641,26.2H5.584A2.587,2.587,0,0,1,3,23.612V17.584A2.587,2.587,0,0,1,5.584,15Zm12.057,9.474a.862.862,0,0,0,.861-.861V17.584a.862.862,0,0,0-.861-.861H5.584a.862.862,0,0,0-.861.861v6.029a.862.862,0,0,0,.861.861Z" transform="translate(-3 -7.249)" fill="#747474"/>
    <path id="Path_1610" data-name="Path 1610" d="M18.474,10.974a.861.861,0,0,1-.861-.861V6.667a3.445,3.445,0,0,0-6.89,0v3.445a.861.861,0,1,1-1.722,0V6.667a5.167,5.167,0,0,1,10.335,0v3.445A.861.861,0,0,1,18.474,10.974Z" transform="translate(-5.555 -1.5)" fill="#747474"/>
  </g>
</svg>
