<svg xmlns="http://www.w3.org/2000/svg"  viewBox="0 0 64 64" width="50px" height="50px"><path fill="#bbdef9" d="M21.24,4.94H50a3,3,0,0,1,3,3v48a3,3,0,0,1-3,3H12a3,3,0,0,1-3-3V17.18a3,3,0,0,1,.88-2.12l9.24-9.24A3,3,0,0,1,21.24,4.94Z"/><path fill="#cce7fc" d="M10 58.15a3 3 0 0 0 2 .79H24.06L53 30V7.94a3 3 0 0 0-.29-1.26L9.85 49.54zM8.85 39.15L43.06 4.94 48.81 5.19 9 45 8.85 39.15zM8.85 33.15L37 5 40 5 8.85 36.15 8.85 33.15z"/><path fill="#ffefb8" d="M21 5L21 17 9 17 21 5z"/><path fill="#ffeb9b" d="M20 25A3 3 0 1 0 20 31A3 3 0 1 0 20 25Z"/><path fill="#97e0bb" d="M35.25,45,26,35.85a1.4,1.4,0,0,0-2,0L15,44.91Z"/><path fill="#72caaf" d="M37.46,31.59a.78.78,0,0,0-1.08,0L23,45H48.95a1,1,0,0,0,.69-1.72Z"/><path fill="#8d6c9f" d="M51,4H21.66a5,5,0,0,0-3.54,1.46L9.46,14.12A5,5,0,0,0,8,17.66V57a3,3,0,0,0,3,3H51a3,3,0,0,0,3-3V7A3,3,0,0,0,51,4ZM19.54,6.88A3,3,0,0,1,20,6.5V15a1,1,0,0,1-1,1H10.5a3,3,0,0,1,.38-.46ZM52,57a1,1,0,0,1-1,1H11a1,1,0,0,1-1-1V18h9a3,3,0,0,0,3-3V6H51a1,1,0,0,1,1,1Z"/><path fill="#8d6c9f" d="M13 52a1 1 0 0 0-1 1v2a1 1 0 0 0 2 0V53A1 1 0 0 0 13 52zM18 52a1 1 0 0 0-1 1v2a1 1 0 0 0 2 0V53A1 1 0 0 0 18 52zM23 52a1 1 0 0 0-1 1v2a1 1 0 0 0 2 0V53A1 1 0 0 0 23 52zM28 52a1 1 0 0 0-1 1v2a1 1 0 0 0 2 0V53A1 1 0 0 0 28 52zM33 52a1 1 0 0 0-1 1v2a1 1 0 0 0 2 0V53A1 1 0 0 0 33 52zM38 52a1 1 0 0 0-1 1v2a1 1 0 0 0 2 0V53A1 1 0 0 0 38 52zM43 52a1 1 0 0 0-1 1v2a1 1 0 0 0 2 0V53A1 1 0 0 0 43 52zM48 52a1 1 0 0 0-1 1v2a1 1 0 0 0 2 0V53A1 1 0 0 0 48 52zM49 44H25.41L37 32.41l8.29 8.29a1 1 0 0 0 1.41-1.41L38.41 31a2 2 0 0 0-2.83 0L29 37.59 26.41 35a2 2 0 0 0-2.83 0l-9 9H13a1 1 0 0 0-1 1 1 1 0 0 0 1 1H49a1 1 0 1 0 0-2zM25 36.41L27.59 39l-5 5H17.41zM20 32a4 4 0 1 0-4-4A4 4 0 0 0 20 32zm0-6.25A2.25 2.25 0 1 1 17.75 28 2.25 2.25 0 0 1 20 25.75z"/></svg>