<svg id="Icon_ionic-ios-checkmark-circle-outline" data-name="Icon ionic-ios-checkmark-circle-outline" xmlns="http://www.w3.org/2000/svg" width="18.933" height="18.933" viewBox="0 0 18.933 18.933">
  <path id="Path_1609" data-name="Path 1609" d="M20.183,13.085l-.8-.824a.172.172,0,0,0-.127-.055h0a.165.165,0,0,0-.127.055l-5.552,5.593-2.021-2.021a.176.176,0,0,0-.255,0l-.81.81a.181.181,0,0,0,0,.259l2.549,2.549a.806.806,0,0,0,.532.259.845.845,0,0,0,.528-.25h0l6.085-6.117A.2.2,0,0,0,20.183,13.085Z" transform="translate(-5.865 -6.49)" fill="#747474"/>
  <path id="Path_1610" data-name="Path 1610" d="M12.841,4.649a8.189,8.189,0,1,1-5.794,2.4,8.138,8.138,0,0,1,5.794-2.4m0-1.274a9.466,9.466,0,1,0,9.466,9.466,9.465,9.465,0,0,0-9.466-9.466Z" transform="translate(-3.375 -3.375)" fill="#747474"/>
</svg>
