<svg xmlns="http://www.w3.org/2000/svg" width="14.915" height="15.072" viewBox="0 0 14.915 15.072"><defs><style>.a{fill:#9890b7;}</style></defs><g transform="translate(-2118.62 -489.162)"><path class="a" d="M2126.078,509.938a7.458,7.458,0,0,1-5.273-12.731,7.5,7.5,0,0,1,1.252-1.009.538.538,0,0,1,.581.906,6.428,6.428,0,0,0-1.073.864,6.381,6.381,0,1,0,9.024,0,6.416,6.416,0,0,0-1.072-.864.538.538,0,1,1,.581-.906,7.52,7.52,0,0,1,1.252,1.009,7.458,7.458,0,0,1-5.273,12.731Z" transform="translate(0 -5.703)"/><path class="a" d="M2157.72,493.821a.538.538,0,0,1-.538-.538V489.7a.538.538,0,0,1,1.077,0v3.583A.539.539,0,0,1,2157.72,493.821Z" transform="translate(-31.642)"/></g></svg>