<svg xmlns="http://www.w3.org/2000/svg" width="14.379" height="18.872" viewBox="0 0 14.379 18.872">
  <path id="Icon_metro-flow-branch" data-name="Icon metro-flow-branch" d="M22.5,6.706a2.7,2.7,0,1,0-3.837,2.434c-.092,1.779-1.427,2.384-3.746,3.253a14.663,14.663,0,0,0-2.976,1.386V9.151a2.7,2.7,0,1,0-2.247,0v8.593a2.7,2.7,0,1,0,2.265.009c.092-1.778,1.428-2.384,3.746-3.253,2.28-.856,5.1-1.922,5.212-5.343A2.694,2.694,0,0,0,22.5,6.706ZM10.819,5.151A1.556,1.556,0,1,1,9.265,6.706,1.555,1.555,0,0,1,10.819,5.151Zm0,16.592a1.556,1.556,0,1,1,1.555-1.556,1.556,1.556,0,0,1-1.555,1.556Zm8.987-13.48a1.556,1.556,0,1,1,1.555-1.556,1.556,1.556,0,0,1-1.555,1.556Z" transform="translate(-8.123 -4.01)" fill="#747474"/>
</svg>
