
<svg id="Layer_1" data-name="Layer 1" xmlns="http://www.w3.org/2000/svg" viewBox="0 0 122.88 122.88">
<defs><style>.cls-1{fill-rule:evenodd;}</style></defs><title>sync</title><path class="cls-1" d="M64.89,32.65,59.81,58.5l-5.16-7.77C43.54,55.19,37.3,62.54,36.38,73.86c-9.13-16-3.59-30.25,8-38.63L39.09,27.3l25.8,5.35ZM61.44,0A61.46,61.46,0,1,1,18,18,61.21,61.21,0,0,1,61.44,0ZM97.56,25.32a51.08,51.08,0,1,0,15,36.12,51,51,0,0,0-15-36.12ZM56.64,91.8,61.72,66l5.16,7.77C78,69.26,84.23,61.91,85.15,50.59c9.13,16,3.59,30.25-8,38.63l5.26,7.93L56.64,91.8Z"/></svg>