<svg xmlns="http://www.w3.org/2000/svg" width="19.497" height="18.05" viewBox="0 0 19.497 18.05">
  <g id="Group_61449" data-name="Group 61449" transform="translate(-2886.514 -492.117)">
    <g id="Group_61449-2" data-name="Group 61449" transform="translate(2899.964 507.354)">
      <path id="Path_1455" data-name="Path 1455" d="M2946.547,560.549a.693.693,0,0,1-.493-.2l-1.389-1.394a.7.7,0,1,1,.986-.983l1.389,1.394a.7.7,0,0,1-.493,1.188Z" transform="translate(-2944.461 -557.763)" fill="#3b83d8"/>
    </g>
    <path id="Path_1456" data-name="Path 1456" d="M2953.9,496.929a.693.693,0,0,1-.492-.2l-3.42-3.42a.7.7,0,0,1,.985-.985l3.42,3.42a.7.7,0,0,1-.492,1.189Z" transform="translate(-48.581)" fill="#3b83d8"/>
    <g id="Group_61450" data-name="Group 61450" transform="translate(2889.779 507.354)">
      <path id="Path_1457" data-name="Path 1457" d="M2901.279,560.549a.7.7,0,0,1-.493-1.188l1.389-1.394a.7.7,0,1,1,.986.983l-1.389,1.394A.7.7,0,0,1,2901.279,560.549Z" transform="translate(-2900.583 -557.763)" fill="#3b83d8"/>
    </g>
    <path id="Path_1458" data-name="Path 1458" d="M2887.21,496.929a.7.7,0,0,1-.492-1.189l3.42-3.42a.7.7,0,0,1,.985.985l-3.42,3.42A.7.7,0,0,1,2887.21,496.929Z" fill="#3b83d8"/>
    <g id="Group_61451" data-name="Group 61451" transform="translate(2893.622 498.351)">
      <path id="Path_1459" data-name="Path 1459" d="M2928.756,524.376a.7.7,0,0,1-.7-.7v-4.007a.7.7,0,1,1,1.393,0v4.007A.7.7,0,0,1,2928.756,524.376Z" transform="translate(-2925.525 -518.977)" fill="#3b83d8"/>
      <path id="Path_1460" data-name="Path 1460" d="M2920.37,537.633h-2.535a.7.7,0,1,1,0-1.393h2.535a.7.7,0,0,1,0,1.393Z" transform="translate(-2917.139 -532.233)" fill="#3b83d8"/>
    </g>
    <path id="Path_1461" data-name="Path 1461" d="M2901.349,515.554a8.211,8.211,0,1,1,8.211-8.211A8.22,8.22,0,0,1,2901.349,515.554Zm0-15.029a6.818,6.818,0,1,0,6.818,6.818A6.826,6.826,0,0,0,2901.349,500.525Z" transform="translate(-5.087 -5.387)" fill="#3b83d8"/>
  </g>
</svg>
