<svg xmlns="http://www.w3.org/2000/svg" width="12.526" height="16.16" viewBox="0 0 12.526 16.16"><g transform="translate(-940 550)"><path d="M6.914.245a.833.833,0,0,0-1.18,0L.194,5.786a.667.667,0,0,0,0,.94l5.54,5.54a.835.835,0,1,0,1.18-1.18L2.087,6.252,6.921,1.419A.831.831,0,0,0,6.914.245Z" transform="translate(952.526 -550) rotate(90)" fill="#564d7b" fill-rule="evenodd"/><path d="M6.914.245a.833.833,0,0,0-1.18,0L.194,5.786a.667.667,0,0,0,0,.94l5.54,5.54a.835.835,0,1,0,1.18-1.18L2.087,6.252,6.921,1.419A.831.831,0,0,0,6.914.245Z" transform="translate(940 -533.84) rotate(-90)" fill="#564d7b" fill-rule="evenodd"/></g></svg>