<svg xmlns="http://www.w3.org/2000/svg" width="12.693" height="7.22" viewBox="0 0 12.693 7.22"><defs><style>.a{fill:#9a9a9a;}</style></defs><g transform="translate(-2330.246 -1479.501)"><path class="a" d="M2350.086,1486.721a.866.866,0,0,1-.611-1.478l5.488-5.489a.865.865,0,0,1,1.224,1.224l-5.488,5.489A.862.862,0,0,1,2350.086,1486.721Z" transform="translate(-13.501 0)"/><path class="a" d="M2336.585,1486.757a.861.861,0,0,1-.612-.254l-5.474-5.474a.865.865,0,0,1,1.224-1.224l5.474,5.474a.866.866,0,0,1-.612,1.478Z" transform="translate(0 -0.037)"/></g></svg>