<svg xmlns="http://www.w3.org/2000/svg" width="18.443" height="13.174" viewBox="0 0 18.443 13.174">
  <g id="Group_1820" data-name="Group 1820" transform="translate(-582.272 -6260.995)">
    <g id="Group_1819" data-name="Group 1819" transform="translate(582.272 6260.995)">
      <path id="Path_811" data-name="Path 811" d="M598.739,6274.169H584.248a1.978,1.978,0,0,1-1.976-1.977v-9.221a1.978,1.978,0,0,1,1.976-1.976h14.491a1.978,1.978,0,0,1,1.976,1.976v9.221A1.978,1.978,0,0,1,598.739,6274.169Zm-14.491-11.856a.659.659,0,0,0-.659.659v9.221a.66.66,0,0,0,.659.659h14.491a.66.66,0,0,0,.659-.659v-9.221a.659.659,0,0,0-.659-.659Z" transform="translate(-582.272 -6260.995)" fill="#ccc3f2"/>
      <path id="Path_812" data-name="Path 812" d="M596.7,6302.167H594.31a.659.659,0,0,1,0-1.317H596.7a.659.659,0,0,1,0,1.317Z" transform="translate(-591.153 -6292.099)" fill="#ccc3f2"/>
    </g>
    <rect id="Rectangle_127" data-name="Rectangle 127" width="17.126" height="2.415" transform="translate(582.931 6264.744)" fill="#ccc3f2"/>
  </g>
</svg>
