<svg xmlns="http://www.w3.org/2000/svg" width="16" height="16" viewBox="0 0 16 16">
  <g id="Group_61387" data-name="Group 61387" transform="translate(-582.299 -14120.824)">
    <g id="Group_61385" data-name="Group 61385" transform="translate(582.299 14123.613)">
      <path id="Path_818" data-name="Path 818" d="M592.946,14148.68h-8.094a2.556,2.556,0,0,1-2.553-2.553v-8.1a2.557,2.557,0,0,1,2.553-2.555h8.094a2.557,2.557,0,0,1,2.553,2.555v8.1A2.556,2.556,0,0,1,592.946,14148.68Zm-8.094-12.066a1.412,1.412,0,0,0-1.41,1.41v8.1a1.412,1.412,0,0,0,1.41,1.41h8.094a1.412,1.412,0,0,0,1.41-1.41v-8.1a1.412,1.412,0,0,0-1.41-1.41Z" transform="translate(-582.299 -14135.469)" fill="#259b10"/>
    </g>
    <g id="Group_61386" data-name="Group 61386" transform="translate(585.099 14120.824)">
      <path id="Path_819" data-name="Path 819" d="M607.478,14134.033h-.651v-1.143h.651a1.6,1.6,0,0,0,1.578-1.609v-7.705a1.6,1.6,0,0,0-1.578-1.609h-7.76a1.6,1.6,0,0,0-1.577,1.609v.607H597v-.607a2.739,2.739,0,0,1,2.72-2.752h7.76a2.739,2.739,0,0,1,2.72,2.752v7.705A2.739,2.739,0,0,1,607.478,14134.033Z" transform="translate(-596.998 -14120.824)" fill="#259b10"/>
    </g>
  </g>
</svg>
