<svg xmlns="http://www.w3.org/2000/svg" width="18.444" height="20.354" viewBox="0 0 18.444 20.354"><defs><style>.a{fill:#ccc3f2;}</style></defs><g transform="translate(-2118.644 -6440.555)"><rect class="a" width="1.454" height="3.647" transform="translate(2127.109 6453.788)"/><path class="a" d="M2173.07,6455.892a2.29,2.29,0,1,1,2.29-2.29A2.293,2.293,0,0,1,2173.07,6455.892Zm0-3.126a.836.836,0,1,0,.836.836A.837.837,0,0,0,2173.07,6452.766Z" transform="translate(-39.503 -8.15)"/><path class="a" d="M2149.419,6445.135a2.29,2.29,0,1,1,2.29-2.29A2.293,2.293,0,0,1,2149.419,6445.135Zm0-3.126a.836.836,0,1,0,.836.836A.837.837,0,0,0,2149.419,6442.009Z" transform="translate(-21.583)"/><path class="a" d="M2149.419,6483.846a2.29,2.29,0,1,1,2.29-2.29A2.293,2.293,0,0,1,2149.419,6483.846Zm0-3.125a.836.836,0,1,0,.836.836A.837.837,0,0,0,2149.419,6480.72Z" transform="translate(-21.583 -29.331)"/><path class="a" d="M2125.769,6455.892a2.29,2.29,0,1,1,2.29-2.29A2.292,2.292,0,0,1,2125.769,6455.892Zm0-3.126a.836.836,0,1,0,.836.836A.837.837,0,0,0,2125.769,6452.766Z" transform="translate(-3.663 -8.15)"/><rect class="a" width="3.332" height="1.454" transform="translate(2129.399 6451.498)"/><rect class="a" width="3.332" height="1.454" transform="translate(2122.496 6451.498)"/><path class="a" d="M2149.419,6510.234a2.29,2.29,0,1,1,2.29-2.29A2.293,2.293,0,0,1,2149.419,6510.234Zm0-3.126a.836.836,0,1,0,.836.836A.837.837,0,0,0,2149.419,6507.108Z" transform="translate(-21.583 -49.324)"/><path class="a" d="M2120.934,6483.846a2.29,2.29,0,1,1,2.29-2.29A2.292,2.292,0,0,1,2120.934,6483.846Zm0-3.125a.836.836,0,1,0,.836.836A.837.837,0,0,0,2120.934,6480.72Z" transform="translate(0 -29.331)"/><path class="a" d="M2178.149,6483.846a2.29,2.29,0,1,1,2.29-2.29A2.293,2.293,0,0,1,2178.149,6483.846Zm0-3.125a.836.836,0,1,0,.836.836A.837.837,0,0,0,2178.149,6480.72Z" transform="translate(-43.351 -29.331)"/><rect class="a" width="1.454" height="6.254" transform="translate(2127.109 6444.408)"/><rect class="a" width="1.454" height="5.809" transform="matrix(0.784, -0.621, 0.621, 0.784, 2122.394, 6447.209)"/><rect class="a" width="5.809" height="1.454" transform="matrix(0.621, -0.784, 0.784, 0.621, 2128.329, 6450.857)"/></g></svg>