<svg xmlns="http://www.w3.org/2000/svg" width="24.14" height="16.281" viewBox="0 0 24.14 16.281"><defs><style>.a{fill:#564d7b;}</style></defs><g transform="translate(-784.296 -1661.427)"><path class="a" d="M807.3,1663.692H785.428a1.132,1.132,0,1,1,0-2.265H807.3a1.132,1.132,0,1,1,0,2.265Z"/><path class="a" d="M796.366,1682.267H785.429a1.132,1.132,0,0,1,0-2.265h10.937a1.132,1.132,0,0,1,0,2.265Z" transform="translate(-0.001 -11.564)"/><path class="a" d="M796.366,1700.829H785.429a1.132,1.132,0,1,1,0-2.265h10.937a1.132,1.132,0,0,1,0,2.265Z" transform="translate(-0.001 -23.12)"/><g transform="translate(808.436 1668.895) rotate(90)"><g transform="translate(3.037)"><path class="a" d="M1.132,9.279A1.133,1.133,0,0,1,0,8.147V1.132a1.132,1.132,0,1,1,2.265,0V8.147A1.132,1.132,0,0,1,1.132,9.279Z"/></g><g transform="translate(0 3.972)"><path class="a" d="M1.132,5.307a1.132,1.132,0,0,1-.8-1.933L3.374.331a1.132,1.132,0,0,1,1.6,1.6L1.933,4.975A1.13,1.13,0,0,1,1.132,5.307Z" transform="translate(3.042)"/><path class="a" d="M4.174,5.307a1.129,1.129,0,0,1-.8-.332L.332,1.933a1.132,1.132,0,0,1,1.6-1.6L4.975,3.374a1.132,1.132,0,0,1-.8,1.933Z"/></g></g></g></svg>