<svg xmlns="http://www.w3.org/2000/svg" width="18.443" height="14.797" viewBox="0 0 18.443 14.797"><defs><style>.a{fill:#ccc3f2;}</style></defs><g transform="translate(-1734.299 -9904.9)"><g transform="translate(1734.299 9904.9)"><g transform="translate(0 0)"><path class="a" d="M1749.372,9911.641h-11.7a3.37,3.37,0,1,1,0-6.74h11.7a3.37,3.37,0,1,1,0,6.74Zm-11.7-5.423a2.053,2.053,0,0,0,0,4.106h11.7a2.053,2.053,0,0,0,0-4.106Z" transform="translate(-1734.299 -9904.9)"/></g><circle class="a" cx="1.006" cy="1.006" r="1.006" transform="translate(2.481 2.364)"/></g><g transform="translate(1734.299 9912.957)"><g transform="translate(0)"><path class="a" d="M1749.372,9948.334h-11.7a3.37,3.37,0,1,1,0-6.74h11.7a3.37,3.37,0,1,1,0,6.74Zm-11.7-5.423a2.053,2.053,0,1,0,0,4.105h11.7a2.053,2.053,0,1,0,0-4.105Z" transform="translate(-1734.299 -9941.594)"/></g><circle class="a" cx="1.006" cy="1.006" r="1.006" transform="translate(2.481 2.364)"/></g></g></svg>