<svg xmlns="http://www.w3.org/2000/svg" width="10.568" height="13.21" viewBox="0 0 10.568 13.21"><defs><style>.a{fill:#564d7b;}</style></defs><g transform="translate(-4 -2)"><path class="a" d="M10.605,2H5.321A1.325,1.325,0,0,0,4,3.321V13.889A1.325,1.325,0,0,0,5.321,15.21h7.926a1.325,1.325,0,0,0,1.321-1.321V5.963Zm2.642,11.889H5.321V3.321h5.284V5.963h2.642ZM9.284,11.908h0a1.325,1.325,0,0,1-1.321-1.321V6.954a.327.327,0,0,1,.33-.33h0a.327.327,0,0,1,.33.33v3.633H9.945V6.954A1.652,1.652,0,0,0,8.293,5.3h0A1.652,1.652,0,0,0,6.642,6.954v3.633a2.641,2.641,0,0,0,2.642,2.642h0a2.641,2.641,0,0,0,2.642-2.642V7.945H10.605v2.642A1.325,1.325,0,0,1,9.284,11.908Z"/></g></svg>