<svg xmlns="http://www.w3.org/2000/svg" width="127.996" height="172.587" viewBox="0 0 127.996 172.587"><g transform="translate(-1.113 1.5)"><path d="M45.279,3.5V66.962L7.2,129.265a15.865,15.865,0,0,0,13.025,24.956h89.766a15.865,15.865,0,0,0,13.025-24.956l-38.077-62.3V3.5" transform="translate(0 13.865)" fill="none" stroke="#40366b" stroke-linecap="round" stroke-linejoin="round" stroke-width="6"/><path d="M78.894,9.433a7.933,7.933,0,0,1-7.933,7.933H15.433a7.933,7.933,0,1,1,0-15.865H70.962A7.933,7.933,0,0,1,78.894,9.433Z" transform="translate(21.914)" fill="none" stroke="#40366b" stroke-linecap="round" stroke-linejoin="round" stroke-width="6"/><line x1="15.865" transform="translate(69.077 33.231)" fill="none" stroke="#40366b" stroke-linecap="round" stroke-linejoin="round" stroke-width="6"/><line x1="15.865" transform="translate(69.077 64.962)" fill="none" stroke="#40366b" stroke-linecap="round" stroke-linejoin="round" stroke-width="6"/><line x1="23.798" transform="translate(61.144 49.096)" fill="none" stroke="#40366b" stroke-linecap="round" stroke-linejoin="round" stroke-width="6"/><line x2="78.423" transform="translate(25.899 112.558)" fill="none" stroke="#40366b" stroke-linecap="round" stroke-linejoin="round" stroke-width="6"/><circle cx="11.899" cy="11.899" r="11.899" transform="translate(33.38 128.423)" fill="none" stroke="#40366b" stroke-linecap="round" stroke-linejoin="round" stroke-width="6"/><path d="M20.7,19.75a5.95,5.95,0,1,0,5.95,5.95,5.95,5.95,0,0,0-5.95-5.95Z" transform="translate(72.176 126.522)" fill="#433970"/><path d="M18.7,16.75a5.95,5.95,0,1,0,5.95,5.95A5.95,5.95,0,0,0,18.7,16.75Z" transform="translate(58.31 105.724)" fill="#433970"/></g></svg>