<svg xmlns="http://www.w3.org/2000/svg" width="18.444" height="18.444" viewBox="0 0 606.877 605.437"><g transform="translate(431 815)"><path d="M58.64,280.154H221.294a58.207,58.207,0,0,0,58.14-58.14V59.36a58.206,58.206,0,0,0-58.14-58.14H58.64A58.206,58.206,0,0,0,.5,59.36V222.014A58.206,58.206,0,0,0,58.64,280.154ZM43.34,59.36a15.3,15.3,0,0,1,15.3-15.3H221.294a15.3,15.3,0,0,1,15.3,15.3V222.014a15.3,15.3,0,0,1-15.3,15.3H58.64a15.3,15.3,0,0,1-15.3-15.3Z" transform="translate(-431 -815.72)" fill="#ccc3f2"/><path d="M221.294,280.654H58.64A58.707,58.707,0,0,1,0,222.014V59.36A58.706,58.706,0,0,1,58.64.72H221.294a58.707,58.707,0,0,1,58.64,58.64V222.014A58.707,58.707,0,0,1,221.294,280.654ZM58.64,1.72A57.705,57.705,0,0,0,1,59.36V222.014a57.705,57.705,0,0,0,57.64,57.64H221.294a57.705,57.705,0,0,0,57.64-57.64V59.36a57.705,57.705,0,0,0-57.64-57.64H58.64ZM221.294,237.813H58.64a15.818,15.818,0,0,1-15.8-15.8V59.36a15.818,15.818,0,0,1,15.8-15.8H221.294a15.818,15.818,0,0,1,15.8,15.8V222.014A15.817,15.817,0,0,1,221.294,237.813ZM58.64,44.56a14.816,14.816,0,0,0-14.8,14.8V222.014a14.816,14.816,0,0,0,14.8,14.8H221.294a14.816,14.816,0,0,0,14.8-14.8V59.36a14.816,14.816,0,0,0-14.8-14.8Z" transform="translate(-431 -815.72)" fill="#ccc3f2"/><path d="M548.238,1.22H385.584a58.207,58.207,0,0,0-58.141,58.14V222.014a58.207,58.207,0,0,0,58.141,58.14H548.238a58.2,58.2,0,0,0,58.139-58.14V59.36A58.2,58.2,0,0,0,548.238,1.22Zm15.3,220.794a15.3,15.3,0,0,1-15.3,15.3H385.584a15.3,15.3,0,0,1-15.3-15.3V59.36a15.3,15.3,0,0,1,15.3-15.3H548.238a15.3,15.3,0,0,1,15.3,15.3V222.014Z" transform="translate(-431 -815.72)" fill="#ccc3f2"/><path d="M548.238,280.654H385.584a58.707,58.707,0,0,1-58.641-58.64V59.36A58.707,58.707,0,0,1,385.584.72H548.238a58.706,58.706,0,0,1,58.639,58.64V222.014A58.706,58.706,0,0,1,548.238,280.654ZM385.584,1.72a57.706,57.706,0,0,0-57.641,57.64V222.014a57.705,57.705,0,0,0,57.641,57.64H548.238a57.7,57.7,0,0,0,57.639-57.64V59.36A57.7,57.7,0,0,0,548.238,1.72H385.584ZM548.238,237.813H385.584a15.818,15.818,0,0,1-15.8-15.8V59.36a15.818,15.818,0,0,1,15.8-15.8H548.238a15.817,15.817,0,0,1,15.8,15.8V222.014A15.816,15.816,0,0,1,548.238,237.813ZM385.584,44.56a14.817,14.817,0,0,0-14.8,14.8V222.014a14.817,14.817,0,0,0,14.8,14.8H548.238a14.816,14.816,0,0,0,14.8-14.8V59.36a14.816,14.816,0,0,0-14.8-14.8Z" transform="translate(-431 -815.72)" fill="#ccc3f2"/><path d="M58.64,605.657H221.294a58.205,58.205,0,0,0,58.14-58.139V384.864a58.207,58.207,0,0,0-58.14-58.141H58.64A58.207,58.207,0,0,0,.5,384.864V547.518A58.2,58.2,0,0,0,58.64,605.657ZM43.34,384.864a15.3,15.3,0,0,1,15.3-15.3H221.294a15.3,15.3,0,0,1,15.3,15.3V547.518a15.3,15.3,0,0,1-15.3,15.3H58.64a15.3,15.3,0,0,1-15.3-15.3Z" transform="translate(-431 -815.72)" fill="#ccc3f2"/><path d="M221.294,606.157H58.64A58.706,58.706,0,0,1,0,547.519V384.864a58.707,58.707,0,0,1,58.64-58.641H221.294a58.707,58.707,0,0,1,58.64,58.641V547.518A58.706,58.706,0,0,1,221.294,606.157ZM58.64,327.224A57.705,57.705,0,0,0,1,384.864V547.518a57.7,57.7,0,0,0,57.64,57.639H221.294a57.7,57.7,0,0,0,57.64-57.639V384.864a57.706,57.706,0,0,0-57.64-57.641H58.64ZM221.294,563.317H58.64a15.817,15.817,0,0,1-15.8-15.8V384.864a15.818,15.818,0,0,1,15.8-15.8H221.294a15.818,15.818,0,0,1,15.8,15.8V547.518A15.817,15.817,0,0,1,221.294,563.317ZM58.64,370.063a14.817,14.817,0,0,0-14.8,14.8V547.518a14.816,14.816,0,0,0,14.8,14.8H221.294a14.816,14.816,0,0,0,14.8-14.8V384.864a14.817,14.817,0,0,0-14.8-14.8H58.64Z" transform="translate(-431 -815.72)" fill="#ccc3f2"/><path d="M548.238,326.724H385.584a58.207,58.207,0,0,0-58.141,58.141V547.519a58.205,58.205,0,0,0,58.141,58.139H548.238a58.2,58.2,0,0,0,58.139-58.139V384.864A58.205,58.205,0,0,0,548.238,326.724Zm15.3,220.795a15.3,15.3,0,0,1-15.3,15.3H385.584a15.3,15.3,0,0,1-15.3-15.3V384.864a15.3,15.3,0,0,1,15.3-15.3H548.238a15.3,15.3,0,0,1,15.3,15.3V547.519Z" transform="translate(-431 -815.72)" fill="#ccc3f2"/><path d="M548.238,606.157H385.584a58.707,58.707,0,0,1-58.641-58.639V384.864a58.707,58.707,0,0,1,58.641-58.641H548.238a58.707,58.707,0,0,1,58.639,58.641V547.518A58.706,58.706,0,0,1,548.238,606.157ZM385.584,327.224a57.706,57.706,0,0,0-57.641,57.641V547.519a57.705,57.705,0,0,0,57.641,57.639H548.238a57.7,57.7,0,0,0,57.639-57.639V384.864a57.705,57.705,0,0,0-57.639-57.641H385.584ZM548.238,563.317H385.584a15.817,15.817,0,0,1-15.8-15.8V384.864a15.819,15.819,0,0,1,15.8-15.8H548.238a15.817,15.817,0,0,1,15.8,15.8V547.518A15.816,15.816,0,0,1,548.238,563.317ZM385.584,370.063a14.818,14.818,0,0,0-14.8,14.8V547.518a14.817,14.817,0,0,0,14.8,14.8H548.238a14.816,14.816,0,0,0,14.8-14.8V384.864a14.817,14.817,0,0,0-14.8-14.8H385.584Z" transform="translate(-431 -815.72)" fill="#ccc3f2"/></g></svg>