<svg xmlns="http://www.w3.org/2000/svg" width="18.443" height="18.442" viewBox="0 0 18.443 18.442"><defs><style>.a{fill:#ccc3f2;}</style></defs><g transform="translate(-1158.272 -9897.472)"><g transform="translate(1158.272 9897.472)"><path class="a" d="M1167.493,9915.914a9.221,9.221,0,1,1,9.221-9.221A9.231,9.231,0,0,1,1167.493,9915.914Zm0-17.125a7.9,7.9,0,1,0,7.9,7.9A7.913,7.913,0,0,0,1167.493,9898.789Z" transform="translate(-1158.272 -9897.472)"/></g><g transform="translate(1164.848 9902.302)"><path class="a" d="M1190.852,9926.285a.658.658,0,0,1-.655-.6,3.162,3.162,0,0,1,1.165-2.468,3.362,3.362,0,0,0,.776-1.053.912.912,0,0,0-.391-1.119,1.326,1.326,0,0,0-1.227-.177,1.79,1.79,0,0,0-1,1.257.659.659,0,1,1-1.275-.33,3.1,3.1,0,0,1,1.793-2.152,2.625,2.625,0,0,1,2.419.293,2.242,2.242,0,0,1,.925,2.659,4.411,4.411,0,0,1-1.06,1.523c-.534.569-.859.942-.813,1.447a.659.659,0,0,1-.6.716C1190.892,9926.285,1190.872,9926.285,1190.852,9926.285Z" transform="translate(-1188.225 -9919.472)"/><path class="a" d="M1197.917,9956.774a.661.661,0,1,1,.659-.668v.009A.659.659,0,0,1,1197.917,9956.774Z" transform="translate(-1195.275 -9947.552)"/></g></g></svg>