<svg xmlns="http://www.w3.org/2000/svg" width="13" height="12.999" viewBox="0 0 13 12.999">
  <g id="Group_61455" data-name="Group 61455" transform="translate(-1542.227 -9895.42)">
    <path id="Path_1465" data-name="Path 1465" d="M1548.727,9896.348a5.571,5.571,0,1,1-5.571,5.571,5.577,5.577,0,0,1,5.571-5.571m0-.928a6.5,6.5,0,1,0,6.5,6.5,6.5,6.5,0,0,0-6.5-6.5Z" transform="translate(0)" fill="#1a1818"/>
    <g id="Group_61456" data-name="Group 61456" transform="translate(1548.107 9898.747)">
      <g id="Group_61455-2" data-name="Group 61455" transform="translate(0.155 0)">
        <path id="Path_1466" data-name="Path 1466" d="M1581.691,9920.754a.464.464,0,0,1-.464-.465v-2.905a.464.464,0,0,1,.929,0v2.905A.464.464,0,0,1,1581.691,9920.754Z" transform="translate(-1581.227 -9916.92)" fill="#1a1818"/>
      </g>
      <circle id="Ellipse_57" data-name="Ellipse 57" cx="0.62" cy="0.62" r="0.62" transform="translate(0 4.641)" fill="#1a1818"/>
    </g>
  </g>
</svg>
