<svg xmlns="http://www.w3.org/2000/svg" width="18.036" height="18.05" viewBox="0 0 18.036 18.05">
  <g id="Group_61447" data-name="Group 61447" transform="translate(-1158.549 -2601.09)">
    <path id="Path_1447" data-name="Path 1447" d="M1212.156,2616.837a5.732,5.732,0,0,0-3.752-3.631l.375-1.234a7.025,7.025,0,0,1,4.6,4.449Z" transform="translate(-39.143 -8.544)" fill="#6ac428"/>
    <path id="Path_1448" data-name="Path 1448" d="M1170.87,2617.11l-1.225-.4a7.04,7.04,0,0,1,4.439-4.465l.409,1.223A5.744,5.744,0,0,0,1170.87,2617.11Z" transform="translate(-8.712 -8.757)" fill="#6ac428"/>
    <path id="Path_1449" data-name="Path 1449" d="M1173.9,2655.8a7.01,7.01,0,0,1-4.531-4.667l1.236-.366a5.721,5.721,0,0,0,3.7,3.809Z" transform="translate(-8.492 -39.003)" fill="#6ac428"/>
    <path id="Path_1450" data-name="Path 1450" d="M1209.388,2656.4l-.4-1.224a5.744,5.744,0,0,0,3.645-3.644l1.224.4A7.037,7.037,0,0,1,1209.388,2656.4Z" transform="translate(-39.599 -39.603)" fill="#6ac428"/>
    <path id="Path_1451" data-name="Path 1451" d="M1190.934,2665.654a2.66,2.66,0,1,1,2.66-2.66A2.662,2.662,0,0,1,1190.934,2665.654Zm0-4.03a1.37,1.37,0,1,0,1.37,1.37A1.372,1.372,0,0,0,1190.934,2661.624Z" transform="translate(-23.339 -46.515)" fill="#6ac428"/>
    <path id="Path_1452" data-name="Path 1452" d="M1190.934,2606.409a2.66,2.66,0,1,1,2.66-2.66A2.663,2.663,0,0,1,1190.934,2606.409Zm0-4.03a1.37,1.37,0,1,0,1.37,1.37A1.372,1.372,0,0,0,1190.934,2602.379Z" transform="translate(-23.339)" fill="#6ac428"/>
    <path id="Path_1453" data-name="Path 1453" d="M1220.393,2636.135a2.66,2.66,0,1,1,2.66-2.66A2.663,2.663,0,0,1,1220.393,2636.135Zm0-4.03a1.37,1.37,0,1,0,1.37,1.37A1.372,1.372,0,0,0,1220.393,2632.105Z" transform="translate(-46.467 -23.339)" fill="#6ac428"/>
    <path id="Path_1454" data-name="Path 1454" d="M1161.209,2636.135a2.66,2.66,0,1,1,2.66-2.66A2.663,2.663,0,0,1,1161.209,2636.135Zm0-4.03a1.37,1.37,0,1,0,1.37,1.37A1.372,1.372,0,0,0,1161.209,2632.105Z" transform="translate(0 -23.339)" fill="#6ac428"/>
  </g>
</svg>
