<svg xmlns="http://www.w3.org/2000/svg" width="13.856" height="13.856" viewBox="0 0 13.856 13.856"><defs><style>.a{fill:#564d7b;}</style></defs><path class="a" d="M3.386,4.771H2v9.7a1.39,1.39,0,0,0,1.386,1.386h9.7V14.471h-9.7ZM14.471,2H6.157A1.39,1.39,0,0,0,4.771,3.386V11.7a1.39,1.39,0,0,0,1.386,1.386h8.314A1.39,1.39,0,0,0,15.856,11.7V3.386A1.39,1.39,0,0,0,14.471,2Zm0,9.7H6.157V3.386h8.314Zm-4.85-1.386h1.386V8.235h2.078V6.85H11.007V4.771H9.621V6.85H7.543V8.235H9.621Z" transform="translate(-2 -2)"/></svg>