<svg xmlns="http://www.w3.org/2000/svg" width="15.959" height="18.271" viewBox="0 0 15.959 18.271"><defs><style>.a{fill:#ccc3f2;}</style></defs><g transform="translate(-971.612 -9896.814)"><path class="a" d="M986.484,9915.086H972.7a1.089,1.089,0,0,1-1.088-1.088v-16.1a1.089,1.089,0,0,1,1.088-1.088h13.784a1.089,1.089,0,0,1,1.088,1.088V9914A1.089,1.089,0,0,1,986.484,9915.086Zm-13.567-1.306h13.349v-15.661H972.917Z" transform="translate(0)"/><g transform="translate(974.263 9899.71)"><path class="a" d="M1012.852,9915.814h-4.058a.653.653,0,0,1,0-1.306h4.058a.653.653,0,0,1,0,1.306Z" transform="translate(-1002.846 -9913.555)"/><g transform="translate(0)"><path class="a" d="M988.324,9913.337a.652.652,0,0,1-.461-1.113l1.908-1.907a.653.653,0,0,1,.923.923l-1.908,1.907A.648.648,0,0,1,988.324,9913.337Z" transform="translate(-986.829 -9910.125)"/><path class="a" d="M985.294,9917.169a.648.648,0,0,1-.461-.191l-.842-.842a.652.652,0,0,1,.923-.923l.842.842a.653.653,0,0,1-.462,1.114Z" transform="translate(-983.799 -9913.956)"/></g></g><g transform="translate(974.263 9904.344)"><path class="a" d="M1012.852,9937.119h-4.058a.652.652,0,1,1,0-1.3h4.058a.652.652,0,1,1,0,1.3Z" transform="translate(-1002.846 -9934.86)"/><g transform="translate(0 0)"><path class="a" d="M988.324,9934.643a.653.653,0,0,1-.461-1.114l1.908-1.908a.653.653,0,0,1,.923.923l-1.908,1.908A.653.653,0,0,1,988.324,9934.643Z" transform="translate(-986.829 -9931.429)"/><path class="a" d="M985.294,9938.475a.652.652,0,0,1-.461-.19l-.842-.843a.652.652,0,0,1,.923-.923l.842.843a.652.652,0,0,1-.462,1.113Z" transform="translate(-983.799 -9935.263)"/></g></g><g transform="translate(974.263 9908.978)"><path class="a" d="M1012.852,9958.426h-4.058a.653.653,0,0,1,0-1.306h4.058a.653.653,0,0,1,0,1.306Z" transform="translate(-1002.846 -9956.166)"/><g transform="translate(0 0)"><path class="a" d="M988.324,9955.948a.653.653,0,0,1-.461-1.114l1.908-1.907a.653.653,0,0,1,.923.923l-1.908,1.907A.649.649,0,0,1,988.324,9955.948Z" transform="translate(-986.829 -9952.735)"/><path class="a" d="M985.294,9959.779a.647.647,0,0,1-.461-.19l-.842-.843a.652.652,0,0,1,.923-.923l.842.843a.652.652,0,0,1-.462,1.113Z" transform="translate(-983.799 -9956.567)"/></g></g></g></svg>