<svg xmlns="http://www.w3.org/2000/svg" xmlns:xlink="http://www.w3.org/1999/xlink" width="45" height="93.304" viewBox="0 0 45 93.304">
  <defs>
    <linearGradient id="linear-gradient" x1="0.264" y1="0.645" x2="0.773" y2="1.606" gradientUnits="objectBoundingBox">
      <stop offset="0" stop-color="#f9eeb0"/>
      <stop offset="0.176" stop-color="#fdf9e5"/>
      <stop offset="0.6" stop-color="#f9eeb0"/>
      <stop offset="0.736" stop-color="#faf1c0"/>
      <stop offset="0.86" stop-color="#fbf3cb"/>
      <stop offset="1" stop-color="#f7e896"/>
    </linearGradient>
    <linearGradient id="linear-gradient-2" x1="0.278" y1="0.649" x2="0.728" y2="1.635" gradientUnits="objectBoundingBox">
      <stop offset="0" stop-color="#ebce56"/>
      <stop offset="0.176" stop-color="#fdec9a"/>
      <stop offset="0.316" stop-color="#f5e27c"/>
      <stop offset="0.594" stop-color="#dfb826"/>
      <stop offset="0.671" stop-color="#e4c13b"/>
      <stop offset="0.79" stop-color="#ebcf56"/>
      <stop offset="0.86" stop-color="#eed461"/>
      <stop offset="0.994" stop-color="#deae00"/>
    </linearGradient>
    <linearGradient id="linear-gradient-3" x1="0.301" y1="1.244" x2="0.733" y2="2.343" gradientUnits="objectBoundingBox">
      <stop offset="0" stop-color="#fde574"/>
      <stop offset="1" stop-color="#f6d966"/>
    </linearGradient>
    <linearGradient id="linear-gradient-4" x1="0.098" y1="0.172" x2="0.6" y2="1.129" gradientUnits="objectBoundingBox">
      <stop offset="0" stop-color="#dfb526"/>
      <stop offset="0.275" stop-color="#e9ca51"/>
      <stop offset="0.601" stop-color="#f3e07d"/>
      <stop offset="0.853" stop-color="#faed99"/>
      <stop offset="1" stop-color="#fdf3a4"/>
    </linearGradient>
    <linearGradient id="linear-gradient-5" x1="-0.026" y1="-0.814" x2="0.325" y2="0.079" gradientUnits="objectBoundingBox">
      <stop offset="0" stop-color="#dfb526"/>
      <stop offset="0.321" stop-color="#e9cb5c"/>
      <stop offset="0.627" stop-color="#f1de89"/>
      <stop offset="0.863" stop-color="#f7e9a5"/>
      <stop offset="1" stop-color="#f9eeb0"/>
    </linearGradient>
    <linearGradient id="linear-gradient-6" x1="0.892" y1="2.155" x2="1.776" y2="2.155" gradientUnits="objectBoundingBox">
      <stop offset="0" stop-color="#cfa400"/>
      <stop offset="0.083" stop-color="#d1a706"/>
      <stop offset="0.202" stop-color="#d7b119"/>
      <stop offset="0.342" stop-color="#e1c138"/>
      <stop offset="0.498" stop-color="#f0d762"/>
      <stop offset="0.505" stop-color="#f1d965"/>
      <stop offset="0.655" stop-color="#e9c73b"/>
      <stop offset="0.799" stop-color="#e3b91b"/>
      <stop offset="0.919" stop-color="#dfb107"/>
      <stop offset="1" stop-color="#deae00"/>
    </linearGradient>
    <linearGradient id="linear-gradient-7" x1="-2.38" y1="2.198" x2="-1.392" y2="2.198" xlink:href="#linear-gradient-6"/>
  </defs>
  <g id="Group_61391" data-name="Group 61391" transform="translate(-419 -277.696)">
    <g id="Group_61390" data-name="Group 61390" transform="translate(1079.799 406.268)">
      <path id="Path_820" data-name="Path 820" d="M-653.365-45.176l6.742,4.291c5.328,3.568,9.97,3.95,15.491.165l6.545-4.019c4.776-3.315,4.778-3.575,4.826-10.081l.071-9.514c.04-5.409-1.122-8.2-4.641-9.172l-.41-.089c-3.274-.879-3.17-3.994-4.224-4.386-1.07-.4-2.338-1.027-2.338-1.027l.051-6.86-4.307-4.634,2.2-4.325-1.453-3.05,1.439-3.661-2.642-3.815,2.461-4.019-2.736-5.795,3.2-5.529-5.2-5.932c-2.156-2.527-2.425-2.6-3.791-.156l-2.55,4.556a4.571,4.571,0,0,0-.967,2.641l-.3,40.407-2.354,1.09c-.956.443-1.1,3.464-4.13,4.321-.095.022-.362.092-.362.093-3.435.954-4.945,3.738-4.984,9l-.071,9.579C-657.84-48.419-657.842-48.159-653.365-45.176Zm22.516-8.95c-.031,4.149-.031,4.149-2.056,6.27l-2.775,2.574c-2.22,2.266-4.2,2.045-6.331-.079l-2.845-2.726c-1.889-1.895-1.889-1.895-1.857-6.157Z" transform="translate(0 0)" fill="url(#linear-gradient)"/>
      <path id="Path_821" data-name="Path 821" d="M-650.818-43.15l6.742,4.291c5.047,3.343,9.733,3.7,14.969.161l6.545-4.019c4.776-3.315,4.776-3.315,4.824-9.82l.071-9.514c.04-5.409-1.124-7.94-4.643-8.911l-.153-.042c-3.274-.879-3.427-4.041-4.481-4.433-1.07-.4-2.338-1.027-2.338-1.027l.051-6.86-4.305-4.894,2.2-4.325-1.453-3.05,1.439-3.661-2.642-3.815,2.461-4.019-2.735-5.795,3.2-5.53-4.941-5.67c-2.155-2.527-2.425-2.6-3.79-.156l-2.55,4.556a5.631,5.631,0,0,0-.706,2.643l-.3,40.407-2.354,1.09c-.956.443-1.365,3.462-4.391,4.319-.095.022-.362.092-.362.093-3.435.954-4.683,3.479-4.722,8.737l-.071,9.579C-655.3-46.132-655.3-46.132-650.818-43.15Zm22.254-8.691c-.031,4.149-.031,4.149-2.056,6.27L-633.4-43c-2.22,2.266-4.2,2.045-6.331-.079l-2.845-2.726c-1.889-1.895-1.889-1.895-1.858-6.157Z" transform="translate(-2.284 -2.285)" fill="url(#linear-gradient-2)"/>
      <path id="Path_822" data-name="Path 822" d="M-600.785,429.411c-1.056-2.25-3.278-3.011-7.33-3.042l-16.6-.124c-6.183-.046-8.2,1.794-8.247,8.1l-.063,8.422C-616.113,443.811-600.2,430.657-600.785,429.411Z" transform="translate(-22.235 -497.993)" fill="url(#linear-gradient-3)"/>
      <path id="Path_823" data-name="Path 823" d="M-631.276,449.587l6.005,3.822c4.5,2.978,8.67,3.3,13.334.143l5.83-3.58c4.254-2.953,4.254-2.953,4.3-8.748l.063-8.474c.048-6.5-1.852-8.338-8.233-8.385l-16.821-.125c-6.265-.047-8.309,1.818-8.356,8.2l-.063,8.533C-635.265,446.931-635.265,446.931-631.276,449.587Zm20.827-24.357c6.029.045,7.825,1.781,7.779,7.923l-.06,8.007c-.041,5.475-.041,5.475-4.06,8.265l-5.509,3.383c-4.407,2.979-8.351,2.678-12.6-.136l-5.674-3.611c-3.769-2.51-3.769-2.51-3.727-8.136l.06-8.062c.045-6.034,1.976-7.8,7.9-7.751Z" transform="translate(-20.26 -496.193)" fill="#fef8c8"/>
      <path id="Path_824" data-name="Path 824" d="M-629.205,451.263l5.928,3.772c4.437,2.94,8.557,3.254,13.161.142l5.754-3.534c4.2-2.914,4.2-2.914,4.241-8.634l.062-8.364c.048-6.416-1.828-8.23-8.126-8.276l-16.6-.124c-6.183-.046-8.2,1.794-8.248,8.1l-.063,8.422C-633.142,448.641-633.142,448.641-629.205,451.263Zm20.556-24.04c5.95.044,7.723,1.758,7.678,7.82l-.059,7.9c-.04,5.4-.04,5.4-4.008,8.158l-5.437,3.339c-4.349,2.94-8.242,2.643-12.435-.134l-5.6-3.564c-3.719-2.477-3.719-2.477-3.678-8.03l.059-7.957c.044-5.955,1.951-7.694,7.793-7.65Z" transform="translate(-22.165 -497.993)" fill="url(#linear-gradient-4)"/>
      <path id="Path_825" data-name="Path 825" d="M-558.239,594.372l3.242,3.106c2.426,2.421,4.684,2.672,7.214.09l3.162-2.933c2.308-2.417,2.313-3.129,2.348-7.856l-18.077-.134C-560.387,591.5-560.392,592.213-558.239,594.372Zm15.051-6.663c-.032,4.252-.032,4.252-2.107,6.426l-2.844,2.638c-2.276,2.322-4.307,2.1-6.489-.081l-2.916-2.793c-1.936-1.942-1.936-1.942-1.9-6.311Z" transform="translate(-87.462 -641.965)" fill="#fef8c8"/>
      <path id="Path_826" data-name="Path 826" d="M-556.155,595.705l3.163,3.03c2.367,2.361,4.57,2.606,7.039.088l3.085-2.861c2.252-2.358,2.257-3.052,2.291-7.665l-17.637-.131C-558.25,592.905-558.255,593.6-556.155,595.705Zm14.685-6.5c-.031,4.149-.031,4.149-2.056,6.27l-2.775,2.574c-2.22,2.266-4.2,2.045-6.331-.079l-2.845-2.726c-1.889-1.895-1.889-1.895-1.857-6.158Z" transform="translate(-89.379 -643.33)" fill="url(#linear-gradient-5)"/>
      <path id="Path_827" data-name="Path 827" d="M-522.676-70.385c.9.007,1.637-1.489,1.657-4.236l.382-51.385c-.5-.016-.909.575-1.585,1.783l-1.7,3.043-.346,46.535C-524.29-72.057-523.574-70.392-522.676-70.385Z" transform="translate(-119.853 -2.303)" fill="#f9eeb0"/>
      <path id="Path_828" data-name="Path 828" d="M-521.147-70.57c.8.006,1.465-1.473,1.485-4.188l.38-51.079c-.427.112-.815.7-1.412,1.766l-1.528,2.731-.347,46.561C-522.589-72.221-521.95-70.576-521.147-70.57Z" transform="translate(-121.38 -2.455)" fill="url(#linear-gradient-6)"/>
      <path id="Path_829" data-name="Path 829" d="M-457.007-42.261c1.671.012,3.038-1.532,3.059-4.378l.013-1.7.051-6.823-4.394-4.974,2.2-4.325-1.453-3.05,1.439-3.661-2.642-3.815,2.461-4.019-2.735-5.795,3.2-5.53-3.841-4.407L-460-46.684C-460.02-44-458.678-42.273-457.007-42.261Z" transform="translate(-177.541 -30.368)" fill="#f9eeb0"/>
      <path id="Path_830" data-name="Path 830" d="M-454.175-39.416c1.494.011,2.717-1.516,2.738-4.329l.064-8.564-4.076-4.633,2.2-4.325-1.453-3.05,1.439-3.661-2.642-3.815,2.461-4.019-2.735-5.795,3.2-5.53-3.523-4.043-.353,47.4C-456.868-41.136-455.669-39.427-454.175-39.416Z" transform="translate(-180.37 -33.561)" fill="url(#linear-gradient-7)"/>
    </g>
    <g id="Rectangle_440" data-name="Rectangle 440" transform="translate(419 352)" fill="#fff" stroke="#deae00" stroke-width="1">
      <rect width="45" height="19" rx="9.5" stroke="none"/>
      <rect x="0.5" y="0.5" width="44" height="18" rx="9" fill="none"/>
    </g>
    <path id="Path_831" data-name="Path 831" d="M3.228-1.428a2.7,2.7,0,0,0,.654-.066,1.206,1.206,0,0,0,.414-.18.6.6,0,0,0,.216-.27.963.963,0,0,0,.06-.348.8.8,0,0,0-.384-.678,5.487,5.487,0,0,0-1.32-.582q-.408-.144-.816-.33A3.008,3.008,0,0,1,1.32-4.35a2.239,2.239,0,0,1-.528-.684,2.142,2.142,0,0,1-.2-.978A2.422,2.422,0,0,1,.8-7.05a2.216,2.216,0,0,1,.612-.786,2.8,2.8,0,0,1,.96-.5,4.309,4.309,0,0,1,1.272-.174,5.18,5.18,0,0,1,1.452.18,5.188,5.188,0,0,1,1.008.4l-.54,1.476a5.114,5.114,0,0,0-.774-.318,3.352,3.352,0,0,0-1.026-.138,1.882,1.882,0,0,0-.966.186.628.628,0,0,0-.294.57.658.658,0,0,0,.108.384,1.05,1.05,0,0,0,.306.282,2.692,2.692,0,0,0,.456.228q.258.1.57.21.648.24,1.128.474a3.012,3.012,0,0,1,.8.546,1.978,1.978,0,0,1,.474.732A2.941,2.941,0,0,1,6.5-2.28,2.166,2.166,0,0,1,5.688-.474a3.938,3.938,0,0,1-2.46.642,6.816,6.816,0,0,1-1-.066A6.428,6.428,0,0,1,1.446-.06a4.508,4.508,0,0,1-.588-.2,4.465,4.465,0,0,1-.414-.2L.972-1.956a4.708,4.708,0,0,0,.918.366A4.761,4.761,0,0,0,3.228-1.428Zm6.984,0a2.7,2.7,0,0,0,.654-.066,1.206,1.206,0,0,0,.414-.18.6.6,0,0,0,.216-.27.963.963,0,0,0,.06-.348.8.8,0,0,0-.384-.678,5.487,5.487,0,0,0-1.32-.582q-.408-.144-.816-.33A3.008,3.008,0,0,1,8.3-4.35a2.239,2.239,0,0,1-.528-.684,2.142,2.142,0,0,1-.2-.978A2.422,2.422,0,0,1,7.788-7.05,2.216,2.216,0,0,1,8.4-7.836a2.8,2.8,0,0,1,.96-.5,4.309,4.309,0,0,1,1.272-.174,5.18,5.18,0,0,1,1.452.18,5.188,5.188,0,0,1,1.008.4l-.54,1.476a5.114,5.114,0,0,0-.774-.318,3.352,3.352,0,0,0-1.026-.138,1.882,1.882,0,0,0-.966.186.628.628,0,0,0-.294.57.658.658,0,0,0,.108.384,1.05,1.05,0,0,0,.306.282,2.692,2.692,0,0,0,.456.228q.258.1.57.21.648.24,1.128.474a3.012,3.012,0,0,1,.8.546,1.978,1.978,0,0,1,.474.732,2.941,2.941,0,0,1,.156,1.02,2.166,2.166,0,0,1-.816,1.806,3.938,3.938,0,0,1-2.46.642,6.816,6.816,0,0,1-1-.066A6.428,6.428,0,0,1,8.43-.06a4.508,4.508,0,0,1-.588-.2,4.465,4.465,0,0,1-.414-.2l.528-1.488a4.708,4.708,0,0,0,.918.366A4.761,4.761,0,0,0,10.212-1.428Zm9.732-6.888h1.872V0H19.944V-3.528H16.8V0H14.928V-8.316H16.8v3.18h3.144Z" transform="translate(430.555 366)"/>
  </g>
</svg>
