<svg xmlns="http://www.w3.org/2000/svg" width="26.382" height="35.499" viewBox="0 0 26.382 35.499">
  <g id="Group_36" data-name="Group 36" transform="translate(-593.532 -9705)">
    <path id="Path_69" data-name="Path 69" d="M616.111,9755.512H597.335a3.809,3.809,0,0,1-3.8-3.8v-16.9a3.808,3.808,0,0,1,3.8-3.8h18.775a3.807,3.807,0,0,1,3.8,3.8v16.9A3.808,3.808,0,0,1,616.111,9755.512Zm-18.775-21.977a1.27,1.27,0,0,0-1.268,1.268v16.9a1.27,1.27,0,0,0,1.268,1.269h18.775a1.27,1.27,0,0,0,1.268-1.269v-16.9a1.269,1.269,0,0,0-1.268-1.268Z" transform="translate(0 -15.012)" fill="#000000"/>
    <path id="Path_70" data-name="Path 70" d="M621.867,9717.256h-2.536V9712.3a5.355,5.355,0,0,0-10.645,0v4.957h-2.536V9712.3a7.88,7.88,0,0,1,15.716,0Z" transform="translate(-7.286)" fill="#000000"/>
    <g id="Group_35" data-name="Group 35" transform="translate(603.802 9725.322)">
      <path id="Path_71" data-name="Path 71" d="M623.676,9756.009a2.921,2.921,0,1,1-2.921-2.921A2.924,2.924,0,0,1,623.676,9756.009Z" transform="translate(-617.834 -9753.088)" fill="#000000"/>
    </g>
  </g>
</svg>
