<svg xmlns="http://www.w3.org/2000/svg" width="19.57" height="21.837" viewBox="0 0 19.57 21.837"><defs><style>.a{fill:#564d7b;}</style></defs><g transform="translate(-2121.911 -11433.392)"><path class="a" d="M2149.586,11506.783c-.389,0-.694.155-.592.593a2.8,2.8,0,0,0,5.459,0c.1-.437-.2-.593-.592-.593Z" transform="translate(-20.027 -54.312)"/><path class="a" d="M2155.851,11436.579a1.3,1.3,0,0,1-1.3-1.3v-.587a1.3,1.3,0,0,1,2.6,0v.587A1.3,1.3,0,0,1,2155.851,11436.579Z" transform="translate(-24.155)"/><path class="a" d="M2140.7,11496.715h-18.011a.78.78,0,0,1,0-1.561H2140.7a.78.78,0,0,1,0,1.561Z" transform="translate(0 -45.706)"/><path class="a" d="M2143.747,11455.859a.78.78,0,0,1-.78-.779v-7a6.576,6.576,0,0,0-13.152,0v7a.78.78,0,0,1-1.56,0v-7a8.136,8.136,0,0,1,16.272-.076h0v7.073A.78.78,0,0,1,2143.747,11455.859Z" transform="translate(-4.695 -4.851)"/></g></svg>