<svg xmlns="http://www.w3.org/2000/svg" width="18.444" height="18.444" viewBox="0 0 18.444 18.444"><defs><style>.a{fill:#ccc3f2;}</style></defs><g transform="translate(-2502.282 -489.09)"><path class="a" d="M2511.5,490.407a7.9,7.9,0,1,1-7.9,7.9,7.913,7.913,0,0,1,7.9-7.9m0-1.317a9.222,9.222,0,1,0,9.222,9.222,9.222,9.222,0,0,0-9.222-9.222Z"/><path class="a" d="M2541.913,520.434a.659.659,0,0,1-.659-.659v-7.026a.659.659,0,0,1,1.317,0v7.026A.659.659,0,0,1,2541.913,520.434Z" transform="translate(-30.415 -17.95)"/><path class="a" d="M2532.939,529.407h-7.026a.659.659,0,0,1,0-1.317h7.026a.659.659,0,0,1,0,1.317Z" transform="translate(-17.928 -30.437)"/></g></svg>