<svg xmlns="http://www.w3.org/2000/svg" width="18.443" height="16.501" viewBox="0 0 18.443 16.501"><defs><style>.a{fill:#ccc3f2;}</style></defs><g transform="translate(-2502.272 -1645.412)"><g transform="translate(2511.221 1650.13)"><path class="a" d="M2543.691,1671.952a.659.659,0,0,1-.659-.659v-3.733a.659.659,0,0,1,1.317,0v3.733A.659.659,0,0,1,2543.691,1671.952Z" transform="translate(-2543.032 -1666.902)"/><path class="a" d="M2546.122,1685.219h-2.431a.659.659,0,0,1,0-1.317h2.431a.659.659,0,0,1,0,1.317Z" transform="translate(-2543.032 -1680.169)"/></g><path class="a" d="M2519.366,1661.913a.659.659,0,0,1,0-1.317,6.933,6.933,0,1,0-6.933-6.933.659.659,0,0,1-1.317,0,8.251,8.251,0,1,1,8.251,8.251Z" transform="translate(-6.902)"/><path class="a" d="M2512.307,1665.047a.659.659,0,0,1-.612-.414,8.246,8.246,0,0,1,1.828-8.9.659.659,0,1,1,.931.932,6.93,6.93,0,0,0-1.536,7.48.659.659,0,0,1-.612.9Z" transform="translate(-6.893 -7.904)"/><g transform="translate(2502.272 1653.667)"><path class="a" d="M2514.248,1686.813a.659.659,0,0,1-.54-1.035l1.727-2.485a.659.659,0,1,1,1.082.752l-1.727,2.485A.657.657,0,0,1,2514.248,1686.813Z" transform="translate(-2511.105 -1683.011)"/><path class="a" d="M2505.415,1689.506a.655.655,0,0,1-.375-.118l-2.485-1.727a.659.659,0,1,1,.752-1.082l2.485,1.727a.659.659,0,0,1-.376,1.2Z" transform="translate(-2502.272 -1685.704)"/></g></g></svg>