<svg xmlns="http://www.w3.org/2000/svg" width="14.963" height="15.468" viewBox="0 0 14.963 15.468"><defs><style>.a{fill:#ffffff;}</style></defs><g transform="translate(-775.426 -1449)"><path class="a" d="M801.505,1461.787a6.394,6.394,0,1,0-6.468-6.393A6.438,6.438,0,0,0,801.505,1461.787Zm0-11.549a5.156,5.156,0,1,1-5.216,5.156A5.192,5.192,0,0,1,801.505,1450.237Z" transform="translate(-19.612)"/><path class="a" d="M780.063,1503.371a.627.627,0,0,0,.443-.182.614.614,0,0,0,0-.875l-4.011-4.123a.631.631,0,0,0-.885,0,.614.614,0,0,0,0,.875l4.011,4.123A.627.627,0,0,0,780.063,1503.371Z" transform="translate(9.7 -38.902)"/></g></svg>