<svg xmlns="http://www.w3.org/2000/svg" width="18.443" height="19.587" viewBox="0 0 18.443 19.587"><defs><style>.a{fill:#ccc3f2;}</style></defs><g transform="translate(-1160.845 -9705.181)"><path class="a" d="M1171.006,9724.768h-1.893a2,2,0,0,1-1.995-2v-.691a.588.588,0,0,0-.316-.525,7.31,7.31,0,0,1-.8-.466.585.585,0,0,0-.615-.014l-.632.365a2,2,0,0,1-2.116-.1,1.878,1.878,0,0,1-.557-.62l-.965-1.674a2,2,0,0,1,.73-2.726l.6-.347a.6.6,0,0,0,.3-.562c-.01-.16-.01-.722,0-.882a.6.6,0,0,0-.295-.562l-.6-.346a2.025,2.025,0,0,1-.786-2.622c.012-.023.021-.041,1.023-1.779a1.971,1.971,0,0,1,1.88-.975,1.854,1.854,0,0,1,.791.258l.633.365a.585.585,0,0,0,.615-.014,7.309,7.309,0,0,1,.8-.466.587.587,0,0,0,.317-.525v-.691a2,2,0,0,1,1.995-2h1.893a2,2,0,0,1,1.995,2v.691a.588.588,0,0,0,.316.525,7.284,7.284,0,0,1,.8.466.585.585,0,0,0,.614.014l.6-.346a1.993,1.993,0,0,1,2.725.73l.966,1.675a1.979,1.979,0,0,1-.093,2.111,1.876,1.876,0,0,1-.621.562l-.633.366a.6.6,0,0,0-.3.563c.01.161.01.721,0,.882a.6.6,0,0,0,.3.563l.633.366a1.878,1.878,0,0,1,.619.559,1.976,1.976,0,0,1,.1,2.114l-.985,1.708a1.957,1.957,0,0,1-2.673.717l-.632-.365a.583.583,0,0,0-.615.015,7.462,7.462,0,0,1-.8.465.587.587,0,0,0-.317.525v.691A2,2,0,0,1,1171.006,9724.768Zm-5.325-5.169a1.968,1.968,0,0,1,1.093.327,5.765,5.765,0,0,0,.651.377,2,2,0,0,1,1.093,1.778v.691a.6.6,0,0,0,.6.6h1.893a.6.6,0,0,0,.6-.6v-.691a2,2,0,0,1,1.093-1.778,5.842,5.842,0,0,0,.651-.377,2,2,0,0,1,2.091-.061l.632.365a.569.569,0,0,0,.761-.205l.985-1.708a.573.573,0,0,0-.04-.627.5.5,0,0,0-.162-.135h0l-.633-.365a1.994,1.994,0,0,1-.991-1.861c.006-.1.006-.607,0-.71a1.991,1.991,0,0,1,.991-1.86l.633-.366a.516.516,0,0,0,.163-.135.574.574,0,0,0,.039-.627l-.966-1.675a.592.592,0,0,0-.362-.277.585.585,0,0,0-.452.06l-.6.345a2,2,0,0,1-2.091-.061,5.833,5.833,0,0,0-.651-.377,2,2,0,0,1-1.092-1.778v-.691a.6.6,0,0,0-.6-.6h-1.893a.6.6,0,0,0-.6.6v.691a2,2,0,0,1-1.093,1.778,5.834,5.834,0,0,0-.651.377,2,2,0,0,1-2.091.061l-.633-.365a.482.482,0,0,0-.2-.073.569.569,0,0,0-.561.277s-.887,1.539-.989,1.719a.623.623,0,0,0,.241.772l.6.346a1.992,1.992,0,0,1,.991,1.86c-.006.1-.006.607,0,.71a2,2,0,0,1-.991,1.861l-.6.345a.6.6,0,0,0-.218.816l.965,1.674a.514.514,0,0,0,.137.164.575.575,0,0,0,.624.041l.632-.365A1.988,1.988,0,0,1,1165.681,9719.6Z" transform="translate(0)"/><path class="a" d="M1186.973,9737.842a4.08,4.08,0,1,1,4.081-4.081A4.085,4.085,0,0,1,1186.973,9737.842Zm0-6.762a2.682,2.682,0,1,0,2.682,2.681A2.684,2.684,0,0,0,1186.973,9731.08Z" transform="translate(-16.906 -18.788)"/></g></svg>