<svg xmlns="http://www.w3.org/2000/svg" width="13.547" height="15.84" viewBox="0 0 13.547 15.84"><defs><style>.a{fill:#9890b7;}</style></defs><g transform="translate(-968.244 -2227.16)"><path class="a" d="M987.051,2228.447a2.2,2.2,0,1,1-2.2,2.2,2.2,2.2,0,0,1,2.2-2.2m0-1.287a3.488,3.488,0,1,0,3.487,3.488,3.492,3.492,0,0,0-3.487-3.488Z" transform="translate(-12.033)"/><path class="a" d="M975.018,2264.549a5.493,5.493,0,0,1,5.487,5.487.035.035,0,0,1-.035.034h-10.9a.035.035,0,0,1-.035-.034,5.493,5.493,0,0,1,5.487-5.487m0-1.287a6.781,6.781,0,0,0-6.774,6.774,1.322,1.322,0,0,0,1.322,1.322h10.9a1.322,1.322,0,0,0,1.322-1.322,6.781,6.781,0,0,0-6.774-6.774Z" transform="translate(0 -28.357)"/></g></svg>