<svg xmlns="http://www.w3.org/2000/svg" width="18.443" height="18.457" viewBox="0 0 18.443 18.457"><defs><style>.a{fill:#ccc3f2;}</style></defs><g transform="translate(-1158.549 -2601.09)"><path class="a" d="M1212.241,2616.947a5.861,5.861,0,0,0-3.837-3.713l.383-1.261a7.183,7.183,0,0,1,4.7,4.55Z" transform="translate(-38.901 -8.492)"/><path class="a" d="M1170.9,2617.22l-1.253-.411a7.2,7.2,0,0,1,4.54-4.565l.418,1.25A5.874,5.874,0,0,0,1170.9,2617.22Z" transform="translate(-8.658 -8.703)"/><path class="a" d="M1174,2655.914a7.167,7.167,0,0,1-4.633-4.773l1.264-.374a5.85,5.85,0,0,0,3.781,3.895Z" transform="translate(-8.44 -38.762)"/><path class="a" d="M1209.4,2656.51l-.412-1.252a5.873,5.873,0,0,0,3.727-3.726l1.252.412A7.2,7.2,0,0,1,1209.4,2656.51Z" transform="translate(-39.354 -39.359)"/><path class="a" d="M1190.995,2665.774a2.72,2.72,0,1,1,2.72-2.72A2.722,2.722,0,0,1,1190.995,2665.774Zm0-4.121a1.4,1.4,0,1,0,1.4,1.4A1.4,1.4,0,0,0,1190.995,2661.653Z" transform="translate(-23.195 -46.228)"/><path class="a" d="M1190.995,2606.529a2.72,2.72,0,1,1,2.72-2.72A2.723,2.723,0,0,1,1190.995,2606.529Zm0-4.121a1.4,1.4,0,1,0,1.4,1.4A1.4,1.4,0,0,0,1190.995,2602.408Z" transform="translate(-23.195)"/><path class="a" d="M1220.453,2636.255a2.72,2.72,0,1,1,2.72-2.72A2.723,2.723,0,0,1,1220.453,2636.255Zm0-4.121a1.4,1.4,0,1,0,1.4,1.4A1.4,1.4,0,0,0,1220.453,2632.134Z" transform="translate(-46.18 -23.194)"/><path class="a" d="M1161.269,2636.255a2.72,2.72,0,1,1,2.72-2.72A2.723,2.723,0,0,1,1161.269,2636.255Zm0-4.121a1.4,1.4,0,1,0,1.4,1.4A1.4,1.4,0,0,0,1161.269,2632.134Z" transform="translate(0 -23.194)"/></g></svg>