<svg xmlns="http://www.w3.org/2000/svg" width="1403.673" height="99.633" viewBox="0 0 1403.673 99.633"><defs><style>.a{fill:#e5e4ea;}</style></defs><path class="a" d="M171.4,0H1232.276a105.074,105.074,0,0,1,15.749,1.287,134.721,134.721,0,0,1,16.256,3.551,116.693,116.693,0,0,1,15.1,5.38A64.851,64.851,0,0,1,1291.494,17l79.733,58.736c4.3,3.168,7.238,6.223,8.848,9.036,1.629,2.844,1.9,5.433.842,7.628-1.062,2.214-3.465,4.02-7.151,5.275a47.283,47.283,0,0,1-14.869,1.962H44.774a47.285,47.285,0,0,1-14.869-1.962c-3.686-1.255-6.088-3.061-7.151-5.275-1.054-2.195-.787-4.784.842-7.628,1.61-2.812,4.548-5.868,8.849-9.036L112.178,17a64.853,64.853,0,0,1,12.111-6.778,116.686,116.686,0,0,1,15.1-5.38,134.716,134.716,0,0,1,16.256-3.551A105.074,105.074,0,0,1,171.4,0Z"/></svg>