<svg xmlns="http://www.w3.org/2000/svg" xmlns:xlink="http://www.w3.org/1999/xlink" width="55.44" height="55.44" viewBox="0 0 55.44 55.44"><defs><clipPath id="a"><rect width="55.44" height="55.44" transform="translate(1345 -159)" fill="#fff"/></clipPath></defs><g transform="translate(-1345 159)" clip-path="url(#a)"><g transform="translate(-200.371 -7752.889)"><path d="M1595.98,7610.56a2.8,2.8,0,0,1-2.794-2.794l.02-11.659,3.961.019-.021,10.474,9.487-.02.012,3.96Z" transform="translate(-14.185 -1.007)" fill="#564d7b"/><g transform="translate(1551.45 7593.142)"><path d="M1588.74,7648.58h-31.6a5.7,5.7,0,0,1-5.694-5.692v-44.021a5.7,5.7,0,0,1,5.691-5.693l24.949-.028h.009a2.644,2.644,0,0,1,1.913.827l9.7,10.279a2.633,2.633,0,0,1,.72,1.813v36.825A5.7,5.7,0,0,1,1588.74,7648.58Zm-31.6-51.446a1.734,1.734,0,0,0-1.733,1.732v44.021a1.735,1.735,0,0,0,1.733,1.732h31.6a1.735,1.735,0,0,0,1.733-1.732v-36.3l-8.95-9.481Zm24.949-.029Z" transform="translate(-1551.45 -7593.142)" fill="#564d7b"/></g></g></g></svg>