<svg xmlns="http://www.w3.org/2000/svg" xmlns:xlink="http://www.w3.org/1999/xlink" width="466" height="267.003" viewBox="0 0 466 267.003">
  <defs>
    <linearGradient id="linear-gradient" x1="0.5" x2="0.5" y2="1" gradientUnits="objectBoundingBox">
      <stop offset="0" stop-color="#fff"/>
      <stop offset="1" stop-color="#e0def4"/>
    </linearGradient>
  </defs>
  <g id="Union_9" data-name="Union 9" transform="translate(-20585 -11861.999)" fill="url(#linear-gradient)">
    <path d="M 21036.001953125 12128.501953125 L 20599.998046875 12128.501953125 C 20596.125 12128.501953125 20592.484375 12126.9931640625 20589.74609375 12124.2529296875 C 20587.0078125 12121.513671875 20585.5 12117.87109375 20585.5 12113.998046875 L 20585.5 11904 L 20585.5 11876.998046875 C 20585.5 11873.125 20587.0078125 11869.484375 20589.74609375 11866.7451171875 C 20592.484375 11864.0068359375 20596.125 11862.4990234375 20599.998046875 11862.4990234375 L 20740 11862.4990234375 C 20743.873046875 11862.4990234375 20747.513671875 11864.0068359375 20750.251953125 11866.7451171875 C 20752.990234375 11869.484375 20754.498046875 11873.125 20754.498046875 11876.998046875 L 20754.498046875 11879.9990234375 L 20754.498046875 11880.4990234375 L 20754.998046875 11880.4990234375 L 21036.001953125 11880.4990234375 C 21039.875 11880.4990234375 21043.515625 11882.0068359375 21046.25390625 11884.7451171875 C 21048.9921875 11887.484375 21050.5 11891.125 21050.5 11894.998046875 L 21050.5 12113.998046875 C 21050.5 12117.87109375 21048.9921875 12121.513671875 21046.25390625 12124.2529296875 C 21043.515625 12126.9931640625 21039.875 12128.501953125 21036.001953125 12128.501953125 Z" stroke="none"/>
    <path d="M 21036.001953125 12128.001953125 C 21039.740234375 12128.001953125 21043.255859375 12126.544921875 21045.900390625 12123.8994140625 C 21048.54296875 12121.25390625 21050 12117.73828125 21050 12113.998046875 L 21050 11894.998046875 C 21050 11891.2587890625 21048.54296875 11887.7431640625 21045.900390625 11885.0986328125 C 21043.255859375 11882.455078125 21039.740234375 11880.9990234375 21036.001953125 11880.9990234375 L 20753.998046875 11880.9990234375 L 20753.998046875 11876.998046875 C 20753.998046875 11873.2587890625 20752.54296875 11869.7431640625 20749.8984375 11867.0986328125 C 20747.25390625 11864.455078125 20743.73828125 11862.9990234375 20740 11862.9990234375 L 20599.998046875 11862.9990234375 C 20596.259765625 11862.9990234375 20592.744140625 11864.455078125 20590.099609375 11867.0986328125 C 20587.45703125 11869.7431640625 20586 11873.2587890625 20586 11876.998046875 L 20586 12113.998046875 C 20586 12117.73828125 20587.45703125 12121.25390625 20590.099609375 12123.8994140625 C 20592.744140625 12126.544921875 20596.259765625 12128.001953125 20599.998046875 12128.001953125 L 21036.001953125 12128.001953125 M 21036.001953125 12129.001953125 L 20599.998046875 12129.001953125 C 20591.71484375 12129.001953125 20585 12122.2822265625 20585 12113.998046875 L 20585 11876.998046875 C 20585 11868.7138671875 20591.71484375 11861.9990234375 20599.998046875 11861.9990234375 L 20740 11861.9990234375 C 20748.283203125 11861.9990234375 20754.998046875 11868.7138671875 20754.998046875 11876.998046875 L 20754.998046875 11879.9990234375 L 21036.001953125 11879.9990234375 C 21044.28515625 11879.9990234375 21051 11886.7138671875 21051 11894.998046875 L 21051 12113.998046875 C 21051 12122.2822265625 21044.28515625 12129.001953125 21036.001953125 12129.001953125 Z" stroke="none" fill="#d9d8e6"/>
  </g>
</svg>
