<svg xmlns="http://www.w3.org/2000/svg" width="795.539" height="489" viewBox="0 0 795.539 489"><defs><style>.a{fill:#fff;}.b{fill:#e0e0e0;}.c,.k{opacity:0.3;}.d{fill:#ebebeb;}.e{fill:#f5f5f5;}.f{fill:#455a64;}.g{fill:#263238;}.h{fill:#ff725e;}.i{fill:#fafafa;}.j{fill:#b4a6f0;}.l{fill:#ffbe9d;}.m{fill:#eb996e;}</style></defs><g transform="translate(-23.823 -29.835)"><g transform="translate(23.823 29.835)"><g transform="translate(0 56.105)"><g transform="translate(0.309 0.309)"><rect class="a" width="172.665" height="115.61"/></g><path class="b" d="M196.8,195.241s-.018-.723-.027-2.1-.016-3.432-.027-6.1c-.015-5.351-.036-13.2-.063-23.252-.031-20.085-.075-48.957-.129-84.155l.247.247-172.651.062h-.014l.31-.31c-.009,41.186-.018,80.351-.026,115.609l-.283-.283,124.393.139,35.539.076,9.453.034,2.441.017c.55.006.838.017.838.017s-.266.011-.8.017l-2.409.016-9.4.035-35.475.076-124.579.139h-.283v-.283c-.008-35.258-.017-74.423-.026-115.609v-.31h.323l172.651.061h.247v.247c-.054,35.263-.1,64.186-.13,84.309-.027,10.027-.048,17.857-.062,23.2-.012,2.647-.022,4.674-.028,6.053S196.8,195.241,196.8,195.241Z" transform="translate(-23.823 -79.322)"/><g transform="translate(0.31 10.317)"><path class="b" d="M24.1,88.732c0-.171,38.623-.31,86.257-.31,47.65,0,86.265.138,86.265.31s-38.615.31-86.265.31C62.719,89.041,24.1,88.9,24.1,88.732Z" transform="translate(-24.096 -88.422)"/></g><g transform="translate(4.354 4.037)"><g class="c"><path class="b" d="M30.43,84.267a1.384,1.384,0,1,1-1.383-1.384A1.383,1.383,0,0,1,30.43,84.267Z" transform="translate(-27.663 -82.883)"/></g><g class="c" transform="translate(4.742)"><path class="b" d="M34.613,84.267a1.384,1.384,0,1,1-1.384-1.384A1.384,1.384,0,0,1,34.613,84.267Z" transform="translate(-31.846 -82.883)"/></g><g class="c" transform="translate(9.416)"><path class="b" d="M38.735,84.267a1.384,1.384,0,1,1-1.383-1.384A1.383,1.383,0,0,1,38.735,84.267Z" transform="translate(-35.968 -82.883)"/></g></g><g transform="translate(15.154 22.682)"><rect class="b" width="46.058" height="46.058"/></g><g transform="translate(69.058 35.392)"><g transform="translate(0)"><path class="b" d="M164.973,110.849c0,.17-17.964.31-40.117.31s-40.121-.139-40.121-.31,17.959-.31,40.121-.31S164.973,110.677,164.973,110.849Z" transform="translate(-84.735 -110.539)"/></g></g><g transform="translate(69.058 43.95)"><g transform="translate(0)"><path class="b" d="M164.973,118.4c0,.171-17.964.31-40.117.31s-40.121-.138-40.121-.31,17.959-.31,40.121-.31S164.973,118.226,164.973,118.4Z" transform="translate(-84.735 -118.088)"/></g></g><g transform="translate(69.058 52.509)"><g transform="translate(0)"><path class="b" d="M164.973,125.947c0,.171-17.964.31-40.117.31s-40.121-.138-40.121-.31,17.959-.31,40.121-.31S164.973,125.775,164.973,125.947Z" transform="translate(-84.735 -125.637)"/></g></g><g transform="translate(69.058 61.069)"><g transform="translate(0)"><path class="b" d="M132.157,133.5a10.73,10.73,0,0,1-1.864.121l-5.081.1c-4.291.056-10.218.091-16.765.091s-12.477-.035-16.768-.091l-5.081-.1a10.707,10.707,0,0,1-1.863-.121,10.943,10.943,0,0,1,1.863-.12l5.081-.1c4.291-.057,10.218-.091,16.768-.091s12.473.034,16.765.091l5.081.1A10.967,10.967,0,0,1,132.157,133.5Z" transform="translate(-84.735 -133.187)"/></g></g><g transform="translate(18.035 84.269)"><rect class="b" width="21.645" height="21.645"/></g><g transform="translate(57.29 84.269)"><g transform="translate(0)"><rect class="b" width="21.645" height="21.645"/></g></g><g transform="translate(96.544 84.269)"><rect class="b" width="21.645" height="21.645"/></g><g transform="translate(135.798 84.269)"><rect class="b" width="21.645" height="21.645"/></g></g><g transform="translate(198.217)"><g transform="translate(0.236 0.235)"><rect class="a" width="148.734" height="60.414"/></g><path class="b" d="M347.628,90.484s-.011-.372-.017-1.079-.01-1.763-.017-3.135c-.01-2.756-.024-6.806-.042-12.022-.02-10.427-.051-25.51-.09-44.177l.166.166-148.723.07h-.01l.236-.236c0,21.156-.007,41.577-.01,60.413l-.226-.226,106.639.107,30.935.062,8.28.028,2.144.014c.483.006.736.015.736.015s-.235.009-.709.014l-2.117.015-8.232.028-30.884.062-106.792.107h-.226v-.226c0-18.836-.007-39.258-.01-60.413v-.236h.246l148.723.07h.167v.166c-.037,18.709-.068,33.826-.09,44.277-.017,5.2-.032,9.238-.041,11.986-.008,1.358-.014,2.4-.018,3.1S347.628,90.484,347.628,90.484Z" transform="translate(-198.658 -29.835)"/><g transform="translate(0.384 8.147)"><path class="b" d="M199,37.257c0-.13,33.246-.236,74.246-.236s74.252.105,74.252.236-33.238.236-74.252.236S199,37.387,199,37.257Z" transform="translate(-198.997 -37.021)"/></g><g transform="translate(4.452 3.659)"><g class="c" transform="translate(0 0)"><path class="d" d="M204.744,34.142a1.079,1.079,0,1,1-1.079-1.079A1.079,1.079,0,0,1,204.744,34.142Z" transform="translate(-202.585 -33.063)"/></g><g class="c" transform="translate(3.698 0)"><path class="d" d="M208.007,34.142a1.08,1.08,0,1,1-1.079-1.079A1.08,1.08,0,0,1,208.007,34.142Z" transform="translate(-205.847 -33.063)"/></g><g class="c" transform="translate(7.344)"><circle class="d" cx="1.079" cy="1.079" r="1.079"/></g></g><g transform="translate(12.876 18.202)"><rect class="b" width="35.925" height="35.925"/></g><g transform="translate(56.103 27.594)"><path class="b" d="M330.719,54.41c0,.129-18.487.235-41.286.235s-41.29-.105-41.29-.235,18.483-.236,41.29-.236S330.719,54.279,330.719,54.41Z" transform="translate(-248.143 -54.174)"/><g transform="translate(0 7.318)"><path class="b" d="M330.719,60.865c0,.13-18.487.236-41.286.236s-41.29-.105-41.29-.236,18.483-.236,41.29-.236S330.719,60.734,330.719,60.865Z" transform="translate(-248.143 -60.629)"/></g><g transform="translate(0 14.638)"><path class="b" d="M301.3,67.32a2.246,2.246,0,0,1-.54.048l-1.549.044-5.7.075-18.793.069-18.8-.069-5.7-.075-1.549-.044a2.246,2.246,0,0,1-.54-.048,2.408,2.408,0,0,1,.54-.048l1.549-.044,5.7-.074,18.8-.069,18.793.069,5.7.074,1.549.044A2.408,2.408,0,0,1,301.3,67.32Z" transform="translate(-248.143 -67.085)"/></g></g></g><g transform="translate(695.057 35.09)"><g transform="translate(53.43 23.616)"><path class="b" d="M684.02,103.771a5.466,5.466,0,0,1,.842-.957l2.444-2.457c2.082-2.055,4.983-4.867,8.212-7.947l.074-.069,0,.415c-3.254-3.023-6.174-5.778-8.268-7.792l-2.459-2.407a5.352,5.352,0,0,1-.848-.939,5.5,5.5,0,0,1,1,.777l2.581,2.274c2.163,1.939,5.127,4.647,8.381,7.669l.222.206-.219.21-.074.07c-3.229,3.079-6.174,5.844-8.326,7.826q-1.522,1.376-2.569,2.325A5.472,5.472,0,0,1,684.02,103.771Z" transform="translate(-684.018 -81.616)"/></g><g transform="translate(16.138 23.616)"><path class="b" d="M663.307,81.618a5.474,5.474,0,0,1-.842.957l-2.444,2.457c-2.081,2.055-4.983,4.867-8.212,7.947l-.074.069,0-.415c3.254,3.023,6.174,5.778,8.268,7.792l2.459,2.407a5.361,5.361,0,0,1,.848.939,5.5,5.5,0,0,1-1-.777l-2.581-2.274c-2.163-1.939-5.127-4.647-8.381-7.669l-.222-.206.219-.21.074-.07c3.229-3.079,6.174-5.844,8.326-7.826l2.569-2.324A5.5,5.5,0,0,1,663.307,81.618Z" transform="translate(-651.125 -81.616)"/></g><g transform="translate(34.76 18.093)"><path class="b" d="M667.557,109.64c-.147-.054,2.488-7.465,5.886-16.547s6.271-16.4,6.418-16.348-2.489,7.463-5.887,16.549S667.7,109.7,667.557,109.64Z" transform="translate(-667.551 -76.745)"/></g><path class="b" d="M718.859,127.629s-.017-.431-.026-1.239c-.006-.825-.015-2.016-.026-3.564-.015-3.13-.035-7.689-.061-13.5-.029-11.622-.072-28.23-.123-48.255l.236.237-81.678.048h-.007l.283-.285c-.01,24.061-.021,46.782-.029,66.558l-.254-.255,58.984.128,16.718.067,4.437.031c.494.006.873.01,1.147.015s.4.015.4.015-.119.009-.368.014c-.269,0-.638.009-1.119.015l-4.389.031-16.661.068-59.147.127h-.253v-.254c-.009-19.776-.019-42.5-.031-66.558v-.285h.29l81.678.048h.237v.237c-.051,20.088-.093,36.747-.122,48.4-.026,5.787-.047,10.328-.061,13.445-.011,1.529-.02,2.705-.027,3.519C718.877,127.233,718.859,127.629,718.859,127.629Z" transform="translate(-636.891 -60.786)"/><g transform="translate(0.247 9.875)"><path class="b" d="M719.47,69.782c0,.156-18.439.285-41.178.285s-41.183-.128-41.183-.285,18.435-.286,41.183-.286S719.47,69.624,719.47,69.782Z" transform="translate(-637.109 -69.496)"/></g><g transform="translate(4.75 4.199)"><path class="b" d="M643.281,65.593a1.1,1.1,0,1,1-1.1-1.1A1.1,1.1,0,0,1,643.281,65.593Z" transform="translate(-641.081 -64.49)"/><g transform="translate(4.009)"><path class="b" d="M646.816,65.593a1.1,1.1,0,1,1-1.1-1.1A1.1,1.1,0,0,1,646.816,65.593Z" transform="translate(-644.617 -64.49)"/></g><g transform="translate(8.018)"><path class="b" d="M650.352,65.593a1.1,1.1,0,1,1-1.1-1.1A1.1,1.1,0,0,1,650.352,65.593Z" transform="translate(-648.153 -64.49)"/></g></g></g><g transform="translate(706.225 330.926)"><g transform="translate(46.32 61.365)"><path class="d" d="M693.258,378.174c4.721-2.435,10.278-2.752,15.519-1.885,2.815.465,5.75,1.307,7.666,3.423s2.278,5.835.078,7.653a7.337,7.337,0,0,1-4.833,1.226c-4.1-.048-8.654-.77-11.931,1.7-1.87,1.408-3.114,3.749-5.35,4.442a5.285,5.285,0,0,1-5.815-2.587,9.036,9.036,0,0,1-.658-6.665A10.178,10.178,0,0,1,693.258,378.174Z" transform="translate(-687.598 -375.851)"/></g><g transform="translate(38.441)"><path class="d" d="M683.373,364.537c2.887,4.122,8.5,2.757,11.1.242s3.7-6.163,4.7-9.641c2.287-7.945,4.592-16.28,2.892-24.372a13.546,13.546,0,0,0-3.113-6.627,7.075,7.075,0,0,0-6.7-2.231c-2.829.747-4.586,3.518-5.857,6.153a58.11,58.11,0,0,0-5.741,24.933c-.014,4.016.459,8.228,2.726,11.544" transform="translate(-680.648 -321.725)"/></g><g transform="translate(0 13.264)"><path class="d" d="M679.982,368.887c3.134-3.719,3.728-9.144,2.334-13.8s-4.545-8.623-8.176-11.859a44,44,0,0,0-14.639-8.638,15.6,15.6,0,0,0-6.585-1.119,6.91,6.91,0,0,0-5.525,3.343c-1.541,2.939-.064,6.5,1.534,9.41a111.448,111.448,0,0,0,9.615,14.642c2.882,3.716,6.183,7.382,10.577,9.061s8.954,1.482,11.283-1.565" transform="translate(-646.742 -333.424)"/></g><g transform="translate(40.918 67.089)"><path class="b" d="M682.885,418.808a9,9,0,0,0,.262-1.873c.133-1.364.3-3.076.5-5.113a73.788,73.788,0,0,1,1.149-7.5,57.828,57.828,0,0,1,2.726-8.85,32.584,32.584,0,0,1,4.519-8.008,16.87,16.87,0,0,1,5.713-4.75,15.971,15.971,0,0,1,4.812-1.5,9.059,9.059,0,0,0,1.865-.27,8.761,8.761,0,0,0-1.9-.03,14.562,14.562,0,0,0-5.017,1.3,16.845,16.845,0,0,0-6.027,4.791,31.865,31.865,0,0,0-4.685,8.169,54.169,54.169,0,0,0-2.705,9,63.319,63.319,0,0,0-1,7.593c-.162,2.171-.223,3.928-.253,5.144A8.872,8.872,0,0,0,682.885,418.808Z" transform="translate(-682.833 -380.9)"/></g><g transform="translate(40.918 16.563)"><path class="b" d="M683.238,420.834a3.684,3.684,0,0,0,.051-.87c0-.653,0-1.475-.007-2.485-.007-2.156-.006-5.279.11-9.132.192-7.709.855-16.006,2.137-27.7,1.214-11,2.843-23.8,4.563-32.121.368-1.892.74-3.6,1.089-5.087.333-1.5.618-2.784.893-3.826.236-.982.427-1.781.581-2.416a.437.437,0,1,0-.15-.043c-.19.626-.429,1.414-.722,2.382-.32,1.033-.648,2.314-1.023,3.8-.39,1.485-.8,3.185-1.2,5.075a282.342,282.342,0,0,0-4.8,29.8c-1.285,11.722-1.864,22.393-1.915,30.122-.045,3.865.036,6.993.135,9.152.062,1.009.112,1.831.152,2.484A3.706,3.706,0,0,0,683.238,420.834Z" transform="translate(-682.833 -336.334)"/></g><g transform="translate(13.839 22.857)"><path class="b" d="M686.484,399.507a16.606,16.606,0,0,0-.018-2.6c-.1-1.669-.325-4.08-.8-7.035a92.547,92.547,0,0,0-2.288-10.249A83.774,83.774,0,0,0,679.1,367.5a64.592,64.592,0,0,0-12.585-19.6,31.857,31.857,0,0,0-2.961-2.753c-.453-.384-.855-.766-1.264-1.07l-1.148-.791a16.793,16.793,0,0,0-2.186-1.4c-.125.169,3.1,2.065,7.164,6.392a68.05,68.05,0,0,1,12.272,19.527,95.688,95.688,0,0,1,4.31,12.015,104.155,104.155,0,0,1,2.434,10.147c.536,2.924.847,5.312,1.034,6.964A16.653,16.653,0,0,0,686.484,399.507Z" transform="translate(-658.948 -341.886)"/></g><g transform="translate(21.478 116.789)"><path class="b" d="M665.686,424.738,667.749,453h36.3l2.063-28.258Z" transform="translate(-665.686 -424.738)"/></g><g transform="translate(17.972 105.651)"><rect class="b" width="48.266" height="11.138"/></g><g transform="translate(17.972 143.966)"><path class="d" d="M662.594,448.709V451.8h47.468v-3.087Z" transform="translate(-662.594 -448.709)"/></g><g transform="translate(20.24 147.054)"><path class="b" d="M666.817,456.866l-2.223-5.434h43.471l-2.593,5.434Z" transform="translate(-664.594 -451.432)"/></g><g transform="translate(22.09 122.055)"><path class="e" d="M705.368,433.352a1.227,1.227,0,0,1-.169.26l-.543.719c-.515.66-1.223,1.567-2.114,2.706l-.094.12-.091-.125-5.2-7.187h.3l-5.115,7.243-.161.227L692,437.1c-1.888-2.246-3.937-4.686-6.067-7.217l.35,0-.334.419-5.424,6.8-.181.227-.167-.236-5.118-7.242.3.015-6.3,7.181-.112.127-.085-.143-1.974-3.316-.506-.882a1.42,1.42,0,0,1-.155-.315,1.394,1.394,0,0,1,.212.28l.56.849,2.071,3.255-.2-.016c1.616-1.893,3.721-4.359,6.2-7.268l.156-.184.141.2c1.57,2.19,3.306,4.614,5.164,7.208l-.348-.01,5.412-6.81c.113-.144.228-.287.333-.419l.172-.217.177.212,6.051,7.232-.34.014c1.867-2.6,3.605-5.029,5.166-7.206l.151-.212.149.212,5.086,7.264-.185-.006,2.2-2.638.59-.681C705.287,433.42,705.36,433.346,705.368,433.352Z" transform="translate(-666.226 -429.382)"/></g><g transform="translate(21.781 116.377)"><path class="e" d="M706.584,424.6c0,.125-9.1.227-20.314.227s-20.316-.1-20.316-.227,9.095-.226,20.316-.226S706.584,424.475,706.584,424.6Z" transform="translate(-665.953 -424.374)"/></g><g transform="translate(20.088 147.132)"><path class="e" d="M708.618,451.728c0,.125-9.886.226-22.078.226s-22.079-.1-22.079-.226,9.884-.227,22.079-.227S708.618,451.6,708.618,451.728Z" transform="translate(-664.46 -451.501)"/></g></g></g><g transform="translate(86.857 114.026)"><g transform="translate(24.909)"><path class="f" d="M7.751,0H588.9a6.74,6.74,0,0,1,6.74,6.74V379.323a14.567,14.567,0,0,1-14.567,14.567H14.567A14.567,14.567,0,0,1,0,379.323V7.751A7.751,7.751,0,0,1,7.751,0Z"/></g><g transform="translate(0 364.759)"><path class="f" d="M0,0H645.33a0,0,0,0,1,0,0V20.743a13.721,13.721,0,0,1-13.721,13.721H13.721A13.721,13.721,0,0,1,0,20.743V0A0,0,0,0,1,0,0Z"/></g><g transform="translate(40.897 15.65)"><rect class="b" width="561.996" height="332.633"/></g><g transform="translate(264.011 364.759)"><path class="g" d="M312.289,425.826l8.008,12.737H432.979l7.436-12.737Z" transform="translate(-312.289 -425.826)"/></g><g transform="translate(57.572 34.921)"><rect class="g" width="530.003" height="313.362"/><g transform="translate(40.167 6.052)"><path class="b" d="M166.128,438.349c-.274,0-.5-66.741-.5-149.05,0-82.338.222-149.064.5-149.064s.5,66.726.5,149.064C166.625,371.608,166.4,438.349,166.128,438.349Z" transform="translate(-165.631 -140.235)"/></g><g transform="translate(12.754 32.577)"><path class="b" d="M158.67,164.128c0,.275-3.855.5-8.608.5s-8.61-.222-8.61-.5,3.854-.5,8.61-.5S158.67,163.853,158.67,164.128Z" transform="translate(-141.452 -163.631)"/></g><g transform="translate(13.416 15.662)"><path class="b" d="M159.255,149.208c0,.274-3.855.5-8.608.5s-8.611-.223-8.611-.5,3.855-.5,8.611-.5S159.255,148.933,159.255,149.208Z" transform="translate(-142.036 -148.711)"/></g><g transform="translate(12.754 50.81)"><path class="b" d="M158.67,180.211c0,.274-3.855.5-8.608.5s-8.61-.222-8.61-.5,3.854-.5,8.61-.5S158.67,179.935,158.67,180.211Z" transform="translate(-141.452 -179.713)"/></g><g transform="translate(12.754 69.044)"><path class="b" d="M158.67,196.293c0,.274-3.855.5-8.608.5s-8.61-.223-8.61-.5,3.854-.5,8.61-.5S158.67,196.018,158.67,196.293Z" transform="translate(-141.452 -195.796)"/></g><g transform="translate(12.754 87.277)"><path class="b" d="M158.67,212.375c0,.275-3.855.5-8.608.5s-8.61-.222-8.61-.5,3.854-.5,8.61-.5S158.67,212.1,158.67,212.375Z" transform="translate(-141.452 -211.878)"/></g><g transform="translate(12.754 105.509)"><path class="b" d="M158.67,228.458c0,.274-3.855.5-8.608.5s-8.61-.223-8.61-.5,3.854-.5,8.61-.5S158.67,228.183,158.67,228.458Z" transform="translate(-141.452 -227.96)"/></g><g transform="translate(12.754 123.743)"><path class="b" d="M158.67,244.54c0,.276-3.855.5-8.608.5s-8.61-.222-8.61-.5,3.854-.5,8.61-.5S158.67,244.265,158.67,244.54Z" transform="translate(-141.452 -244.043)"/></g><g transform="translate(12.754 141.976)"><path class="b" d="M158.67,260.623c0,.274-3.855.5-8.608.5s-8.61-.222-8.61-.5,3.854-.5,8.61-.5S158.67,260.348,158.67,260.623Z" transform="translate(-141.452 -260.125)"/></g><g transform="translate(12.754 160.21)"><path class="b" d="M158.67,276.7c0,.276-3.855.5-8.608.5s-8.61-.222-8.61-.5,3.854-.5,8.61-.5S158.67,276.43,158.67,276.7Z" transform="translate(-141.452 -276.208)"/></g><g transform="translate(12.754 178.443)"><path class="b" d="M158.67,292.788c0,.274-3.855.5-8.608.5s-8.61-.222-8.61-.5,3.854-.5,8.61-.5S158.67,292.513,158.67,292.788Z" transform="translate(-141.452 -292.29)"/></g><g transform="translate(12.754 196.675)"><path class="b" d="M158.67,308.87c0,.274-3.855.5-8.608.5s-8.61-.222-8.61-.5,3.854-.5,8.61-.5S158.67,308.6,158.67,308.87Z" transform="translate(-141.452 -308.372)"/></g><g transform="translate(12.754 214.909)"><path class="b" d="M158.67,324.953c0,.274-3.855.5-8.608.5s-8.61-.222-8.61-.5,3.854-.5,8.61-.5S158.67,324.677,158.67,324.953Z" transform="translate(-141.452 -324.455)"/></g><g transform="translate(12.754 233.142)"><path class="b" d="M158.67,341.035c0,.274-3.855.5-8.608.5s-8.61-.223-8.61-.5,3.854-.5,8.61-.5S158.67,340.76,158.67,341.035Z" transform="translate(-141.452 -340.537)"/></g><g transform="translate(12.754 251.376)"><g transform="translate(0 0)"><path class="b" d="M158.67,357.117c0,.275-3.855.5-8.608.5s-8.61-.222-8.61-.5,3.854-.5,8.61-.5S158.67,356.842,158.67,357.117Z" transform="translate(-141.452 -356.62)"/></g></g><g transform="translate(12.754 269.609)"><g transform="translate(0 0)"><path class="b" d="M158.67,373.2c0,.274-3.855.5-8.608.5s-8.61-.222-8.61-.5,3.854-.5,8.61-.5S158.67,372.925,158.67,373.2Z" transform="translate(-141.452 -372.702)"/></g></g><g transform="translate(12.754 287.842)"><path class="b" d="M158.67,389.282c0,.275-3.855.5-8.608.5s-8.61-.222-8.61-.5,3.854-.5,8.61-.5S158.67,389.007,158.67,389.282Z" transform="translate(-141.452 -388.785)"/></g><g transform="translate(54.301 31.501)"><path class="h" d="M222.784,163.18c0,.274-10,.5-22.341.5s-22.345-.223-22.345-.5,10-.5,22.345-.5S222.784,162.905,222.784,163.18Z" transform="translate(-178.098 -162.682)"/></g><g transform="translate(54.301 287.842)"><path class="h" d="M222.784,389.282c0,.275-10,.5-22.341.5s-22.345-.222-22.345-.5,10-.5,22.345-.5S222.784,389.007,222.784,389.282Z" transform="translate(-178.098 -388.785)"/></g><g transform="translate(77.611 69.044)"><path class="h" d="M282.266,196.293c0,.274-18.718.5-41.8.5s-41.807-.223-41.807-.5,18.713-.5,41.807-.5S282.266,196.018,282.266,196.293Z" transform="translate(-198.658 -195.796)"/></g><g transform="translate(174.288 69.044)"><path class="b" d="M367.538,196.293c0,.274-18.718.5-41.8.5s-41.805-.223-41.805-.5,18.713-.5,41.805-.5S367.538,196.018,367.538,196.293Z" transform="translate(-283.931 -195.796)"/></g><g transform="translate(97.731 87.277)"><path class="b" d="M339.621,212.375c0,.275-27.585.5-61.6.5s-61.611-.222-61.611-.5,27.579-.5,61.611-.5S339.621,212.1,339.621,212.375Z" transform="translate(-216.405 -211.878)"/></g><g transform="translate(97.731 105.509)"><path class="b" d="M339.621,228.458c0,.274-27.585.5-61.6.5s-61.611-.223-61.611-.5,27.579-.5,61.611-.5S339.621,228.183,339.621,228.458Z" transform="translate(-216.405 -227.96)"/></g><g transform="translate(182.546 160.21)"><path class="b" d="M414.429,276.7c0,.276-27.584.5-61.6.5s-61.611-.222-61.611-.5,27.578-.5,61.611-.5S414.429,276.43,414.429,276.7Z" transform="translate(-291.215 -276.208)"/></g><g transform="translate(145.947 123.743)"><path class="b" d="M382.149,244.54c0,.276-27.585.5-61.6.5s-61.611-.222-61.611-.5,27.579-.5,61.611-.5S382.149,244.265,382.149,244.54Z" transform="translate(-258.933 -244.043)"/></g><g transform="translate(296.518 123.743)"><path class="b" d="M514.957,244.54c0,.276-27.585.5-61.605.5s-61.609-.222-61.609-.5,27.578-.5,61.609-.5S514.957,244.265,514.957,244.54Z" transform="translate(-391.743 -244.043)"/></g><g transform="translate(244.153 87.277)"><g transform="translate(0)"><path class="i" d="M468.771,212.375c0,.275-27.585.5-61.6.5s-61.611-.222-61.611-.5,27.579-.5,61.611-.5S468.771,212.1,468.771,212.375Z" transform="translate(-345.555 -211.878)"/></g></g><g transform="translate(329.265 160.21)"><path class="i" d="M543.842,276.7c0,.276-27.585.5-61.6.5s-61.611-.222-61.611-.5,27.579-.5,61.611-.5S543.842,276.43,543.842,276.7Z" transform="translate(-420.627 -276.208)"/></g><g transform="translate(244.153 105.509)"><g transform="translate(0)"><path class="f" d="M536.887,228.458c0,.274-42.835.5-95.661.5-52.845,0-95.67-.223-95.67-.5s42.826-.5,95.67-.5C494.052,227.96,536.887,228.183,536.887,228.458Z" transform="translate(-345.555 -227.96)"/></g></g><g transform="translate(54.301 50.81)"><path class="i" d="M222.784,180.211c0,.274-10,.5-22.341.5s-22.345-.222-22.345-.5,10-.5,22.345-.5S222.784,179.935,222.784,180.211Z" transform="translate(-178.098 -179.713)"/></g><g transform="translate(54.301 269.609)"><g transform="translate(0 0)"><path class="i" d="M222.784,373.2c0,.274-10,.5-22.341.5s-22.345-.222-22.345-.5,10-.5,22.345-.5S222.784,372.925,222.784,373.2Z" transform="translate(-178.098 -372.702)"/></g></g><g transform="translate(76.44 123.743)"><path class="i" d="M242.311,244.54c0,.276-10.005.5-22.343.5s-22.344-.222-22.344-.5,10-.5,22.344-.5S242.311,244.265,242.311,244.54Z" transform="translate(-197.625 -244.043)"/></g><g transform="translate(434.58 123.743)"><path class="h" d="M558.205,244.54c0,.276-10,.5-22.343.5s-22.344-.222-22.344-.5,10-.5,22.344-.5S558.205,244.265,558.205,244.54Z" transform="translate(-513.519 -244.043)"/></g><g transform="translate(77.611 196.569)"><path class="h" d="M282.266,308.776c0,.274-18.718.5-41.8.5s-41.807-.222-41.807-.5,18.713-.5,41.807-.5S282.266,308.5,282.266,308.776Z" transform="translate(-198.658 -308.278)"/></g><g transform="translate(174.288 196.569)"><path class="b" d="M367.538,308.776c0,.274-18.718.5-41.8.5s-41.805-.222-41.805-.5,18.713-.5,41.805-.5S367.538,308.5,367.538,308.776Z" transform="translate(-283.931 -308.278)"/></g><g transform="translate(97.731 214.802)"><path class="b" d="M339.621,324.858c0,.274-27.585.5-61.6.5s-61.611-.223-61.611-.5,27.579-.5,61.611-.5S339.621,324.583,339.621,324.858Z" transform="translate(-216.405 -324.36)"/></g><g transform="translate(97.731 233.035)"><g transform="translate(0 0)"><path class="b" d="M339.621,340.94c0,.274-27.585.5-61.6.5s-61.611-.223-61.611-.5,27.579-.5,61.611-.5S339.621,340.665,339.621,340.94Z" transform="translate(-216.405 -340.443)"/></g></g><g transform="translate(145.947 251.268)"><path class="b" d="M382.149,357.023c0,.274-27.585.5-61.6.5s-61.611-.222-61.611-.5,27.579-.5,61.611-.5S382.149,356.748,382.149,357.023Z" transform="translate(-258.933 -356.525)"/></g><g transform="translate(296.518 251.268)"><path class="b" d="M514.957,357.023c0,.274-27.585.5-61.605.5s-61.609-.222-61.609-.5,27.578-.5,61.609-.5S514.957,356.748,514.957,357.023Z" transform="translate(-391.743 -356.525)"/></g><g transform="translate(244.153 214.802)"><g transform="translate(0)"><path class="i" d="M468.771,324.858c0,.274-27.585.5-61.6.5s-61.611-.223-61.611-.5,27.579-.5,61.611-.5S468.771,324.583,468.771,324.858Z" transform="translate(-345.555 -324.36)"/></g></g><g transform="translate(244.153 233.035)"><g transform="translate(0 0)"><path class="f" d="M536.887,340.94c0,.274-42.835.5-95.661.5-52.845,0-95.67-.223-95.67-.5s42.826-.5,95.67-.5C494.052,340.443,536.887,340.665,536.887,340.94Z" transform="translate(-345.555 -340.443)"/></g></g><g transform="translate(76.44 251.268)"><path class="i" d="M242.311,357.023c0,.274-10.005.5-22.343.5s-22.344-.222-22.344-.5,10-.5,22.344-.5S242.311,356.748,242.311,357.023Z" transform="translate(-197.625 -356.525)"/></g><g transform="translate(434.58 251.268)"><path class="h" d="M558.205,357.023c0,.274-10,.5-22.343.5s-22.344-.222-22.344-.5,10-.5,22.344-.5S558.205,356.748,558.205,357.023Z" transform="translate(-513.519 -356.525)"/></g></g><g transform="translate(39.092 375.973)"><path class="g" d="M623.556,436.014c0,.163-114.1.295-254.815.295-140.765,0-254.839-.132-254.839-.295s114.074-.3,254.839-.3C509.457,435.718,623.556,435.851,623.556,436.014Z" transform="translate(-113.902 -435.718)"/></g></g><g transform="translate(24.16 264.329)"><g transform="translate(20.976 107.036)"><path class="j" d="M104.354,350.065a64.726,64.726,0,0,0-61.732-16.943,112.431,112.431,0,0,0,62.462,19.516" transform="translate(-42.622 -331.078)"/></g><g transform="translate(43.634)"><path class="j" d="M80.743,288.546c2.572-18.191-4.5-38.655-18.117-51.878-.45,18.029,7.161,38.317,18.117,51.878" transform="translate(-62.607 -236.668)"/></g><g transform="translate(28.05 43.607)"><path class="j" d="M93.472,317.765a97.14,97.14,0,0,0-44.611-42.634c5.687,20.946,23.6,38.08,44.779,42.828" transform="translate(-48.861 -275.131)"/></g><g transform="translate(14.312 73.35)"><path class="j" d="M97.349,320.887c-10.987.308-22.107-.078-32.732-2.89s-20.8-8.215-27.873-16.631a109.377,109.377,0,0,1,60.441,18.452" transform="translate(-36.744 -301.366)"/></g><g transform="translate(69.34 23.957)"><path class="j" d="M85.281,304.874c5.577-20.9,14.778-35.361,31.207-47.075a43.474,43.474,0,0,1-31.207,47.075" transform="translate(-85.281 -257.799)"/></g><g transform="translate(92.017 78.422)"><path class="j" d="M124.079,334.5a30.948,30.948,0,0,0-18.8-28.657c.913,10.794,9.392,23.28,18.8,28.657" transform="translate(-105.283 -305.839)"/></g><g transform="translate(116.063 50.129)"><path class="j" d="M126.492,320.21c1.248-17.46,13.655-33.614,30.2-39.326-3.795,17.467-13.894,32.008-30.2,39.326" transform="translate(-126.492 -280.884)"/></g><g transform="translate(108.153 108.025)"><path class="j" d="M119.515,344.656c3.874-5.543,10.2-8.989,16.74-10.7s13.378-1.863,20.14-2A47.083,47.083,0,0,1,120.029,347.1" transform="translate(-119.515 -331.95)"/></g><g transform="translate(100.299 163.026)"><path class="j" d="M112.588,382.721a51.588,51.588,0,0,1,63,29.842c-22.884-4.342-45.466-14.506-63-29.842" transform="translate(-112.588 -380.463)"/></g><g transform="translate(68.161 149.799)"><path class="j" d="M91.263,368.8c3.8,11.238,3.071,24.82-5.378,34.5a41.228,41.228,0,0,1,5.378-34.5" transform="translate(-84.241 -368.797)"/></g><g transform="translate(33.886 143.558)"><path class="j" d="M80.464,363.292a42.273,42.273,0,0,1-23.349,34.3,2.626,2.626,0,0,1-2.065.339c-1.029-.419-1.124-1.824-1-2.93,1.655-14.4,12.321-28.32,26.41-31.712" transform="translate(-54.009 -363.292)"/></g><g transform="translate(0 140.52)"><path class="j" d="M74.764,362.19a34.667,34.667,0,0,1-50.644.258c16.1-1.762,34.672-2.936,50.644-.258" transform="translate(-24.12 -360.613)"/></g><g transform="translate(45.835 13.407)"><g transform="translate(2.398)"><path class="g" d="M66.664,248.494a2.856,2.856,0,0,0,.147.472l.491,1.362,1.942,5.212c.866,2.255,1.865,5.036,3.023,8.265l1.865,5.169q.954,2.76,2.011,5.823c2.851,8.152,6.018,17.936,9.437,28.829,3.356,10.913,6.882,22.962,10.351,35.672,3.422,12.728,6.456,24.913,9.037,36.036,2.509,11.139,4.666,21.2,6.225,29.689q.6,3.18,1.142,6.052.488,2.876.921,5.417c.583,3.38,1.082,6.292,1.417,8.683.363,2.363.646,4.208.845,5.5.1.6.177,1.077.235,1.427a3.02,3.02,0,0,0,.1.484,2.911,2.911,0,0,0-.039-.492c-.043-.353-.1-.829-.175-1.436-.171-1.294-.416-3.145-.73-5.516-.3-2.4-.764-5.317-1.315-8.7-.273-1.695-.565-3.508-.874-5.427q-.52-2.874-1.1-6.064c-1.5-8.511-3.62-18.582-6.1-29.736-2.553-11.138-5.572-23.335-9-36.071-3.471-12.718-7.016-24.769-10.4-35.68-3.45-10.89-6.662-20.666-9.568-28.8q-1.078-3.054-2.053-5.812l-1.909-5.155c-1.189-3.22-2.222-5.99-3.123-8.232l-2.05-5.172c-.232-.567-.414-1.011-.548-1.339A2.828,2.828,0,0,0,66.664,248.494Z" transform="translate(-66.663 -248.494)"/></g><g transform="translate(46.682 46.046)"><path class="g" d="M149.863,289.109a1.758,1.758,0,0,0-.278.262l-.77.809c-.672.715-1.646,1.787-2.862,3.2a112.652,112.652,0,0,0-9.478,12.638,84.847,84.847,0,0,0-9.911,21.2c-2.655,8.441-4.3,18.034-5.944,28.061-3.273,20.073-7.289,38.049-10.2,51.054-1.465,6.47-2.654,11.718-3.486,15.394-.4,1.789-.707,3.193-.929,4.19-.094.454-.168.814-.227,1.093a1.713,1.713,0,0,0-.056.377,1.777,1.777,0,0,0,.118-.363c.073-.276.167-.632.286-1.079.247-.991.6-2.387,1.041-4.164l3.677-15.351c3.017-12.981,7.1-30.959,10.38-51.051,1.641-10.029,3.267-19.592,5.878-27.994a85.827,85.827,0,0,1,9.737-21.136,121.527,121.527,0,0,1,9.293-12.717c1.185-1.435,2.13-2.532,2.772-3.273l.723-.85A1.753,1.753,0,0,0,149.863,289.109Z" transform="translate(-105.723 -289.109)"/></g><g transform="translate(0 127.985)"><path class="g" d="M64.548,361.4a2.1,2.1,0,0,0,.579.107l1.667.184,1.2.119,1.424.213c1.021.152,2.187.3,3.456.584l2,.4,2.14.542c1.49.337,3.029.882,4.671,1.377a68.647,68.647,0,0,1,10.192,4.492,57.614,57.614,0,0,1,9.139,6.348,45.873,45.873,0,0,1,3.507,3.366,36.445,36.445,0,0,1,2.774,3.2,33.265,33.265,0,0,1,2.054,2.831,20.9,20.9,0,0,1,1.407,2.238l.854,1.442a2.242,2.242,0,0,0,.336.485,2.1,2.1,0,0,0-.225-.542l-.756-1.5a18.5,18.5,0,0,0-1.326-2.308,30.96,30.96,0,0,0-2-2.909,34.907,34.907,0,0,0-2.747-3.284,44.289,44.289,0,0,0-3.507-3.445,55.619,55.619,0,0,0-9.214-6.459,65.537,65.537,0,0,0-10.311-4.491c-1.66-.485-3.219-1.017-4.725-1.334l-2.165-.511-2.02-.362c-1.282-.256-2.46-.376-3.491-.5l-1.436-.164-1.214-.065-1.68-.069A2.1,2.1,0,0,0,64.548,361.4Z" transform="translate(-64.548 -361.382)"/></g></g><g transform="translate(41.248 59.838)"><path class="g" d="M60.5,289.449a8.017,8.017,0,0,0,1.16,1.117c.873.759,1.984,1.722,3.313,2.874,2.815,2.407,6.732,5.7,11.082,9.306s8.313,6.848,11.2,9.167l3.438,2.723a8.1,8.1,0,0,0,1.312.933,8.1,8.1,0,0,0-1.162-1.12l-3.314-2.874c-2.815-2.407-6.73-5.7-11.08-9.3s-8.307-6.842-11.192-9.163l-3.44-2.724A8.229,8.229,0,0,0,60.5,289.449Z" transform="translate(-60.503 -289.447)"/></g><g transform="translate(37.292 81.127)"><path class="g" d="M57.013,308.233c-.049.163,8.4,2.8,18.877,5.9s19,5.471,19.054,5.308-8.4-2.8-18.879-5.9S57.061,308.07,57.013,308.233Z" transform="translate(-57.013 -308.225)"/></g><g transform="translate(68.499 42.562)"><path class="g" d="M84.542,304.3a6.976,6.976,0,0,0,.873-1.214c.594-.906,1.34-2.043,2.228-3.394,1.89-2.859,4.572-6.759,7.745-10.912s6.234-7.768,8.487-10.351l2.676-3.055a6.953,6.953,0,0,0,.935-1.165,6.971,6.971,0,0,0-1.11,1c-.687.67-1.654,1.67-2.824,2.927-2.341,2.515-5.463,6.1-8.653,10.268s-5.822,8.125-7.622,11.052c-.9,1.464-1.605,2.662-2.067,3.506A7,7,0,0,0,84.542,304.3Z" transform="translate(-84.539 -274.21)"/></g><g transform="translate(97.851 84.474)"><path class="g" d="M110.434,311.179a28.013,28.013,0,0,0,1.983,3.261c1.264,1.985,2.977,4.746,4.752,7.862s3.271,6,4.331,8.1a27.986,27.986,0,0,0,1.79,3.371,20.25,20.25,0,0,0-1.4-3.558c-.964-2.155-2.408-5.085-4.189-8.22s-3.564-5.869-4.924-7.8A20.241,20.241,0,0,0,110.434,311.179Z" transform="translate(-110.429 -311.178)"/></g><g transform="translate(107.899 110.748)"><path class="g" d="M119.292,344.917c.043.083,1.655-.705,4.295-1.892s6.324-2.741,10.488-4.2,8.017-2.541,10.82-3.257,4.555-1.107,4.537-1.2a4.979,4.979,0,0,0-1.258.132c-.8.12-1.959.338-3.379.645a94.4,94.4,0,0,0-21.394,7.487c-1.3.646-2.341,1.2-3.044,1.6A4.893,4.893,0,0,0,119.292,344.917Z" transform="translate(-119.291 -334.352)"/></g><g transform="translate(99.993 165.343)"><path class="g" d="M112.318,382.515a1.805,1.805,0,0,0,.52.177l1.523.388,5.621,1.3a184.984,184.984,0,0,1,18.362,4.846,81.442,81.442,0,0,1,17.13,8.048c2.048,1.3,3.644,2.455,4.72,3.286a16.477,16.477,0,0,0,1.7,1.257c.015-.016-.116-.153-.378-.4s-.645-.613-1.175-1.045a49.5,49.5,0,0,0-4.631-3.464,75.2,75.2,0,0,0-17.168-8.266,153.826,153.826,0,0,0-18.47-4.689l-5.663-1.105A14.19,14.19,0,0,0,112.318,382.515Z" transform="translate(-112.318 -382.507)"/></g><g transform="translate(71.378 149.634)"><path class="g" d="M87.1,395.223c.169.024,1.176-5.9,2.248-13.241s1.807-13.307,1.639-13.332-1.175,5.9-2.248,13.242S86.934,395.2,87.1,395.223Z" transform="translate(-87.078 -368.651)"/></g><g transform="translate(41.632 143.658)"><path class="g" d="M60.844,385.119a30.988,30.988,0,0,0,2.682-3.186c1.609-2,3.838-4.762,6.357-7.762s4.856-5.67,6.552-7.6a31.157,31.157,0,0,0,2.676-3.19,3.983,3.983,0,0,0-.853.73c-.52.5-1.254,1.237-2.144,2.167-1.781,1.857-4.173,4.491-6.7,7.5s-4.708,5.818-6.231,7.892c-.763,1.037-1.365,1.887-1.765,2.485A3.977,3.977,0,0,0,60.844,385.119Z" transform="translate(-60.841 -363.38)"/></g><g transform="translate(57.097 193.005)"><path class="h" d="M137.795,406.906v14.709h-3.677L121.044,462.88H92.051L79.385,422.023l-4.9-.409V406.906Z" transform="translate(-74.482 -406.906)"/></g><g class="c" transform="translate(57.097 193.005)"><path d="M137.795,406.906v14.709h-3.677L121.044,462.88H92.051L79.385,422.023l-4.9-.409V406.906Z" transform="translate(-74.482 -406.906)"/></g><g transform="translate(59.548 207.815)"><path class="g" d="M76.644,420.276c0,.17,12.8.308,28.592.308s28.593-.138,28.593-.308-12.8-.307-28.593-.307S76.644,420.106,76.644,420.276Z" transform="translate(-76.644 -419.969)"/></g><g transform="translate(38.697 113.503)"><path class="g" d="M58.252,336.791a11.453,11.453,0,0,0,1.858.5L65.2,338.52c4.288,1.062,10.178,2.676,16.567,4.821s12.056,4.426,16.115,6.172l4.8,2.1a11.586,11.586,0,0,0,1.783.723,11.294,11.294,0,0,0-1.68-.939c-1.1-.574-2.71-1.356-4.722-2.28A167.206,167.206,0,0,0,65.3,338.1c-2.162-.48-3.919-.831-5.142-1.039A11.762,11.762,0,0,0,58.252,336.791Z" transform="translate(-58.252 -336.782)"/></g><g transform="translate(69.175 230.73)"><path class="i" d="M85.135,440.488c0,.17,8.981.308,20.059.308s20.06-.138,20.06-.308-8.979-.307-20.06-.307S85.135,440.318,85.135,440.488Z" transform="translate(-85.135 -440.181)"/></g><g transform="translate(68.047 227.319)"><path class="i" d="M84.14,437.479c0,.17,9.519.308,21.258.308s21.26-.138,21.26-.308-9.517-.307-21.26-.307S84.14,437.309,84.14,437.479Z" transform="translate(-84.14 -437.172)"/></g></g><g transform="translate(29.174 513.247)"><path class="g" d="M800.52,456.52c0,.163-172.827.295-385.97.295-213.217,0-386.006-.132-386.006-.295s172.789-.3,386.006-.3C627.693,456.224,800.52,456.357,800.52,456.52Z" transform="translate(-28.543 -456.224)"/></g><g transform="translate(391.117 82.046)"><path class="i" d="M651.876,76.125H348.051V264.287h255.77l15.834,36.43,14.038-36.43h18.182Z" transform="translate(-347.756 -75.855)"/><path class="g" d="M651.91,76.157c0,1.824.088,72.514.228,188.162v.227h-.228l-18.181.008.219-.151c-4.394,11.419-9.132,23.728-14.024,36.436l-.219.571-.245-.562c-4.965-11.413-10.334-23.754-15.846-36.425l.242.159-231.3.032H347.791v-.295c.009-67.058.018-130.7.026-188.162v-.27h.269l303.824.269-303.824.269.269-.269c.008,57.462.017,121.1.026,188.162l-.295-.295h24.471l231.3.032h.173l.069.159c5.5,12.674,10.865,25.018,15.822,36.435l-.464.01c4.9-12.7,9.648-25.01,14.053-36.425l.058-.151h.162l18.181.008-.227.227C651.823,148.671,651.908,77.98,651.91,76.157Z" transform="translate(-347.791 -75.887)"/><g transform="translate(0.753 7.83)"><g transform="translate(0 10.386)"><path class="g" d="M651.664,92.369c0,.229-67.88.415-151.6.415-83.745,0-151.611-.186-151.611-.415s67.867-.415,151.611-.415C583.783,91.954,651.664,92.14,651.664,92.369Z" transform="translate(-348.455 -91.954)"/></g><g transform="translate(10.709)"><path class="g" d="M362.881,85.283a2.49,2.49,0,1,1-2.491-2.49A2.49,2.49,0,0,1,362.881,85.283Z" transform="translate(-357.901 -82.793)"/><g transform="translate(9.012)"><path class="g" d="M370.829,85.283a2.49,2.49,0,1,1-2.49-2.49A2.489,2.489,0,0,1,370.829,85.283Z" transform="translate(-365.85 -82.793)"/></g><g transform="translate(18.023)"><path class="g" d="M378.779,85.283a2.49,2.49,0,1,1-2.49-2.49A2.489,2.489,0,0,1,378.779,85.283Z" transform="translate(-373.798 -82.793)"/></g></g><g transform="translate(23.574 37.245)"><path class="g" d="M378.354,122.209l-7.215,2.784,7.215,2.784v1.687l-9.106-3.6V124.12l9.106-3.6Z" transform="translate(-369.248 -114.993)"/><path class="g" d="M384.693,115.645h1.767l-6.707,19.148h-1.77Z" transform="translate(-368.08 -115.645)"/><path class="g" d="M395.108,124.12v1.747l-9.106,3.6v-1.687l7.236-2.784L386,122.209v-1.687Z" transform="translate(-367.007 -114.993)"/><path class="g" d="M396.064,129.774a1.359,1.359,0,0,1,1.382-1.382,1.338,1.338,0,0,1,1.341,1.382,1.356,1.356,0,0,1-1.341,1.4A1.377,1.377,0,0,1,396.064,129.774Z" transform="translate(-365.662 -113.94)"/><path class="g" d="M400.137,129.774a1.358,1.358,0,0,1,1.381-1.382,1.338,1.338,0,0,1,1.342,1.382,1.356,1.356,0,0,1-1.342,1.4A1.376,1.376,0,0,1,400.137,129.774Z" transform="translate(-365.117 -113.94)"/><path class="g" d="M404.208,129.774a1.359,1.359,0,0,1,1.381-1.382,1.339,1.339,0,0,1,1.342,1.382,1.357,1.357,0,0,1-1.342,1.4A1.377,1.377,0,0,1,404.208,129.774Z" transform="translate(-364.573 -113.94)"/></g><g transform="translate(23.917 70.913)"><path class="f" d="M570.17,145.756c0,.229-44.914.415-100.305.415-55.41,0-100.314-.186-100.314-.415s44.9-.415,100.314-.415C525.256,145.341,570.17,145.527,570.17,145.756Z" transform="translate(-369.551 -145.341)"/></g><g transform="translate(238.023 71.507)"><path class="g" d="M577.677,146.279c0,.23-4.315.416-9.638.416s-9.638-.186-9.638-.416,4.315-.414,9.638-.414S577.677,146.05,577.677,146.279Z" transform="translate(-558.401 -145.865)"/></g><g transform="translate(264.416 71.507)"><path class="g" d="M602.736,146.279c0,.23-4.714.416-10.528.416s-10.528-.186-10.528-.416,4.713-.414,10.528-.414S602.736,146.05,602.736,146.279Z" transform="translate(-581.68 -145.865)"/></g><g transform="translate(24.149 87.817)"><path class="f" d="M497.27,160.666c0,.229-28.547.415-63.754.415s-63.76-.186-63.76-.415,28.542-.415,63.76-.415S497.27,160.436,497.27,160.666Z" transform="translate(-369.755 -160.251)"/></g><g transform="translate(23.237 150.889)"><path class="f" d="M496.466,216.3c0,.229-28.547.415-63.754.415s-63.76-.186-63.76-.415,28.542-.415,63.76-.415S496.466,216.069,496.466,216.3Z" transform="translate(-368.951 -215.883)"/></g><g transform="translate(163.294 87.817)"><path class="g" d="M527.183,160.666c0,.229-7.767.415-17.347.415s-17.348-.186-17.348-.415,7.765-.415,17.348-.415S527.183,160.436,527.183,160.666Z" transform="translate(-492.487 -160.251)"/></g><g transform="translate(162.93 150.889)"><path class="g" d="M526.863,216.3c0,.229-7.768.415-17.347.415s-17.35-.186-17.35-.415,7.766-.415,17.35-.415S526.863,216.069,526.863,216.3Z" transform="translate(-492.166 -215.883)"/></g><g transform="translate(23.917 96.416)"><path class="h" d="M378.15,168.251c0,.229-1.925.415-4.3.415s-4.3-.186-4.3-.415,1.925-.415,4.3-.415S378.15,168.022,378.15,168.251Z" transform="translate(-369.551 -167.836)"/></g><g transform="translate(43.489 96.594)"><path class="g" d="M405.5,168.408c0,.229-4.182.415-9.341.415s-9.342-.186-9.342-.415,4.182-.415,9.342-.415S405.5,168.179,405.5,168.408Z" transform="translate(-386.814 -167.993)"/></g><g transform="translate(65.138 96.594)"><path class="g" d="M421.922,168.408c0,.229-3.585.415-8.006.415s-8.006-.186-8.006-.415,3.584-.415,8.006-.415S421.922,168.179,421.922,168.408Z" transform="translate(-405.909 -167.993)"/></g><g transform="translate(88.861 96.594)"><path class="g" d="M443.144,168.408c0,.229-3.652.415-8.155.415s-8.155-.186-8.155-.415,3.651-.415,8.155-.415S443.144,168.179,443.144,168.408Z" transform="translate(-426.834 -167.993)"/></g><g transform="translate(111.399 96.594)"><path class="g" d="M461.54,168.408c0,.229-3.32.415-7.413.415s-7.414-.186-7.414-.415,3.318-.415,7.414-.415S461.54,168.179,461.54,168.408Z" transform="translate(-446.713 -167.993)"/></g><g transform="translate(130.673 96.594)"><path class="g" d="M528.955,168.408c0,.229-14.606.415-32.619.415s-32.622-.186-32.622-.415,14.6-.415,32.622-.415S528.955,168.179,528.955,168.408Z" transform="translate(-463.714 -167.993)"/></g><g transform="translate(23.917 107.389)"><path class="h" d="M376.964,177.929c0,.229-1.66.415-3.706.415s-3.707-.186-3.707-.415,1.66-.415,3.707-.415S376.964,177.7,376.964,177.929Z" transform="translate(-369.551 -177.514)"/></g><g transform="translate(23.917 118.657)"><path class="h" d="M377.261,187.868c0,.23-1.727.415-3.855.415s-3.856-.185-3.856-.415,1.726-.415,3.856-.415S377.261,187.639,377.261,187.868Z" transform="translate(-369.551 -187.453)"/></g><g transform="translate(23.917 131.408)"><path class="h" d="M377.261,199.115c0,.23-1.727.415-3.855.415s-3.856-.185-3.856-.415,1.726-.415,3.856-.415S377.261,198.886,377.261,199.115Z" transform="translate(-369.551 -198.7)"/></g><g transform="translate(44.379 130.815)"><path class="g" d="M445.129,198.592c0,.23-12.879.415-28.764.415s-28.766-.185-28.766-.415,12.877-.415,28.766-.415S445.129,198.363,445.129,198.592Z" transform="translate(-387.599 -198.177)"/></g><g transform="translate(42.007 118.657)"><path class="g" d="M440.367,187.868c0,.23-12.282.415-27.428.415s-27.432-.185-27.432-.415,12.278-.415,27.432-.415S440.367,187.639,440.367,187.868Z" transform="translate(-385.507 -187.453)"/></g><g transform="translate(42.6 106.796)"><path class="g" d="M572.854,177.406c0,.229-41.826.415-93.407.415-51.6,0-93.416-.186-93.416-.415s41.816-.415,93.416-.415C531.028,176.991,572.854,177.177,572.854,177.406Z" transform="translate(-386.03 -176.991)"/></g></g><g transform="translate(297.169 76.995)"><path class="i" d="M635.436,144V303.9l-24.862,20.744H740.6V144Z" transform="translate(-609.817 -143.774)"/><path class="g" d="M635.525,144.022s.616-.015,1.838-.023l5.438-.025,20.937-.056,76.95-.119h.222v.223c.019,48.264.044,111.3.073,180.647v.295H722.453l-111.79-.02h-.757l.582-.485,24.871-20.733-.093.2c.054-47.807.1-87.808.131-115.869.03-14,.052-25.011.068-32.54.014-3.745.024-6.62.031-8.571q.01-1.439.015-2.19c0-.491.015-.732.015-.732s.01.262.015.761.008,1.248.015,2.22c.007,1.962.017,4.855.031,8.621.016,7.543.039,18.579.068,32.6.032,28.02.077,67.963.131,115.7v.121l-.093.078q-11.957,9.986-24.853,20.756l-.176-.485,111.79-.021h18.234l-.295.295c.027-69.345.053-132.383.073-180.647l.222.222-76.813-.119-20.987-.056-5.478-.025C636.171,144.038,635.525,144.022,635.525,144.022Z" transform="translate(-609.906 -143.8)"/><g transform="translate(26.647 6.047)"><g transform="translate(4.261)"><path class="g" d="M641.43,151.265a2.131,2.131,0,1,1-2.13-2.131A2.13,2.13,0,0,1,641.43,151.265Z" transform="translate(-637.168 -149.134)"/><path class="g" d="M648.232,151.265a2.131,2.131,0,1,1-2.131-2.131A2.131,2.131,0,0,1,648.232,151.265Z" transform="translate(-636.258 -149.134)"/><path class="g" d="M655.033,151.265a2.13,2.13,0,1,1-2.13-2.131A2.13,2.13,0,0,1,655.033,151.265Z" transform="translate(-635.349 -149.134)"/></g><g transform="translate(0 10.139)"><g transform="translate(15.676 40.919)"><path class="h" d="M706.789,194.51c0,.188-13.331.341-29.774.341s-29.778-.153-29.778-.341,13.329-.341,29.778-.341S706.789,194.322,706.789,194.51Z" transform="translate(-647.237 -194.169)"/></g><g transform="translate(15.173 55.383)"><path class="h" d="M719.266,207.268c0,.188-16.225.341-36.235.341s-36.238-.153-36.238-.341,16.221-.341,36.238-.341S719.266,207.08,719.266,207.268Z" transform="translate(-646.793 -206.927)"/></g><g transform="translate(13.323 109.354)"><path class="h" d="M722.434,254.872c0,.188-17.3.341-38.635.341s-38.638-.153-38.638-.341,17.3-.34,38.638-.34S722.434,254.684,722.434,254.872Z" transform="translate(-645.161 -254.532)"/></g><g transform="translate(13.904 62.742)"><path class="h" d="M653.033,213.759c0,.188-1.647.34-3.68.34s-3.679-.152-3.679-.34,1.647-.341,3.679-.341S653.033,213.571,653.033,213.759Z" transform="translate(-645.674 -213.418)"/></g><g transform="translate(30.652 62.894)"><path class="h" d="M676.433,213.893c0,.188-3.579.341-7.993.341s-7.994-.153-7.994-.341,3.578-.341,7.994-.341S676.433,213.705,676.433,213.893Z" transform="translate(-660.446 -213.552)"/></g><g transform="translate(49.176 62.894)"><path class="h" d="M690.487,213.893c0,.188-3.068.341-6.851.341s-6.851-.153-6.851-.341,3.067-.341,6.851-.341S690.487,213.705,690.487,213.893Z" transform="translate(-676.785 -213.552)"/></g><g transform="translate(13.904 72.132)"><path class="h" d="M652.017,222.04c0,.188-1.419.341-3.171.341s-3.172-.153-3.172-.341,1.419-.34,3.172-.34S652.017,221.852,652.017,222.04Z" transform="translate(-645.674 -221.7)"/></g><g transform="translate(13.904 81.774)"><path class="h" d="M652.271,230.545c0,.188-1.477.341-3.3.341s-3.3-.153-3.3-.341,1.476-.34,3.3-.34S652.271,230.357,652.271,230.545Z" transform="translate(-645.674 -230.205)"/></g><g transform="translate(13.904 92.685)"><path class="h" d="M652.271,240.17c0,.188-1.477.34-3.3.34s-3.3-.152-3.3-.34,1.476-.341,3.3-.341S652.271,239.981,652.271,240.17Z" transform="translate(-645.674 -239.829)"/></g><g transform="translate(31.412 92.177)"><path class="h" d="M710.346,239.722c0,.188-11.021.341-24.613.341s-24.616-.153-24.616-.341,11.019-.341,24.616-.341S710.346,239.534,710.346,239.722Z" transform="translate(-661.117 -239.381)"/></g><g transform="translate(29.383 81.774)"><path class="h" d="M706.272,230.545c0,.188-10.51.341-23.472.341s-23.473-.153-23.473-.341,10.507-.34,23.473-.34S706.272,230.357,706.272,230.545Z" transform="translate(-659.327 -230.205)"/></g><g transform="translate(18.709 123.762)"><path class="h" d="M656.509,267.581c0,.188-1.477.341-3.3.341s-3.3-.153-3.3-.341,1.476-.341,3.3-.341S656.509,267.393,656.509,267.581Z" transform="translate(-649.912 -267.24)"/></g><g transform="translate(18.709 134.674)"><path class="h" d="M656.509,277.205c0,.188-1.477.341-3.3.341s-3.3-.153-3.3-.341,1.476-.34,3.3-.34S656.509,277.017,656.509,277.205Z" transform="translate(-649.912 -276.865)"/></g><g transform="translate(36.217 134.166)"><path class="h" d="M714.584,276.758c0,.188-11.021.34-24.613.34s-24.616-.152-24.616-.34,11.019-.341,24.616-.341S714.584,276.57,714.584,276.758Z" transform="translate(-665.355 -276.417)"/></g><g transform="translate(34.188 123.762)"><path class="h" d="M710.51,267.581c0,.188-10.51.341-23.472.341s-23.473-.153-23.473-.341,10.508-.341,23.473-.341S710.51,267.393,710.51,267.581Z" transform="translate(-663.565 -267.24)"/></g><g transform="translate(29.891 71.624)"><path class="h" d="M723.666,221.592c0,.188-14.3.341-31.944.341s-31.946-.153-31.946-.341,14.3-.34,31.946-.34S723.666,221.405,723.666,221.592Z" transform="translate(-659.775 -221.252)"/></g><path class="g" d="M736.555,158.417c0,.189-23.092.341-51.57.341s-51.575-.152-51.575-.341,23.088-.34,51.575-.34S736.555,158.23,736.555,158.417Z" transform="translate(-633.41 -158.077)"/><g transform="translate(15.648 32.196)"><path class="h" d="M669,186.816c0,.188-4.876.341-10.892.341s-10.892-.153-10.892-.341,4.875-.341,10.892-.341S669,186.628,669,186.816Z" transform="translate(-647.212 -186.475)"/></g><g transform="translate(14.826 12.468)"><path class="h" d="M656.762,169.414c0,.188-2.3.341-5.137.341s-5.138-.153-5.138-.341,2.3-.34,5.138-.34S656.762,169.226,656.762,169.414Z" transform="translate(-646.487 -169.074)"/></g></g></g></g></g><g transform="translate(520.218 216.074)"><g transform="translate(0 0)"><g transform="translate(0 89.642)"><g transform="translate(10.39)"><path class="j" d="M589.24,388.347l22.835-22.577-40.723-69.735a39.31,39.31,0,0,0-15.629-10.87l-14.342-5.451-35.652-6.54-25.313,9.968a15.134,15.134,0,0,0-9.483,15.868l6.621,55.737,3.9,72.574,91.98-15.954-9.256-26.843.312-41.851Z" transform="translate(-470.828 -273.173)"/><g transform="translate(93.461 44.813)"><path class="g" d="M554,377.454c.215,0,.271-14.5.125-32.378s-.44-32.377-.654-32.376-.271,14.5-.125,32.382S553.786,377.457,554,377.454Z" transform="translate(-553.264 -312.7)"/></g></g><g transform="translate(0 9.968)"><path class="j" d="M562.882,392.2,507.3,369.829a12.7,12.7,0,0,1-7.92-10.814l-4.067-53.286s.481-22.662-13.674-23.765l-8.053,3.172c-10.407,5.527-12.986,20.679-11.569,32.378,2.012,16.623,2.851,40.148,5.1,54.576,1.843,11.8,8.93,21.137,20.154,25.223l68.453,14.819Z" transform="translate(-461.663 -281.965)"/></g><g transform="translate(34.436 41.862)"><path class="g" d="M492.052,310.1a7.715,7.715,0,0,1,.175,1.22q.133,1.3.357,3.511c.285,3.122.684,7.52,1.176,12.922.47,5.479,1.028,11.971,1.647,19.171q.228,2.707.466,5.542a41.792,41.792,0,0,0,.71,5.7,9.463,9.463,0,0,0,2.762,4.994,18.753,18.753,0,0,0,5.129,3.19c15.325,6.631,29.449,12.107,39.7,15.947l12.172,4.484,3.31,1.22a7.659,7.659,0,0,1,1.138.473,7.8,7.8,0,0,1-1.187-.33l-3.357-1.09c-2.909-.964-7.1-2.408-12.258-4.264-10.312-3.719-24.458-9.113-39.829-15.763a19.406,19.406,0,0,1-5.327-3.331,10.2,10.2,0,0,1-2.964-5.365,41.8,41.8,0,0,1-.707-5.8q-.226-2.835-.441-5.546c-.559-7.207-1.063-13.7-1.49-19.188-.392-5.411-.712-9.815-.939-12.943q-.138-2.216-.219-3.521A7.618,7.618,0,0,1,492.052,310.1Z" transform="translate(-492.037 -310.097)"/></g><g transform="translate(2.569 70.829)"><path class="g" d="M463.969,335.647a2.723,2.723,0,0,1,.11.715c.05.556.11,1.235.184,2.057.166,1.9.388,4.454.659,7.562.305,3.188.692,6.984,1.246,11.179a106.811,106.811,0,0,0,2.509,13.5,20.156,20.156,0,0,0,2.713,6.435,36.96,36.96,0,0,0,4.152,5.1,35.524,35.524,0,0,0,8.893,6.672,33.436,33.436,0,0,0,9.761,3.2,2.608,2.608,0,0,1-.723-.017,15.141,15.141,0,0,1-2.055-.265,27.187,27.187,0,0,1-7.222-2.444,34.856,34.856,0,0,1-9.142-6.661,36.762,36.762,0,0,1-4.267-5.173,20.691,20.691,0,0,1-2.825-6.646,100.52,100.52,0,0,1-2.473-13.607c-.518-4.215-.851-8.023-1.09-11.224s-.358-5.794-.424-7.588c-.017-.825-.032-1.508-.044-2.066A2.589,2.589,0,0,1,463.969,335.647Z" transform="translate(-463.929 -335.647)"/></g><g transform="translate(26.36 94.959)"><path class="g" d="M484.928,370.087a8.167,8.167,0,0,1,1.011-2.961,19.124,19.124,0,0,1,11.276-9.63,8.153,8.153,0,0,1,3.084-.536c.023.125-1.144.356-2.91,1.033a21.613,21.613,0,0,0-10.986,9.382C485.458,369.012,485.047,370.129,484.928,370.087Z" transform="translate(-484.914 -356.93)"/></g><g class="c" transform="translate(36.261 57.705)"><path d="M542.632,380.22c-5.943-3.357-11.757-5.936-17.971-8.76s-12.3-6.449-16.368-11.93c-7.67-10.337-6.8-25.257-14.647-35.459q.769,10.289,1.538,20.578c.469,6.288-.494,12.505,3.555,16.777,3.411,3.6,10.064,6.359,14.773,7.912,9.464,3.122,19.656,7.759,29.119,10.882" transform="translate(-493.647 -324.071)"/></g><path class="k" d="M553.454,316.162l4.808,29.655-4.551-8.4Z" transform="translate(-449.388 -267.424)"/><g transform="translate(0.161 30.206)"><path class="f" d="M494.418,300.052a5.383,5.383,0,0,1-1.287.1l-3.506.088c-2.959.074-7.043.223-11.545.544s-8.567.76-11.505,1.108l-3.482.412a5.452,5.452,0,0,1-1.289.086,5.489,5.489,0,0,1,1.254-.313c.813-.165,2-.372,3.46-.6,2.932-.456,7-.957,11.52-1.282s8.618-.406,11.583-.373c1.483.015,2.682.05,3.511.1A5.421,5.421,0,0,1,494.418,300.052Z" transform="translate(-461.805 -299.816)"/></g><g transform="translate(1.766 58.79)"><path class="f" d="M495.81,325.06c.012.163-7.272.9-16.27,1.642s-16.305,1.215-16.319,1.053,7.27-.9,16.27-1.642S495.8,324.9,495.81,325.06Z" transform="translate(-463.221 -325.028)"/></g><g transform="translate(4.469 88.651)"><path class="f" d="M498.17,351.372a5.752,5.752,0,0,1-1.153.659c-.756.4-1.879.916-3.286,1.509a68.2,68.2,0,0,1-23.188,5.191c-1.526.063-2.762.071-3.616.036a5.74,5.74,0,0,1-1.323-.105,5.779,5.779,0,0,1,1.321-.125c.85-.035,2.078-.107,3.592-.222a81.2,81.2,0,0,0,23.06-5.162c1.418-.542,2.56-1,3.344-1.331A5.7,5.7,0,0,1,498.17,351.372Z" transform="translate(-465.605 -351.366)"/></g><g transform="translate(47.432 103.947)"><path class="f" d="M512.862,364.868c.1.166-2.9,1.491-5.508,4.424-2.653,2.9-3.665,6.009-3.84,5.932a5.459,5.459,0,0,1,.612-2.029,16.208,16.208,0,0,1,6.779-7.51A5.476,5.476,0,0,1,512.862,364.868Z" transform="translate(-503.5 -364.858)"/></g><g transform="translate(76.876 112.755)"><path class="f" d="M529.49,383.473a21.75,21.75,0,0,1,5.938-10.842c.136.113-1.61,2.28-3.238,5.274C530.545,380.888,529.66,383.527,529.49,383.473Z" transform="translate(-529.471 -372.628)"/></g><g transform="translate(29.394 13.723)"><path class="f" d="M503.415,285.306a109.484,109.484,0,0,1-15.825,2.86,109.972,109.972,0,0,1,15.825-2.86Z" transform="translate(-487.59 -285.277)"/></g><g transform="translate(76.696 13.562)"><path class="f" d="M551.039,287.747a203.358,203.358,0,0,1-21.727-2.578,101.459,101.459,0,0,1,10.9,1A101.465,101.465,0,0,1,551.039,287.747Z" transform="translate(-529.312 -285.136)"/></g><g transform="translate(34.576 40.475)"><path class="f" d="M560.551,309.317a3.134,3.134,0,0,1-.7.045l-2,.015-7.332-.009c-6.191-.006-14.743.047-24.184.288s-17.989.632-24.171.955l-7.322.387-1.993.086a3.106,3.106,0,0,1-.7-.009,3.054,3.054,0,0,1,.689-.109l1.984-.2c1.726-.161,4.224-.358,7.314-.573,6.179-.431,14.728-.884,24.18-1.129s18.009-.227,24.2-.115c3.1.054,5.6.124,7.333.2l1.993.1A3.093,3.093,0,0,1,560.551,309.317Z" transform="translate(-492.161 -308.873)"/></g><g transform="translate(38.45 72.235)"><path class="f" d="M560.745,336.907c.011.163-14.57,1.255-32.562,2.44s-32.595,2.014-32.605,1.851,14.566-1.255,32.565-2.44S560.735,336.745,560.745,336.907Z" transform="translate(-495.578 -336.887)"/></g><g transform="translate(69.227 99.854)"><path class="f" d="M555.566,361.256a5.819,5.819,0,0,1-1.227.525c-.8.3-1.973.709-3.43,1.185-2.911.951-6.977,2.145-11.523,3.239s-8.713,1.877-11.739,2.353c-1.514.238-2.741.409-3.593.5a5.779,5.779,0,0,1-1.331.091,5.887,5.887,0,0,1,1.3-.317l3.555-.688c3-.579,7.138-1.426,11.673-2.515s8.6-2.218,11.539-3.066l3.481-1A5.812,5.812,0,0,1,555.566,361.256Z" transform="translate(-522.724 -361.248)"/></g><g transform="translate(104.066 49.805)"><path class="f" d="M574.776,317.118a102.832,102.832,0,0,1-10.587,3.042,103.193,103.193,0,0,1-10.735,2.472,205.393,205.393,0,0,1,21.322-5.513Z" transform="translate(-553.454 -317.103)"/></g><g transform="translate(104.78 28.589)"><path class="f" d="M563.572,298.438a39.388,39.388,0,0,1-9.488,1.707,39.551,39.551,0,0,1,9.488-1.707Z" transform="translate(-554.084 -298.39)"/></g><g transform="translate(11.595 14.469)"><path class="g" d="M494.912,306.679c-.115.02-.288-1.883-1.325-4.733a23.856,23.856,0,0,0-16.848-15.139c-2.944-.728-4.855-.7-4.847-.814a5.03,5.03,0,0,1,1.332-.05,20.455,20.455,0,0,1,3.61.457,23.087,23.087,0,0,1,17.148,15.409,20.39,20.39,0,0,1,.839,3.54A5.043,5.043,0,0,1,494.912,306.679Z" transform="translate(-471.891 -285.935)"/></g><g transform="translate(100.81 20.095)"><path class="g" d="M550.607,290.9a94.519,94.519,0,0,1,1.958,10.366,94.659,94.659,0,0,1,1.374,10.46,94.388,94.388,0,0,1-1.958-10.367A94.515,94.515,0,0,1,550.607,290.9Z" transform="translate(-550.581 -290.898)"/></g></g><g transform="translate(152.936 274.555)"><g transform="translate(0 2.283)"><path class="j" d="M606.4,438.287s42.718,11.823,44.431,12.426c2.574.906,2.142,10.334-1.863,10.188-1.894-.069-32.813,1.151-36.719.907s-15.692-4.889-15.692-4.889Z" transform="translate(-596.559 -438.287)"/></g><g transform="translate(27.552 10.048)"><path class="g" d="M620.947,453.671c.214.029.5-2.23,1.882-4.587,1.346-2.376,3.154-3.761,3.02-3.932-.074-.165-2.2,1.039-3.639,3.576C620.742,451.248,620.767,453.689,620.947,453.671Z" transform="translate(-620.861 -445.137)"/></g><g transform="translate(23.116 8.398)"><path class="g" d="M617.016,451.845c.21.036.643-1.983,1.78-4.214,1.116-2.244,2.481-3.794,2.326-3.94-.118-.141-1.787,1.256-2.965,3.618C616.963,449.661,616.833,451.834,617.016,451.845Z" transform="translate(-616.949 -443.681)"/></g><g transform="translate(18.724 6.922)"><path class="g" d="M613.357,450.9c.214-.012.051-2.147,1-4.512.907-2.383,2.476-3.84,2.326-4-.086-.162-2,1.159-2.993,3.735C612.672,448.692,613.184,450.961,613.357,450.9Z" transform="translate(-613.074 -442.379)"/></g><g transform="translate(16.376)"><path class="g" d="M614.392,446.2a7.584,7.584,0,0,0,.458-3.179,14.975,14.975,0,0,0-1.068-5.467,2.383,2.383,0,0,0-.685-1.046,1.14,1.14,0,0,0-1.467.073,1.891,1.891,0,0,0-.569,1.207,8.361,8.361,0,0,0-.056,1.129,9.467,9.467,0,0,0,.264,2.091,12.629,12.629,0,0,0,1.315,3.265,8.637,8.637,0,0,0,1.918,2.572c.1-.068-.618-1.063-1.47-2.806a14.008,14.008,0,0,1-1.12-3.176,9.46,9.46,0,0,1-.206-1.951c.019-.656.01-1.477.393-1.792a.415.415,0,0,1,.566-.048,1.814,1.814,0,0,1,.468.746,15.685,15.685,0,0,1,.646,1.885,17.144,17.144,0,0,1,.566,3.335C614.47,444.973,614.275,446.182,614.392,446.2Z" transform="translate(-611.003 -436.274)"/></g><g transform="translate(11.164 9.046)"><path class="g" d="M614.953,444.7a5.963,5.963,0,0,0-2.755-.444,12.408,12.408,0,0,0-3.032.372,6.641,6.641,0,0,0-1.745.643,1.8,1.8,0,0,0-.965,1.952A2.134,2.134,0,0,0,608,448.745a3.919,3.919,0,0,0,1.916-.006,7.336,7.336,0,0,0,2.775-1.365,7.54,7.54,0,0,0,1.986-1.955,18.647,18.647,0,0,0-2.275,1.541,7.594,7.594,0,0,1-2.62,1.134,3.372,3.372,0,0,1-1.585-.022,1.448,1.448,0,0,1-1.04-1.016,1.1,1.1,0,0,1,.634-1.192,6.524,6.524,0,0,1,1.55-.6,14.332,14.332,0,0,1,2.879-.5C613.887,444.641,614.935,444.812,614.953,444.7Z" transform="translate(-606.406 -444.253)"/></g><g transform="translate(33.869 11.823)"><path class="g" d="M626.766,453.918c.211-.024,0-1.85.841-3.852.8-2.02,2.227-3.179,2.092-3.345-.07-.175-1.857.838-2.754,3.075C626.024,452.02,626.593,453.993,626.766,453.918Z" transform="translate(-626.433 -446.702)"/></g><g transform="translate(4.394 21)"><path class="g" d="M600.435,454.807a8.868,8.868,0,0,0,1.653.778,36.474,36.474,0,0,0,4.754,1.473,67.735,67.735,0,0,0,16.309,1.546c6.4-.07,12.171-.362,16.354-.529l4.95-.262a8.964,8.964,0,0,0,1.812-.194,8.861,8.861,0,0,0-1.82-.085l-4.958.035-16.342.32a76.462,76.462,0,0,1-16.194-1.323C602.869,455.726,600.485,454.676,600.435,454.807Z" transform="translate(-600.435 -454.796)"/></g><g transform="translate(3.13 18.352)"><path class="g" d="M599.321,456.093c.058.1,1.227-.585,3.2-1.45a14.881,14.881,0,0,1,8.083-1.343c3.22.493,5.5,2.655,6.987,4.156a25.261,25.261,0,0,0,2.461,2.515,13.158,13.158,0,0,0-2.089-2.857,16.943,16.943,0,0,0-2.833-2.648,10.15,10.15,0,0,0-4.414-1.872,14.128,14.128,0,0,0-8.409,1.592A11.35,11.35,0,0,0,599.321,456.093Z" transform="translate(-599.32 -452.461)"/></g></g><g transform="translate(69.538 266.921)"><path class="j" d="M565.681,429.54s-40.423,26.466-41.872,27.561c-2.177,1.645.32,9.478,4.09,8.122,1.785-.642,35.7-10.078,39.352-11.5s13.467-9.424,13.467-9.424Z" transform="translate(-522.999 -429.54)"/><g transform="translate(23.417 14.273)"><path class="g" d="M550.915,448.791c.177-.037-.541-2.37-2.705-4.326-2.145-1.978-4.533-2.481-4.554-2.3-.075.2,2.069.973,4.072,2.829C549.757,446.818,550.719,448.884,550.915,448.791Z" transform="translate(-543.653 -442.129)"/></g><g transform="translate(27.916 11.114)"><path class="g" d="M554.014,445.886c.17-.066-.612-2.1-2.465-3.975s-3.855-2.716-3.924-2.546c-.1.186,1.669,1.248,3.413,3.046C552.8,444.192,553.826,445.984,554.014,445.886Z" transform="translate(-547.621 -439.343)"/></g><g transform="translate(32.193 8.198)"><path class="g" d="M557.15,443.9c.184.006-.018-2.313-1.768-4.447-1.727-2.154-3.953-2.831-3.985-2.649-.1.194,1.841,1.105,3.43,3.1C556.449,441.865,556.94,443.948,557.15,443.9Z" transform="translate(-551.394 -436.771)"/></g><g transform="translate(33.468 0.182)"><path class="g" d="M554.6,439.814c.105-.052-.447-1.145-.916-3.026a17.154,17.154,0,0,1-.474-3.349,15.6,15.6,0,0,1,.044-1.992,1.794,1.794,0,0,1,.219-.854.415.415,0,0,1,.553-.127c.461.185.7.969.919,1.588a9.4,9.4,0,0,1,.4,1.923,14.007,14.007,0,0,1-.1,3.366c-.283,1.918-.663,3.084-.55,3.119a8.619,8.619,0,0,0,1.048-3.033,12.689,12.689,0,0,0,.261-3.511,9.358,9.358,0,0,0-.384-2.071,8.174,8.174,0,0,0-.4-1.059,1.884,1.884,0,0,0-.908-.978,1.139,1.139,0,0,0-1.421.378,2.383,2.383,0,0,0-.333,1.205,14.665,14.665,0,0,0,0,2.082,14.962,14.962,0,0,0,.646,3.45A7.573,7.573,0,0,0,554.6,439.814Z" transform="translate(-552.518 -429.7)"/></g><g transform="translate(35.468 8.012)"><path class="g" d="M554.284,438.46c.052.1,1-.376,2.627-.773a14.42,14.42,0,0,1,2.9-.4,6.519,6.519,0,0,1,1.66.105,1.1,1.1,0,0,1,.967.943,1.448,1.448,0,0,1-.683,1.282,3.36,3.36,0,0,1-1.5.5,7.565,7.565,0,0,1-2.841-.285,18.656,18.656,0,0,0-2.636-.777,7.516,7.516,0,0,0,2.486,1.26,7.378,7.378,0,0,0,3.059.458,3.916,3.916,0,0,0,1.828-.578,2.134,2.134,0,0,0,1-1.919,1.8,1.8,0,0,0-1.512-1.567,6.674,6.674,0,0,0-1.858-.083,12.408,12.408,0,0,0-3,.567A5.989,5.989,0,0,0,554.284,438.46Z" transform="translate(-554.283 -436.607)"/></g><g transform="translate(5.76 24.22)"><path class="g" d="M532.37,460.889c.047.064.68-.409.99-1.567a5.969,5.969,0,0,0-.757-4.386,16.03,16.03,0,0,0-1.355-2.018,7.449,7.449,0,0,0-1.372-1.473,2.4,2.4,0,0,0-1.291-.541c-.339-.014-.511.069-.506.11a3.845,3.845,0,0,1,1.47.817,9.1,9.1,0,0,1,1.166,1.474,23.1,23.1,0,0,1,1.261,1.974,6.254,6.254,0,0,1,.889,3.941C532.717,460.268,532.275,460.82,532.37,460.889Z" transform="translate(-528.079 -450.903)"/></g><g transform="translate(19.58 17.357)"><path class="g" d="M545.252,450.856c.187.02.13-2.033-1.424-3.873-1.533-1.858-3.543-2.28-3.557-2.093-.078.2,1.633.87,3.008,2.551C544.688,449.094,545.043,450.9,545.252,450.856Z" transform="translate(-540.269 -444.849)"/></g><g transform="translate(2.504 16.187)"><path class="g" d="M576.265,443.82a14.338,14.338,0,0,0-1.776,1.219,50.647,50.647,0,0,1-4.984,3.054,65.548,65.548,0,0,1-7.917,3.524c-3.061,1.142-6.494,2.219-10.124,3.271-7.273,2.094-13.857,4.008-18.607,5.437-2.278.7-4.169,1.279-5.616,1.724a12.386,12.386,0,0,0-2.033.726,12.421,12.421,0,0,0,2.109-.458L533,460.81c4.787-1.3,11.387-3.14,18.667-5.237,3.638-1.054,7.086-2.156,10.158-3.341a59.519,59.519,0,0,0,7.927-3.7,39.657,39.657,0,0,0,4.906-3.273A11.041,11.041,0,0,0,576.265,443.82Z" transform="translate(-525.207 -443.818)"/></g><g transform="translate(36.473 15.595)"><path class="g" d="M573.757,444.434a11.311,11.311,0,0,0-3.426-.911,14.126,14.126,0,0,0-8.5,1.038,10.133,10.133,0,0,0-3.636,3.122,16.923,16.923,0,0,0-1.895,3.383,13.216,13.216,0,0,0-1.125,3.358,24.935,24.935,0,0,0,1.582-3.144c.96-1.882,2.478-4.635,5.4-6.081a14.879,14.879,0,0,1,8.11-1.176C572.41,444.25,573.732,444.545,573.757,444.434Z" transform="translate(-555.17 -443.296)"/></g></g><g transform="translate(81.243 198.563)"><path class="g" d="M648.333,371.414s12.126,4.33,12.177,17.928c.1,26.046-52.627,54.756-52.627,54.756l-70.162-46.489-4.4-1.779S628.038,360.251,648.333,371.414Z" transform="translate(-533.323 -369.246)"/><g transform="translate(39.938 15.323)"><path class="f" d="M568.551,419.282a12.974,12.974,0,0,0,1.828-1.239c1.15-.833,2.79-2.07,4.8-3.623,4.018-3.105,9.484-7.506,15.363-12.553s11.056-9.788,14.733-13.29c1.839-1.75,3.311-3.185,4.308-4.195a13.126,13.126,0,0,0,1.5-1.619,12.963,12.963,0,0,0-1.693,1.417l-4.46,4.026c-3.761,3.4-8.984,8.074-14.855,13.118s-11.278,9.5-15.211,12.7l-4.655,3.8A13.042,13.042,0,0,0,568.551,419.282Z" transform="translate(-568.55 -382.761)"/></g><g transform="translate(82.426 11.727)"><path class="f" d="M618.8,379.766c.027-.175-3.1-.481-6.76.613-3.666,1.067-6.129,3.024-6.011,3.156.116.186,2.673-1.444,6.214-2.47C615.773,380.005,618.805,379.985,618.8,379.766Z" transform="translate(-606.026 -379.589)"/></g><g transform="translate(82.782 7.78)"><path class="f" d="M612.717,376.126c-.064-.169-2.313.82-4.16,3.129-1.87,2.292-2.362,4.7-2.184,4.725.2.07.972-2.116,2.739-4.276C610.853,377.522,612.83,376.311,612.717,376.126Z" transform="translate(-606.34 -376.108)"/></g><g transform="translate(114.948 90.196)"><path class="g" d="M638.631,448.876c.037-.082-.837-.251-1.808.549a6.561,6.561,0,0,0-2.028,4.072,8.006,8.006,0,0,0,.641,4.491c.5,1.066,1.042,1.566,1.1,1.516.1-.067-.288-.659-.635-1.7a9.1,9.1,0,0,1-.4-4.2,7.042,7.042,0,0,1,1.659-3.8C637.907,449.02,638.646,448.989,638.631,448.876Z" transform="translate(-634.711 -448.803)"/></g></g><g transform="translate(53.857 157.387)"><path class="b" d="M646.526,339.257l-19.961,53.771a7.75,7.75,0,0,1-7.367,5.052l-109.875-1.447v-8.349l40.771,1.489,17.31-53.673a4.381,4.381,0,0,1,4.182-3.036l70.877.205A4.381,4.381,0,0,1,646.526,339.257Z" transform="translate(-509.146 -332.908)"/><path class="g" d="M646.547,339.275s.013-.058.047-.169a4.54,4.54,0,0,0,.137-.5,4.309,4.309,0,0,0-.044-2.018,4.387,4.387,0,0,0-1.93-2.6,4.276,4.276,0,0,0-2-.63c-.757-.035-1.578-.01-2.44-.018l-29.57-.034-20.717-.039-11.64-.025-6.115-.014a4.809,4.809,0,0,0-2.924.643,4.269,4.269,0,0,0-1.819,2.391c-5.228,16.231-11.043,34.285-17.258,53.58l-.04.125-.13,0-40.771-1.484.184-.177v8.349l-.175-.177,69.094.925,30.035.413,6.923.1,3.366.048a8.031,8.031,0,0,0,3.2-.467,7.607,7.607,0,0,0,4.4-4.239l2.145-5.731c5.569-14.934,10.065-26.993,13.177-35.337,1.556-4.152,2.764-7.375,3.591-9.578.823-2.187,1.272-3.328,1.272-3.328s-.4,1.158-1.207,3.351c-.812,2.21-2,5.441-3.529,9.6L628.738,387.6l-2.137,5.744a7.872,7.872,0,0,1-4.547,4.393,8.305,8.305,0,0,1-3.291.488l-3.366-.041-6.923-.086-30.035-.379-69.1-.895-.175,0v-.175c0-2.17,0-4.51,0-6.859v-1.673l.184.006,40.771,1.494-.17.119c6.23-19.29,12.06-37.341,17.3-53.567a4.568,4.568,0,0,1,1.947-2.549,5.105,5.105,0,0,1,3.082-.684l6.115.021,11.64.043,20.717.082,29.569.136c.865.012,1.677-.008,2.447.032a4.36,4.36,0,0,1,2.036.659,4.438,4.438,0,0,1,1.941,2.66,4.243,4.243,0,0,1,.015,2.041A4.531,4.531,0,0,1,646.547,339.275Z" transform="translate(-509.167 -332.926)"/><g transform="translate(86.611 26.133)"><path class="a" d="M587.608,356.525a4.938,4.938,0,0,1,5.341.57,4.319,4.319,0,0,1,1.045,4.732,4.68,4.68,0,0,1-4.012,2.8,4.218,4.218,0,0,1-4.241-2.8c-.511-1.756.055-4.377,1.867-5.3" transform="translate(-585.561 -355.977)"/></g></g><g transform="translate(12.973 203.998)"><g transform="translate(0.453 0.216)"><path class="g" d="M627.714,446.359s-99.022-63.427-103.393-65.915c-3.719-2.117-13.667-8.241-23.476-5.536s-18.6,11.5-23,24.355c-2.512,7.343-3.7,19.874-4.256,29.27a43.424,43.424,0,0,0,10.162,30.961c3.343,3.878,7.468,7.254,12.361,8.775,1.032.322,2.1.6,3.2.838,18.743,4.063,38-4.35,48.535-20.379l2.313-3.52s64.849,23.824,65.863,23.486Z" transform="translate(-473.506 -374.23)"/></g><path class="f" d="M529.487,383.983a1.07,1.07,0,0,1-.248-.145l-.693-.474c-.606-.418-1.5-1.039-2.677-1.794a52.268,52.268,0,0,0-10.515-5.343,28.244,28.244,0,0,0-7.921-1.67,22.778,22.778,0,0,0-9.108,1.486,29.419,29.419,0,0,0-8.755,5.31,40.282,40.282,0,0,0-3.886,3.817,28.393,28.393,0,0,0-3.215,4.575,46.9,46.9,0,0,0-4.272,10.2c-.933,3.453-1.68,6.868-2.391,10.09a92.168,92.168,0,0,0-2.28,17.373,62.956,62.956,0,0,0,.9,11.776c.218,1.381.464,2.44.612,3.161l.162.823a1.038,1.038,0,0,1,.035.286.974.974,0,0,1-.094-.271c-.059-.215-.13-.482-.219-.81-.187-.714-.469-1.767-.722-3.148a59.057,59.057,0,0,1-1.092-11.824,89.919,89.919,0,0,1,2.164-17.479c.7-3.247,1.43-6.631,2.368-10.138a47.018,47.018,0,0,1,4.316-10.336,28.778,28.778,0,0,1,3.284-4.666,40.481,40.481,0,0,1,3.953-3.871,29.786,29.786,0,0,1,8.938-5.38,23.165,23.165,0,0,1,9.326-1.467,28.362,28.362,0,0,1,8.037,1.768,49.7,49.7,0,0,1,10.5,5.544c1.162.787,2.035,1.439,2.62,1.889l.659.522C529.421,383.909,529.492,383.974,529.487,383.983Z" transform="translate(-473.106 -374.039)"/><g transform="translate(32.019 4.566)"><path class="f" d="M501.348,427.948s.18.092.544.24l1.622.644,6.284,2.421,23.356,8.8c9.922,3.7,21.805,8.1,35.139,12.955s28.112,10.167,43.893,15.511l.287.1.141-.269,7.746-14.791,3.947-7.543.153-.291-.276-.173-75.618-48-22.713-14.327-6.169-3.85-1.611-.985c-.365-.219-.561-.315-.561-.315s.171.137.524.374l1.574,1.043,6.1,3.96L548.3,397.958,623.8,446.146l-.122-.465-3.949,7.543c-2.652,5.067-5.264,10.06-7.74,14.793l.426-.172c-15.773-5.329-30.556-10.624-43.9-15.432l-35.189-12.807-23.43-8.595-6.329-2.3-1.645-.583C501.544,428,501.348,427.948,501.348,427.948Z" transform="translate(-501.348 -378.067)"/></g></g><g transform="translate(40.519)"><path class="j" d="M506.466,242.132a51.075,51.075,0,0,1-4.4-10.527,17.149,17.149,0,0,1,.587-11.2c.922-2.029,2.371-3.808,3.1-5.916,1-2.9.589-6.324,2.384-8.81,2.807-3.885,8.814-2.979,13.154-5.015,3.381-1.585,5.742-5,9.3-6.144,3.106-1,6.493-.041,9.491,1.243s5.923,2.919,9.157,3.343a64.34,64.34,0,0,0,6.968.018c2.324.049,4.794.563,6.431,2.216s1.981,4.7.207,6.206c4.068-.689,7.9,3.371,7.845,7.5s-3.16,7.756-6.912,9.471-8.034,1.828-12.147,1.508c-11.642-.907-23.341-5.333-31.267-13.91" transform="translate(-496.867 -194.105)"/><g transform="translate(0 6.382)"><g transform="translate(4.012 2.021)"><path class="l" d="M509.038,226.573l-7.933,57.649a17.311,17.311,0,0,0,15.639,19.6h0a17.318,17.318,0,0,0,18.662-14.912c.593-4.34,1.1-7.958,1.187-8.4,0,0,14.866.639,17.923-13.74,1.478-6.949,3.357-21.509,4.9-34.7a27.384,27.384,0,0,0-21.843-30.027l-1.391-.278C521.015,199.646,510.738,211.348,509.038,226.573Z" transform="translate(-500.941 -201.518)"/><g transform="translate(17.992 69.697)"><path class="m" d="M534.536,272.089a34.18,34.18,0,0,1-17.725-9.1s2.368,11.263,17.013,12.838Z" transform="translate(-516.811 -262.993)"/></g><g transform="translate(23.995 21.81)"><g transform="translate(0 8.182)"><g transform="translate(21.858 3.937)"><g transform="translate(1.985 6.575)"><path class="g" d="M547.313,239.549a2.1,2.1,0,0,1-2.4,1.68,2.007,2.007,0,0,1-1.752-2.28,2.1,2.1,0,0,1,2.4-1.682A2.009,2.009,0,0,1,547.313,239.549Z" transform="translate(-543.137 -237.244)"/></g><path class="g" d="M549.5,234.525c-.308.217-1.637-1.248-3.855-1.686-2.207-.467-4.061.347-4.246.028-.1-.144.262-.577,1.073-.951a5.773,5.773,0,0,1,3.467-.354,5.538,5.538,0,0,1,3,1.677C549.517,233.9,549.651,234.43,549.5,234.525Z" transform="translate(-541.386 -231.445)"/></g><g transform="translate(3.183 6.946)"><path class="g" d="M529.09,236.4a2.1,2.1,0,0,1-2.4,1.68,2.007,2.007,0,0,1-1.75-2.28,2.1,2.1,0,0,1,2.4-1.681A2.008,2.008,0,0,1,529.09,236.4Z" transform="translate(-524.914 -234.099)"/></g><path class="g" d="M530.222,231.052c-.31.217-1.641-1.249-3.855-1.686-2.207-.467-4.061.347-4.247.028-.094-.144.26-.577,1.074-.95a5.759,5.759,0,0,1,3.466-.355,5.535,5.535,0,0,1,3,1.677C530.236,230.425,530.372,230.957,530.222,231.052Z" transform="translate(-522.106 -227.972)"/><g transform="translate(12.873 2.456)"><path class="g" d="M533.461,248.8a14.94,14.94,0,0,1,3.728.07c.577.054,1.135.049,1.307-.319a2.928,2.928,0,0,0-.042-1.752q-.388-2.212-.813-4.642c-1.1-6.6-1.771-11.976-1.506-12.018s1.372,5.271,2.469,11.868q.386,2.435.737,4.653a3.343,3.343,0,0,1-.15,2.279,1.447,1.447,0,0,1-1.1.642,3.863,3.863,0,0,1-.987-.059A14.665,14.665,0,0,1,533.461,248.8Z" transform="translate(-533.461 -230.138)"/></g><g transform="translate(5.365 21.342)"><path class="g" d="M527.522,246.8c.364.051-.112,2.456,1.605,4.573s4.33,2.365,4.281,2.705c0,.158-.664.353-1.752.167a6.1,6.1,0,0,1-3.6-2.122,5.32,5.32,0,0,1-1.193-3.8C526.972,247.294,527.359,246.752,527.522,246.8Z" transform="translate(-526.838 -246.796)"/></g></g><g transform="translate(0.112)"><path class="g" d="M532.516,223.45c-.339.559-2.494-.169-5.155-.374-2.658-.26-4.906.083-5.143-.527-.1-.289.376-.782,1.34-1.2a8.981,8.981,0,0,1,7.845.687C532.282,222.614,532.667,223.183,532.516,223.45Z" transform="translate(-522.205 -220.755)"/></g><g transform="translate(22.971 5.449)"><path class="g" d="M549.837,228.738c-.491.425-1.913-.4-3.742-.792-1.816-.456-3.456-.339-3.708-.938-.105-.286.239-.741,1.014-1.082a5.537,5.537,0,0,1,6,1.393C549.948,227.966,550.058,228.527,549.837,228.738Z" transform="translate(-542.368 -225.561)"/></g></g></g><g transform="translate(0 36.712)"><path class="l" d="M508.556,233.389c-.224-.155-9.319-4.908-10.973,5.01s8.644,9.532,8.708,9.251S508.556,233.389,508.556,233.389Z" transform="translate(-497.402 -232.116)"/><g transform="translate(2.594 3.09)"><path class="m" d="M503.582,243.023c-.038-.039-.193.092-.508.178a1.757,1.757,0,0,1-1.3-.189c-.983-.56-1.588-2.37-1.338-4.165a5.786,5.786,0,0,1,.9-2.393,2.027,2.027,0,0,1,1.521-1.11.893.893,0,0,1,.941.644c.086.3-.01.488.04.512.024.029.24-.13.229-.553a1.11,1.11,0,0,0-.287-.686,1.319,1.319,0,0,0-.913-.413,2.463,2.463,0,0,0-2.061,1.237,5.94,5.94,0,0,0-1.06,2.664c-.27,2.009.441,4.05,1.806,4.7a1.877,1.877,0,0,0,1.624,0C503.524,243.26,503.614,243.047,503.582,243.023Z" transform="translate(-499.69 -234.841)"/></g></g><g transform="translate(10.005)"><path class="j" d="M561.569,218.92c-1.7,3.665-10.453,5.081-16.868,3.145-5.914-1.786-8.059-5.539-11.821-8.811-2.382-2.071-2.382-2.071-6.265-2.473-3.14-.323-5.661,2.8-8.035,4.883,1.321,7.883-2.184,15.686-5.6,22.912a4,4,0,0,1-1.6,2.044c-1.345.663-2.95-.385-3.754-1.652-1.287-2.027-1.438-4.559-1.39-6.96a41.366,41.366,0,0,1,3.289-15.966,28.142,28.142,0,0,1,10.369-12.416,26.663,26.663,0,0,1,19.725-3.267,32.749,32.749,0,0,1,17.293,10.38,19.171,19.171,0,0,1,4.659,8.181" transform="translate(-506.228 -199.735)"/></g></g><g transform="translate(8.317 35.5)"><g transform="translate(36.801 4.108)"><path class="g" d="M537.25,238.976c.085,0,.055-.855.451-2.3a9.572,9.572,0,0,1,3.511-5.1,9.329,9.329,0,0,1,8.777-1.263,9.137,9.137,0,0,1,4.268,3.225,9.186,9.186,0,0,1,0,10.879,9.142,9.142,0,0,1-4.27,3.227,9.335,9.335,0,0,1-8.779-1.263,9.581,9.581,0,0,1-3.51-5.1c-.4-1.449-.366-2.308-.451-2.3a1.8,1.8,0,0,0-.05.617,7.411,7.411,0,0,0,.2,1.764,9.554,9.554,0,0,0,3.469,5.473,9.881,9.881,0,0,0,14.024-1.949,9.9,9.9,0,0,0,0-11.809,9.882,9.882,0,0,0-14.022-1.949,9.564,9.564,0,0,0-3.47,5.473,7.411,7.411,0,0,0-.2,1.764A1.8,1.8,0,0,0,537.25,238.976Z" transform="translate(-537.198 -229.04)"/></g><g transform="translate(13.276)"><path class="g" d="M516.5,235.353c.085,0,.056-.855.451-2.3a9.571,9.571,0,0,1,3.511-5.1,9.329,9.329,0,0,1,8.777-1.264,9.141,9.141,0,0,1,4.268,3.227,9.185,9.185,0,0,1,0,10.879,9.142,9.142,0,0,1-4.27,3.227,9.329,9.329,0,0,1-8.777-1.264,9.571,9.571,0,0,1-3.511-5.1c-.4-1.45-.366-2.309-.451-2.3a1.811,1.811,0,0,0-.05.617,7.415,7.415,0,0,0,.2,1.764,9.557,9.557,0,0,0,3.469,5.473,9.884,9.884,0,0,0,14.024-1.949,9.9,9.9,0,0,0,0-11.81,9.883,9.883,0,0,0-14.022-1.948,9.549,9.549,0,0,0-3.469,5.473,7.373,7.373,0,0,0-.2,1.764A1.811,1.811,0,0,0,516.5,235.353Z" transform="translate(-516.448 -225.417)"/></g><g transform="translate(32.702 9.411)"><path class="g" d="M533.59,234.576c.1.2,1.36-.389,2.828.06s2.2,1.622,2.391,1.51c.093-.044.046-.421-.285-.921a3.526,3.526,0,0,0-4.189-1.26C533.783,234.2,533.537,234.489,533.59,234.576Z" transform="translate(-533.583 -233.718)"/></g><g transform="translate(0 6.882)"><path class="g" d="M504.738,232c0,.221,3.165.356,7.063.3s7.056-.279,7.053-.5-3.165-.357-7.064-.3S504.735,231.779,504.738,232Z" transform="translate(-504.738 -231.488)"/></g></g><g transform="translate(48.214 16.102)"><path class="a" d="M561.692,208.308a2.822,2.822,0,0,1-.153.946,4.648,4.648,0,0,1-1.486,2.134,6.568,6.568,0,0,1-3.567,1.46,17.953,17.953,0,0,1-4.731-.246,81.163,81.163,0,0,1-8.416-1.7c-1.063-.277-1.918-.522-2.506-.7l-.675-.214a.986.986,0,0,1-.23-.091.973.973,0,0,1,.244.045l.686.171,2.52.628c2.133.511,5.1,1.141,8.411,1.627a18.258,18.258,0,0,0,4.671.265,6.5,6.5,0,0,0,3.485-1.373,4.725,4.725,0,0,0,1.507-2.036C561.656,208.65,561.665,208.3,561.692,208.308Z" transform="translate(-539.929 -208.308)"/></g><g transform="translate(57.352 18.353)"><path class="a" d="M562.814,210.293a9.065,9.065,0,0,1-.849,2.713,11.6,11.6,0,0,1-11.184,6.687,9.06,9.06,0,0,1-2.791-.536,6.138,6.138,0,0,1,.747.142,12.465,12.465,0,0,0,2.051.227,11.774,11.774,0,0,0,11.027-6.593,12.531,12.531,0,0,0,.771-1.914A6.186,6.186,0,0,1,562.814,210.293Z" transform="translate(-547.989 -210.293)"/></g></g></g></g></g></svg>