<svg xmlns="http://www.w3.org/2000/svg" width="55.437" height="55.437" viewBox="0 0 55.437 55.437"><defs><style>.a{fill:#564d7b;}</style></defs><g transform="translate(-1158.272 -9897.472)"><g transform="translate(1158.272 9897.472)"><path class="a" d="M1185.99,9952.908a27.718,27.718,0,1,1,27.718-27.719A27.75,27.75,0,0,1,1185.99,9952.908Zm0-51.477a23.758,23.758,0,1,0,23.759,23.758A23.785,23.785,0,0,0,1185.99,9901.432Z" transform="translate(-1158.272 -9897.472)"/></g><g transform="translate(1178.039 9911.99)"><path class="a" d="M1196.123,9939.955a1.979,1.979,0,0,1-1.969-1.8c-.3-3.363,1.805-5.611,3.5-7.418a10.064,10.064,0,0,0,2.332-3.164,2.738,2.738,0,0,0-1.174-3.362,3.978,3.978,0,0,0-3.689-.531,5.373,5.373,0,0,0-3,3.778,1.98,1.98,0,0,1-3.833-.993,9.32,9.32,0,0,1,5.389-6.472,7.886,7.886,0,0,1,7.271.884,6.735,6.735,0,0,1,2.78,7.991,13.251,13.251,0,0,1-3.186,4.579c-1.6,1.71-2.582,2.835-2.444,4.352a1.979,1.979,0,0,1-1.793,2.149C1196.243,9939.952,1196.183,9939.955,1196.123,9939.955Z" transform="translate(-1188.225 -9919.471)"/><path class="a" d="M1199.238,9959.426a1.987,1.987,0,1,1,1.98-2.008v.027A1.98,1.98,0,0,1,1199.238,9959.426Z" transform="translate(-1191.296 -9931.706)"/></g></g></svg>