<svg xmlns="http://www.w3.org/2000/svg" width="138.544" height="101.06" viewBox="0 0 138.544 101.06">
  <g id="Group_59185" data-name="Group 59185" transform="translate(-797.599 -183.872)">
    <g id="Group_59184" data-name="Group 59184" transform="translate(797.599 183.872)">
      <path id="Path_1087" data-name="Path 1087" d="M1114.342,1138.93c-1.99-1.454-6.057-.473-9.058.578a13.688,13.688,0,0,0-1.65-1.914c6.466-4.165,15.4-13.047,10.662-13.8-4.114-.654-9.667,7.341-12.634,12.208-3.082-2.073-7.8-3.6-15.013-3.068-18.71,1.372-33.326-10.7-44.1-6.672-8.566,3.2-16.417,4.993-23.988,4.381.326-5.531.4-16.39-3.947-17.517-4.409-1.144-.084,11.189,2.32,17.347q-.846-.108-1.688-.258c-1.557-3.069-4.122-7.086-6.938-7.223-2.652-.129.621,3.481,3.843,6.541-9.259-1.944-20.242,5.582-20.424,14.481h115.592a10.707,10.707,0,0,0-1.112-3.012C1110.675,1140.915,1116.5,1140.51,1114.342,1138.93Z" transform="translate(-977.082 -1042.956)" fill="#e6e0ff"/>
      <g id="Group_59172" data-name="Group 59172" transform="translate(0 94.181)">
        <g id="Group_59171" data-name="Group 59171">
          <path id="Path_1135" data-name="Path 1135" d="M0,0H30.466V6.879H0Z" transform="translate(9.394 0)" fill="#a293e5"/>
          <rect id="Rectangle_218" data-name="Rectangle 218" width="30.465" height="6.88" fill="#b4a6f0"/>
        </g>
      </g>
      <g id="Group_59175" data-name="Group 59175" transform="translate(44.85 69.351)">
        <g id="Group_59174" data-name="Group 59174" transform="translate(0 0)">
          <g id="Group_59173" data-name="Group 59173" transform="translate(0 0)">
            <rect id="Rectangle_219" data-name="Rectangle 219" width="22.685" height="31.708" transform="translate(29.68 31.708) rotate(180)" fill="#a293e5"/>
            <rect id="Rectangle_220" data-name="Rectangle 220" width="22.685" height="31.708" transform="translate(22.685 31.708) rotate(180)" fill="#b4a6f0"/>
          </g>
        </g>
        <path id="Path_1088" data-name="Path 1088" d="M1692.823,1103.168l6.995,4.761v-4.761Z" transform="translate(-1670.138 -1103.168)" fill="#9080db"/>
      </g>
      <g id="Group_59176" data-name="Group 59176" transform="translate(45.398 12.165)">
        <path id="Path_1089" data-name="Path 1089" d="M1710.421,488.255c-.351-.053-1.407.924-1.407.924h0c-2.257.261-5.556.86-6.743,1.089-.842.162-3.106-.61-5.318-1.5-2.63-1.055-5.187-2.271-5.187-2.271-1.46-.074-3.117,2.589-.157,4.282a22.433,22.433,0,0,0,4.1,1.1h0a30.665,30.665,0,0,0,6.967.869,38.882,38.882,0,0,0,6.947-2.5h0l.005,0,.024-.011a2.6,2.6,0,0,1,.993-.27,2.218,2.218,0,0,0,1.309-.9C1711.986,488.876,1710.771,488.308,1710.421,488.255Z" transform="translate(-1668.043 -475.834)" fill="#ed975d"/>
        <path id="Path_1090" data-name="Path 1090" d="M1651.619,674.358l-1.242.252s-5.686-6.388-6.563-9.076c-.469-1.437-3.471-2.057-6.608-2.868-2.73-.706-5.563-1.556-6.916-3.216-2.908-3.566,1.826-7.947,1.826-7.947s5.034,2.992,9.376,6.082c3.035,2.16,5.733,4.368,6.139,5.637C1648.618,666.308,1650.711,672.174,1651.619,674.358Z" transform="translate(-1611.997 -628.39)" fill="#2b478b"/>
        <path id="Path_1091" data-name="Path 1091" d="M1895.6,951.351h.7c.234-.037.407-.1.647-.136a.648.648,0,0,1,.566.136l.007.007h2.969c.075-.107,0-.354-.067-.535a.422.422,0,0,0-.278-.254,3.2,3.2,0,0,1-1.5-.687c-.32-.289-1.544-1.062-1.544-1.062h-.006c-.027,0-.155.04-.712.51-.288.243-.779-.343-.779-.343a.7.7,0,0,0-.161.218.738.738,0,0,0-.064.456,2.955,2.955,0,0,1-.213,1.1c-.069.2-.127.348-.127.348S1895,951.276,1895.6,951.351Z" transform="translate(-1857.64 -903.276)" fill="#233862"/>
        <path id="Path_1092" data-name="Path 1092" d="M1641.491,657.585l-4.286,5.081c-2.73-.706-5.563-1.556-6.916-3.216-2.908-3.566,1.826-7.947,1.826-7.947S1637.149,654.495,1641.491,657.585Z" transform="translate(-1611.997 -628.39)" fill="#1e3d70"/>
        <path id="Path_1093" data-name="Path 1093" d="M1569.482,673.3s-.346,1.09-.908,2.729c-.711,2.073-1.771,5.024-2.92,7.761-.252.6-.51,1.193-.768,1.762a19.877,19.877,0,0,1-2.8,4.829c-1.548,1.649-5.31,12.254-5.31,12.254l-.937-.259s-1.307-9.055,3.323-14.208a.327.327,0,0,0,.094-.192,0,0,0,0,0,0,0c.062-.763.282-4.178.761-7.639.118-.849.251-1.7.4-2.516.009-.052.019-.1.029-.155.7-3.772,1.379-5.449,2.25-6.293l6.4,1.822Z" transform="translate(-1543.882 -646.754)" fill="#2b478b"/>
        <path id="Path_1094" data-name="Path 1094" d="M1549.578,1072.026h.7c.234-.037.407-.1.647-.136a.649.649,0,0,1,.566.136l.006.007h2.969c.075-.107,0-.354-.067-.536a.422.422,0,0,0-.278-.254,3.2,3.2,0,0,1-1.5-.687c-.32-.289-1.544-1.063-1.544-1.063l-.006,0c-.027,0-.155.04-.712.51-.288.243-.779-.343-.779-.343a.7.7,0,0,0-.161.218.74.74,0,0,0-.064.456,2.952,2.952,0,0,1-.213,1.1c-.069.2-.128.348-.128.348S1548.977,1071.951,1549.578,1072.026Z" transform="translate(-1537.722 -1014.847)" fill="#233862"/>
        <path id="Path_1095" data-name="Path 1095" d="M1412.617,528.593s-1.071,2.62-2.306,5.171c-1.039,2.144-2.193,4.239-2.925,4.686-1.032.63-3.875,2.409-5.719,3.735,0,0-1.439-.011-1.663.265s-.74,1.513-.589,1.639a2.219,2.219,0,0,0,1.573-.218,2.592,2.592,0,0,1,.916-.469l.025-.008.006,0h0a38.866,38.866,0,0,0,6.82-2.828,30.666,30.666,0,0,0,4.567-5.333h0a22.428,22.428,0,0,0,2.293-3.578C1416.665,528.409,1413.646,527.556,1412.617,528.593Z" transform="translate(-1399.388 -514.367)" fill="#ffb27d"/>
        <path id="Path_1096" data-name="Path 1096" d="M1574.009,349.075a5.371,5.371,0,0,0-.384-.5,1.2,1.2,0,0,0,.473-.071c.376-.155.547-1.349.491-1.7s-.578-1.378-1.223-1.48-1.31.613-1.31.613c.119-.516,1.209-.814,1.209-.814-2.245.414-2.13,1.911-2.115,2.049-2.055-.732-3.261,3.137-3.261,3.137l5.322,3.136s.014-.855.522-.8C1574.526,352.733,1575.185,350.789,1574.009,349.075Z" transform="translate(-1555.178 -345.124)" fill="#2c3a64"/>
        <path id="Path_1097" data-name="Path 1097" d="M1605.925,452.942a3.668,3.668,0,0,1-2.833-.262c.1-.1.068-.418-.028-.828a6.037,6.037,0,0,0-.741-1.71c-.087-.148-.174-.3-.279-.454l.14-.052,2.372-.951s.384.689.785,1.317c.34.523.7.994.855.977C1606.2,450.97,1607.774,452.052,1605.925,452.942Z" transform="translate(-1586.755 -440.872)" fill="#ffb27d"/>
        <path id="Path_1098" data-name="Path 1098" d="M1607.977,451.807c-.061.846-.349,2.372-1.492,2.931a6.029,6.029,0,0,0-.741-1.71Z" transform="translate(-1590.177 -443.759)" fill="#ed975d"/>
        <path id="Path_1099" data-name="Path 1099" d="M1571.644,407.625s3.089-1.217,2.3-3.129-.92-3.357-2.925-2.66-2.085,1.583-1.978,2.285S1570.82,407.892,1571.644,407.625Z" transform="translate(-1556.216 -397.393)" fill="#ffb27d"/>
        <path id="Path_1100" data-name="Path 1100" d="M1568.132,401.616a2.747,2.747,0,0,0,1.843-.778,3.951,3.951,0,0,1-2.085-1.663,3.306,3.306,0,0,0-2.791.363.8.8,0,0,0-.15.335c-.272-.089-.682-.066-.918.7-.355,1.156.908,2.418.908,2.418.306-.087-.039-1.117-.088-1.667a2.6,2.6,0,0,1,.3-1.168c.151.2,1.656,2.087,3.493,2.162a7.751,7.751,0,0,1-1.854-1A2.371,2.371,0,0,0,1568.132,401.616Z" transform="translate(-1551.552 -394.949)" fill="#2c3a64"/>
        <path id="Path_1101" data-name="Path 1101" d="M1567.083,481.086c-.026-.092-.054-.188-.084-.286a7.247,7.247,0,0,0,.78-2.336,4.691,4.691,0,0,0-.148-2.285,15.63,15.63,0,0,0-3.089-1.281l-.012,0-.038,0a13.12,13.12,0,0,0-3.022.29,1.5,1.5,0,0,1-.727,1.77,2.206,2.206,0,0,1-2.327-.181l-.115.079h0a26.83,26.83,0,0,0-3.226,2.4c-.266.447-1.4,2.657-1.4,2.657s.361,1.855,4.36,2.011a9.237,9.237,0,0,1,.662,2.224c.318,2.519-.051,4.506.319,5.976s7.043.632,8.251.349.937-1.573,1.03-2.827A46.875,46.875,0,0,0,1567.083,481.086Z" transform="translate(-1542.033 -465.078)" fill="#b4a6f0"/>
        <path id="Path_1102" data-name="Path 1102" d="M1716.088,515.511a7.252,7.252,0,0,1-.785,2.346,7.9,7.9,0,0,0-1.221-2.922A5.913,5.913,0,0,1,1716.088,515.511Z" transform="translate(-1690.342 -502.125)" fill="#a293e5"/>
      </g>
      <g id="Group_59180" data-name="Group 59180" transform="translate(8.631 27.699)">
        <path id="Path_1103" data-name="Path 1103" d="M1380.364,715.394a21.044,21.044,0,0,1,1.511-1.685,4.59,4.59,0,0,1,1.509-.427c.067.063.07.154-.075.282s-.7.453-.621.489,1.754-.8,2-.517-.137,1.438-.782,1.994a8.893,8.893,0,0,1-2.694.869C1380.179,717.057,1380.364,715.394,1380.364,715.394Z" transform="translate(-1345.02 -701.035)" fill="#ed975d"/>
        <path id="Path_1104" data-name="Path 1104" d="M1090.393,646.4s1.786,2.119,4.06,1.233a6.889,6.889,0,0,0,.5-2.056c0-.107,0-.211,0-.31.012-.982.045-1.533.045-1.533h0c-.1-.043-3.477-1.428-3.474-1.313A5.982,5.982,0,0,1,1090.393,646.4Z" transform="translate(-1076.936 -635.519)" fill="#ffb27d"/>
        <path id="Path_1105" data-name="Path 1105" d="M1109.824,650.6a5.277,5.277,0,0,0,3.092,2.213c.012-.982.045-1.533.045-1.533h0A21.69,21.69,0,0,0,1109.824,650.6Z" transform="translate(-1094.899 -643.062)" fill="#ed975d"/>
        <path id="Path_1106" data-name="Path 1106" d="M1100.9,581.933s-3.794.892-4.313-1.479-1.358-3.853,1.042-4.522,3.07.132,3.436.881S1101.878,581.64,1100.9,581.933Z" transform="translate(-1082.135 -573.822)" fill="#ffb27d"/>
        <path id="Path_1107" data-name="Path 1107" d="M1073.026,558.317c-.052.033-.868.284-2.414-2.8a2.682,2.682,0,0,1,.158-2.453c.566-.924,2.571-1.651,4.238-1.967s2.067.621,2.459,1.564a5.088,5.088,0,0,0,1.6,1.8c-1.437.8-3.168-.345-3.767-.157s-.811,1.134-.856,1.437-.114.555-.868.284-.341,1.069-.22,1.325C1073.356,557.358,1073.459,558.04,1073.026,558.317Z" transform="translate(-1058.44 -551.039)" fill="#a9453d"/>
        <g id="Group_59177" data-name="Group 59177" transform="translate(0 29.125)">
          <path id="Path_1108" data-name="Path 1108" d="M916.826,1361.844h-2.3c-.481,0-1.017-.489-1.151-1.383s-1.124-1.383-1.338-2.115.883-1.763.883-1.763l.183-.239.191-.249,1.82.434s.045.439.073,1c.02.4.03.871.007,1.28-.054.977.27,2.028,1.126,2.218S916.826,1361.844,916.826,1361.844Z" transform="translate(-912.012 -1324.487)" fill="#2c3a64"/>
          <path id="Path_1109" data-name="Path 1109" d="M1108.053,1390.772h-6.089a.536.536,0,0,1-.129-.039c-.406-.209-.279-1.812-.23-2.307.01-.092.016-.145.016-.145s2.141-1.763,2.436-.413c.009.042.02.083.031.124h0c.372,1.263,2.033,1.837,2.993,2A1.056,1.056,0,0,1,1108.053,1390.772Z" transform="translate(-1087.248 -1353.393)" fill="#2c3a64"/>
          <path id="Path_1110" data-name="Path 1110" d="M1060.177,958.963s-.325,4.057-.707,8.934c-.519,6.625-1.144,14.762-1.206,16.3-.107,2.677-.536,6.959-.536,6.959a3.366,3.366,0,0,1-3.051.589,70.04,70.04,0,0,1-2.331-12.58q-.012-.159-.024-.32c-.482-6.584-1.231-20.447-1.231-20.447Z" transform="translate(-1040.6 -956.795)" fill="#35488b"/>
          <path id="Path_1111" data-name="Path 1111" d="M1060.177,958.963s-.325,4.057-.707,8.934l-7.123,11.271q-.012-.159-.024-.32c-.482-6.584-1.231-20.447-1.231-20.447Z" transform="translate(-1040.6 -956.795)" fill="#2c3a64"/>
          <path id="Path_1112" data-name="Path 1112" d="M941.267,939.766s-5.861,14.693-9.715,21.6-5.058,8.832-5.058,8.832-2.208-.883-2.409-1.485c0,0,1.474-13.33,4.055-16.58,1.458-1.836,3.171-7.346,3.252-9.273s.522-5.741.522-5.741Z" transform="translate(-923.174 -937.117)" fill="#35488b"/>
        </g>
        <g id="Group_59178" data-name="Group 59178" transform="translate(1.801 11.115)">
          <path id="Path_1113" data-name="Path 1113" d="M938.762,930.918a19.858,19.858,0,0,1-.263,2.117,4.323,4.323,0,0,1-.938,1.143c-.086-.012-.137-.081-.094-.259s.3-.727.218-.713-.929,1.561-1.267,1.474-.668-1.187-.467-1.964,1.565-2,1.617-2.122C938.01,929.532,938.762,930.918,938.762,930.918Z" transform="translate(-935.89 -912.705)" fill="#ed975d"/>
          <path id="Path_1114" data-name="Path 1114" d="M955.731,717.057c.649.208.753.161.753.161s3.157-5.749,3.477-6.275,6.7-6.447,6.7-6.447l-1.641-6.118s-7.261,9.4-8.045,10.752c-1.3,2.23-2.055,7.408-2.055,7.408A1.9,1.9,0,0,0,955.731,717.057Z" transform="translate(-953.488 -698.379)" fill="#a293e5"/>
        </g>
        <path id="Path_1115" data-name="Path 1115" d="M1034.135,690.133c-.023,1.256-.1,2.669-.194,4.1q-.009.128-.018.255c-.063.889-.131,1.779-.21,2.648-.031.348-.065.693-.1,1.031l-.005.046c0,.127-.018.264-.032.389-.32,3.253-.656,5.824-.718,5.863a.365.365,0,0,1-.25.064,37.165,37.165,0,0,1-5.483-.367,15.8,15.8,0,0,1-4.877-2.023c-.213-.126-.7-.459-.659-.708.039-.274.11-.67.2-1.167a63.194,63.194,0,0,0,1.048-8.191q.054-.974.157-1.92a29.154,29.154,0,0,1,.85-4.586c.715-2.573,1.765-4.543,3.082-5.314.172-.1,1.1.493,1.949,1.039a3.755,3.755,0,0,0,2.417.573l.708.783a7.907,7.907,0,0,1,2.019,4.209q.028.209.048.445A27.668,27.668,0,0,1,1034.135,690.133Z" transform="translate(-1013.321 -670.498)" fill="#b4a6f0"/>
        <path id="Path_1116" data-name="Path 1116" d="M1116.4,758.934c-.023,1.257-.1,2.669-.194,4.1q-.009.128-.018.255a13.123,13.123,0,0,1-5.624-8.633,13.332,13.332,0,0,1,5.77,1.445A27.637,27.637,0,0,1,1116.4,758.934Z" transform="translate(-1095.582 -739.299)" fill="#b4a6f0"/>
        <g id="Group_59179" data-name="Group 59179" transform="translate(14.544 12.369)">
          <path id="Path_1117" data-name="Path 1117" d="M1126.345,717.142c-.251-.68-.642-.635-.642-.635s-7.246,1.806-7.9,1.883-7.8-2.793-7.8-2.793-2.815-1.263-4.134-.11a3.15,3.15,0,0,0-.93,3.339,3.189,3.189,0,0,0,2.7,2.375c2.918.372,8.74,1.071,9.96.9,2.716-.378,8.87-3.931,8.87-3.931A2.282,2.282,0,0,0,1126.345,717.142Z" transform="translate(-1104.806 -715.002)" fill="#a293e5"/>
        </g>
      </g>
      <g id="man" transform="translate(80.326)">
        <g id="Group_59181" data-name="Group 59181" transform="translate(17.574 25.974)">
          <path id="Path_1118" data-name="Path 1118" d="M2292.76,914.015s1.007.933.81,1.6-1.1,1.1-1.228,1.915-.614,1.252-1.056,1.252h-2.107s-.325-.57.461-.742,1.082-1.124,1.033-2.008a15.822,15.822,0,0,1,.074-2.062l1.67-.393Z" transform="translate(-2274.494 -884.499)" fill="#2c3a64"/>
          <path id="Path_1119" data-name="Path 1119" d="M2101.053,944.261a3.884,3.884,0,0,1-.954.11h-4.765c.016-.142.127-.647.906-.773.881-.143,2.405-.655,2.745-1.781.012-.036.021-.073.03-.11.27-1.2,2.234.368,2.234.368s.006.048.014.13C2101.31,942.649,2101.426,944.075,2101.053,944.261Z" transform="translate(-2095.335 -910.092)" fill="#2c3a64"/>
          <path id="Path_1120" data-name="Path 1120" d="M2110.44,548.221s.3,3.722.649,8.2c.477,6.078,1.05,13.544,1.106,14.958.1,2.456.491,6.384.491,6.384a3.088,3.088,0,0,0,2.8.54,64.273,64.273,0,0,0,2.138-11.541c.008-.1.015-.2.022-.293.442-6.04,1.129-18.759,1.129-18.759Z" transform="translate(-2109.3 -546.232)" fill="#35488b"/>
          <path id="Path_1121" data-name="Path 1121" d="M2110.44,548.221s.3,3.722.649,8.2l6.535,10.341c.008-.1.015-.2.022-.293.442-6.04,1.129-18.759,1.129-18.759Z" transform="translate(-2109.3 -546.232)" fill="#2c3a64"/>
          <path id="Path_1122" data-name="Path 1122" d="M2128.5,530.607s5.377,13.48,8.913,19.815,4.641,8.1,4.641,8.1,2.026-.81,2.21-1.363c0,0-1.352-12.23-3.72-15.211-1.338-1.685-2.91-6.74-2.983-8.508s-.479-5.267-.479-5.267Z" transform="translate(-2125.998 -528.176)" fill="#35488b"/>
        </g>
        <g id="Group_59182" data-name="Group 59182" transform="translate(0 10.344)">
          <path id="Path_1123" data-name="Path 1123" d="M1865.874,459.6a16.169,16.169,0,0,0-1.7-.317,3.516,3.516,0,0,0-1.116.446c-.011.07.029.126.177.136s.637-.053.606.006-1.438.336-1.453.619.755.809,1.406.845a6.817,6.817,0,0,0,2.041-.731C1866.763,460.518,1865.874,459.6,1865.874,459.6Z" transform="translate(-1862.384 -448.846)" fill="#ffb27d"/>
          <path id="Path_1124" data-name="Path 1124" d="M1898.341,332.111c-.209-.666-.16-.772-.16-.772s5.912-3.2,6.454-3.521,6.651-6.826,6.651-6.826l6.258,1.723s-9.685,7.378-11.073,8.172c-2.294,1.313-7.605,2.056-7.605,2.056A1.945,1.945,0,0,1,1898.341,332.111Z" transform="translate(-1895.476 -320.991)" fill="#a293e5"/>
        </g>
        <path id="Path_1125" data-name="Path 1125" d="M2034.744,243.424s-2.194,3.86-4.339,4.364a5.86,5.86,0,0,1,.612-2.184c-.214-.252-.4-.484-.564-.691a12.948,12.948,0,0,1-.8-1.115l.728-1.957.494-1.327a6.377,6.377,0,0,0,.772,1.112A5.25,5.25,0,0,0,2034.744,243.424Z" transform="translate(-2017.037 -236.241)" fill="#ffb27d"/>
        <path id="Path_1126" data-name="Path 1126" d="M2031.649,255.246a4.072,4.072,0,0,1-1.2,3.287,12.948,12.948,0,0,1-.8-1.115l.728-1.957A4.158,4.158,0,0,1,2031.649,255.246Z" transform="translate(-2017.037 -249.861)" fill="#ed975d"/>
        <path id="Path_1127" data-name="Path 1127" d="M1987.994,210.339s3.278-1.278,2.451-3.307-.961-3.561-3.089-2.831-2.216,1.669-2.1,2.414S1987.12,210.619,1987.994,210.339Z" transform="translate(-1975.953 -202.497)" fill="#ffb27d"/>
        <path id="Path_1128" data-name="Path 1128" d="M2052.531,292.3c-1.323,1.9-11.21,4.442-11.092,3.125a14.294,14.294,0,0,0,0-2.6q-.037-.423-.105-.9a20.677,20.677,0,0,0-2.179-6.526q-.15-.289-.312-.584a20.145,20.145,0,0,1-1.371-3.08,9.488,9.488,0,0,1-.615-5.112c0-.006,0-.011.005-.017,2.067-.956,2.868-4.662,2.868-4.662s7.051,1.266,11,10.665C2050.729,282.613,2053.682,290.642,2052.531,292.3Z" transform="translate(-2023.556 -265.304)" fill="#b4a6f0"/>
        <path id="Path_1129" data-name="Path 1129" d="M2071.425,390.417q-.037-.423-.1-.9a20.678,20.678,0,0,0-2.179-6.526,9.233,9.233,0,0,1,.89-3.055c1.406-2.108,2.225-2.437,2.225-2.437S2074.366,386.4,2071.425,390.417Z" transform="translate(-2053.543 -362.895)" fill="#a293e5"/>
        <g id="Group_59183" data-name="Group 59183" transform="translate(2.7 8.492)">
          <path id="Path_1130" data-name="Path 1130" d="M1902.243,520.655a21.063,21.063,0,0,0-2.253.211,4.588,4.588,0,0,0-1.242.958c.011.091.082.148.272.108s.781-.294.763-.208-1.685.935-1.6,1.3,1.238.746,2.068.558,2.167-1.6,2.3-1.647C1903.689,521.5,1902.243,520.655,1902.243,520.655Z" transform="translate(-1898.177 -503.741)" fill="#b4a6f0"/>
          <path id="Path_1131" data-name="Path 1131" d="M1944.661,314.1c-.391-.631-.109-.919-.109-.919s6.026-4.718,6.5-5.194,2.66-8.066,2.66-8.066.753-3.071,2.516-3.41a3.228,3.228,0,0,1,3.284,1.353,3.267,3.267,0,0,1,.221,3.675c-1.538,2.592-4.642,7.738-5.548,8.617-2.017,1.957-8.766,4.691-8.766,4.691A2.337,2.337,0,0,1,1944.661,314.1Z" transform="translate(-1940.963 -296.443)" fill="#b4a6f0"/>
        </g>
        <path id="Path_1132" data-name="Path 1132" d="M1975.94,184.638c.023-.045.09-.094.252-.144a.682.682,0,0,0-.33-.012.867.867,0,0,0-.735-.61.518.518,0,0,1,.33.3c-.575-.364-1.641-.47-4.3.416-3.507,1.168-1.755,3.2-1.223,3.367s1.51-.884,2.39-1.027,1.356,1.083,1.691,1.185.145-.177.5-.457.553.378.545.839.677.9.677.9l.4-.737a6.525,6.525,0,0,0-.091-3.894Z" transform="translate(-1960.978 -183.872)" fill="#2b478b"/>
      </g>
      <path id="Path_1133" data-name="Path 1133" d="M1210.834,1431.284v3.969l-9.394-3.969Z" transform="translate(-1170.975 -1337.181)" fill="#9080db"/>
      <rect id="Rectangle_221" data-name="Rectangle 221" width="31.067" height="40.805" transform="translate(89.186 60.253)" fill="#a293e5"/>
      <rect id="Rectangle_222" data-name="Rectangle 222" width="31.068" height="40.805" transform="translate(79.607 60.253)" fill="#b4a6f0"/>
      <path id="Path_1134" data-name="Path 1134" d="M2274.25,982.575v6.1l-9.579-6.1Z" transform="translate(-2153.996 -922.322)" fill="#9080db"/>
    </g>
  </g>
</svg>
