<svg xmlns="http://www.w3.org/2000/svg" width="127.801" height="54.072" viewBox="0 0 127.801 54.072"><g transform="translate(-521.699 -403.972)"><circle fill="rgba(222,217,245,0)" stroke="#fff" cx="20.262" cy="20.262" r="20.262" transform="translate(522.199 409.836)"/><g transform="translate(527.093 405.794)"><path fill="#2e4745" d="M530.922,403.972l29.034,23.688L546.11,433.4l11.932,22.826-30.036-23.995,14.905-6.337Z" transform="translate(-528.006 -403.972)"/><path fill="#2e4745" d="M558.042,466.243l-30.036-23.995,18.1,1.169Z" transform="translate(-528.006 -413.992)"/><path fill="#2e4745" d="M528.006,440l18.1,1.169,13.846-5.737-17.045-1.768Z" transform="translate(-528.006 -411.745)"/><path fill="#2e4745" d="M560.99,427.661l-17.045-1.768-11.989-21.92Z" transform="translate(-529.04 -403.972)"/></g><g transform="translate(526.484 403.972)"><path fill="#fff" d="M530.922,403.972l29.034,23.688L546.11,433.4l11.932,22.826-30.036-23.995,14.905-6.337Z" transform="translate(-528.004 -403.972)"/><path fill="#fff" d="M0,28.256l14.906-6.336,17.046,1.768L18.1,29.426,30.038,52.251Zm14.908-6.336L2.918,0,31.951,23.689Z" transform="translate(0)"/></g><path fill="#fff" d="M2.153 -9.614V-11.28043813387424L9.95043813387424 -21.303939148073024V-21.44073630831643H2.401722109533469V-23.517565922920895H12.835614604462476V-21.739202839756594L5.262026369168357 -11.827626774847872V-11.690829614604464H13.084336713995944V-9.614ZM20.50869168356998 -9.29066125760649Q19.190464503042598 -9.29066125760649 18.114741379310345 -9.78810547667343Q17.039018255578096 -10.285549695740366 16.40477687626775 -11.24312981744422Q15.770535496957406 -12.200709939148075 15.770535496957406 -13.568681541582151Q15.770535496957406 -14.762547667342801 16.243107505070995 -15.508713995943207Q16.715679513184586 -16.254880324543613 17.505372210953347 -16.683925963488846Q18.29506490872211 -17.11297160243408 19.252645030425967 -17.324385395537526Q20.21022515212982 -17.535799188640976 21.180241379310345 -17.66016024340771Q22.42385192697769 -17.821829614604464 23.207326572008114 -17.908882352941177Q23.99080121703854 -17.995935091277893 24.370102434077083 -18.20734888438134Q24.74940365111562 -18.41876267748479 24.74940365111562 -18.9286430020284V-19.00325963488844Q24.74940365111562 -19.87378701825558 24.42606490872211 -20.476938133874242Q24.1027261663286 -21.0800892494929 23.456048681541585 -21.40342799188641Q22.80937119675457 -21.72676673427992 21.83935496957404 -21.72676673427992Q20.844466531440165 -21.72676673427992 20.13560851926978 -21.415864097363084Q19.426750507099392 -21.104961460446248 18.985268762677485 -20.638607505070993Q18.54378701825558 -20.172253549695743 18.31993711967546 -19.687245436105478L16.168490872210956 -20.396103448275866Q16.703243407707912 -21.66458620689655 17.611079107505073 -22.379662271805273Q18.518914807302234 -23.094738336714 19.613292089249498 -23.39320486815416Q20.707669371196758 -23.691671399594323 21.77717444219067 -23.691671399594323Q22.473596348884385 -23.691671399594323 23.362777890466536 -23.52378397565923Q24.251959432048686 -23.35589655172414 25.078960446247468 -22.8584523326572Q25.90596146044625 -22.361008113590266 26.446932048681543 -21.384773833671403Q26.987902636916836 -20.40853955375254 26.987902636916836 -18.779409736308317V-9.614H24.786711967545642V-11.504288032454362H24.63747870182556Q24.401192697768764 -11.019279918864099 23.87887626774848 -10.503181541582151Q23.3565598377282 -9.987083164300204 22.52334077079108 -9.638872210953348Q21.690121703853958 -9.29066125760649 20.50869168356998 -9.29066125760649ZM20.894210953346857 -11.268002028397566Q22.1378215010142 -11.268002028397566 22.995912778904668 -11.75301014198783Q23.854004056795134 -12.238018255578094 24.301703853955377 -13.015274847870185Q24.74940365111562 -13.792531440162273 24.74940365111562 -14.638186612576067V-16.56578296146045Q24.612606490872214 -16.40411359026369 24.152470588235296 -16.27353448275862Q23.69233468559838 -16.14295537525355 23.10161967545639 -16.043466531440163Q22.510904665314403 -15.943977687626777 21.957497971602436 -15.875579107505073Q21.40409127789047 -15.80718052738337 21.08075253549696 -15.769872210953348Q20.272405679513184 -15.67038336713996 19.569765720081136 -15.427879310344828Q18.86712576064909 -15.185375253549697 18.444298174442192 -14.719021298174443Q18.021470588235296 -14.252667342799189 18.021470588235296 -13.456756592292091Q18.021470588235296 -12.735462474645031 18.3945537525355 -12.250454361054768Q18.767636916835702 -11.765446247464503 19.41431440162272 -11.516724137931035Q20.060991886409738 -11.268002028397566 20.894210953346857 -11.268002028397566ZM35.64343204868155 -9.315533468559838Q34.2132799188641 -9.315533468559838 33.10024847870183 -9.732143002028398Q31.987217038539555 -10.148752535496959 31.265922920892496 -10.969535496957405Q30.544628803245438 -11.79031845841785 30.29590669371197 -12.9841845841785L32.42248073022313 -13.49406490872211Q32.72094726166329 -12.349943204868154 33.54794827586207 -11.815190669371198Q34.374949290060854 -11.28043813387424 35.6185598377282 -11.28043813387424Q37.07358417849899 -11.28043813387424 37.93789350912779 -11.90224340770791Q38.802202839756596 -12.524048681541583 38.802202839756596 -13.382139959432049Q38.802202839756596 -14.103434077079108 38.29854056795132 -14.582224137931036Q37.794878296146045 -15.061014198782964 36.762681541582154 -15.297300202839757L34.4495659229209 -15.844488843813389Q32.55927789046653 -16.292188640973635 31.639006085192698 -17.231114604462476Q30.718734279918866 -18.170040567951318 30.718734279918866 -19.637501014198783Q30.718734279918866 -20.831367139959433 31.39028397565923 -21.74542089249493Q32.0618336713996 -22.65947464503043 33.224609533468566 -23.175573022312378Q34.38738539553753 -23.691671399594323 35.86728194726167 -23.691671399594323Q37.29743407707911 -23.691671399594323 38.29854056795132 -23.262625760649087Q39.29964705882353 -22.833580121703854 39.927670385395544 -22.08119574036511Q40.55569371196755 -21.32881135902637 40.866596348884386 -20.34635902636917L38.83951115618662 -19.824042596348885Q38.55348073022313 -20.57020892494929 37.888149087221095 -21.17957809330629Q37.22281744421907 -21.78894726166329 35.87971805273834 -21.78894726166329Q34.636107505070996 -21.78894726166329 33.80910649087221 -21.21688640973631Q32.98210547667343 -20.644825557809334 32.98210547667343 -19.774298174442194Q32.98210547667343 -19.00325963488844 33.541730223123736 -18.536905679513186Q34.10135496957404 -18.070551724137932 35.32009330628804 -17.784521298174443L37.42179513184584 -17.287077079107505Q39.312083164300205 -16.839377281947264 40.219918864097366 -15.900451318458419Q41.12775456389453 -14.961525354969575 41.12775456389453 -13.53137322515213Q41.12775456389453 -12.312634888438135 40.43755070993915 -11.361272819472617Q39.74734685598378 -10.4099107505071 38.50995436105477 -9.862722109533468Q37.27256186612576 -9.315533468559838 35.64343204868155 -9.315533468559838ZM44.36114198782962 -4.415707910750507V-23.517565922920895H46.5250243407708V-21.29150304259635H46.773746450304266Q47.01003245436106 -21.66458620689655 47.43286004056796 -22.230429006085195Q47.85568762677485 -22.796271805273836 48.65159837728196 -23.24397160243408Q49.447509127789054 -23.691671399594323 50.803044624746455 -23.691671399594323Q52.544099391480735 -23.691671399594323 53.868544624746455 -22.82114401622718Q55.192989858012176 -21.95061663286004 55.94537423935092 -20.34014097363083Q56.69775862068966 -18.729665314401622 56.69775862068966 -16.52847464503043Q56.69775862068966 -14.314847870182557 55.95159229208926 -12.698154158215011Q55.20542596348885 -11.081460446247466 53.88098073022313 -10.198496957403652Q52.55653549695741 -9.315533468559838 50.81548073022313 -9.315533468559838Q49.49725354969575 -9.315533468559838 48.68890669371197 -9.769451318458419Q47.8805598377282 -10.223369168357 47.445296146044626 -10.801648073022314Q47.01003245436106 -11.379926977687628 46.773746450304266 -11.765446247464503H46.59964097363084V-4.415707910750507ZM50.479705882352945 -11.317746450304261Q51.78549695740366 -11.317746450304261 52.66224239350913 -12.020386409736311Q53.53898782961461 -12.723026369168359 53.98046957403652 -13.910674442190672Q54.421951318458426 -15.098322515212983 54.421951318458426 -16.553346855983776Q54.421951318458426 -17.995935091277893 53.98668762677485 -19.15871095334686Q53.551423935091286 -20.321486815415824 52.67467849898581 -21.00547261663286Q51.79793306288033 -21.6894584178499 50.479705882352945 -21.6894584178499Q49.19878701825559 -21.6894584178499 48.32825963488845 -21.042780933062883Q47.45773225152131 -20.396103448275866 47.0162505070994 -19.24576369168357Q46.57476876267749 -18.09542393509128 46.57476876267749 -16.553346855983776Q46.57476876267749 -15.011269776876269 47.02246855983773 -13.829839756592293Q47.47016835699798 -12.648409736308317 48.346913793103454 -11.98307809330629Q49.223659229208934 -11.317746450304261 50.479705882352945 -11.317746450304261ZM65.80098782961461 -9.315533468559838Q63.78633874239352 -9.315533468559838 62.32509634888439 -10.210933062880326Q60.86385395537526 -11.106332657200813 60.074161257606505 -12.710590263691685Q59.28446855983774 -14.314847870182557 59.28446855983774 -16.453858012170386Q59.28446855983774 -18.592868154158218 60.05550709939149 -20.221997971602438Q60.82654563894524 -21.851127789046657 62.23804361054768 -22.771399594320492Q63.649541582150114 -23.691671399594323 65.53982961460447 -23.691671399594323Q66.64664300202841 -23.691671399594323 67.72236612576066 -23.324806288032455Q68.7980892494929 -22.95794117647059 69.67483468559838 -22.14337626774848Q70.55158012170386 -21.32881135902637 71.07389655172415 -19.998148073022314Q71.59621298174443 -18.667484787018257 71.59621298174443 -16.739888438133875V-15.80718052738337H60.801673427991894V-17.69746855983773H70.38991075050711L69.34527789046655 -17.001046653144016Q69.34527789046655 -18.369018255578094 68.91623225152131 -19.43230527383367Q68.48718661257608 -20.49559229208925 67.64153144016228 -21.09874340770791Q66.7958762677485 -21.701894523326573 65.53982961460447 -21.701894523326573Q64.28378296146046 -21.701894523326573 63.38838336713997 -21.08630730223124Q62.492983772819485 -20.470720081135905 62.0204117647059 -19.482049695740365Q61.5478397565923 -18.493379310344828 61.5478397565923 -17.361693711967547V-16.105647058823532Q61.5478397565923 -14.563569979716025 62.08259229208926 -13.487846855983774Q62.617344827586216 -12.412123732251523 63.58114300202841 -11.858717038539556Q64.5449411764706 -11.305310344827587 65.8134239350913 -11.305310344827587Q66.63420689655173 -11.305310344827587 67.3057565922921 -11.541596348884383Q67.97730628803247 -11.777882352941177 68.46231440162273 -12.256672413793105Q68.94732251521299 -12.735462474645031 69.20848073022313 -13.444320486815418L71.37236308316432 -12.847387423935093Q71.0490243407708 -11.802754563894524 70.27798580121706 -11.006843813387425Q69.5069472616633 -10.210933062880326 68.36904361054768 -9.763233265720082Q67.23113995943206 -9.315533468559838 65.80098782961461 -9.315533468559838ZM74.80472819472618 -9.614V-23.517565922920895H76.96861054766735V-21.378555780933063H77.11784381338744Q77.50336308316432 -22.43562474645031 78.49203346855985 -23.076084178498988Q79.48070385395539 -23.716543610547667 80.72431440162273 -23.716543610547667Q80.9730365111562 -23.716543610547667 81.31502941176473 -23.704107505070994Q81.65702231237324 -23.691671399594323 81.85600000000001 -23.67923529411765V-21.428300202839758Q81.75651115618662 -21.453172413793105 81.35855578093307 -21.5029168356998Q80.96060040567953 -21.552661257606495 80.51290060851927 -21.552661257606495Q79.5180121703854 -21.552661257606495 78.72831947261665 -21.136051724137936Q77.93862677484788 -20.719442190669373 77.49092697768764 -19.991930020283977Q77.0432271805274 -19.26441784989858 77.0432271805274 -18.319273833671403V-9.614Z" transform="translate(567.644 447.497)"/></g></svg>
