<svg xmlns="http://www.w3.org/2000/svg" width="127.801" height="54.072" viewBox="0 0 127.801 54.072"><defs><style>.a{fill:rgba(222,217,245,0);stroke:#fff;}.b{fill:#443e5f;}.c{fill:#fff;}</style></defs><g transform="translate(-521.699 -403.972)"><circle class="a" cx="20.262" cy="20.262" r="20.262" transform="translate(522.199 409.836)"/><g transform="translate(527.093 405.794)"><path class="b" d="M530.922,403.972l29.034,23.688L546.11,433.4l11.932,22.826-30.036-23.995,14.905-6.337Z" transform="translate(-528.006 -403.972)"/><path class="b" d="M558.042,466.243l-30.036-23.995,18.1,1.169Z" transform="translate(-528.006 -413.992)"/><path class="b" d="M528.006,440l18.1,1.169,13.846-5.737-17.045-1.768Z" transform="translate(-528.006 -411.745)"/><path class="b" d="M560.99,427.661l-17.045-1.768-11.989-21.92Z" transform="translate(-529.04 -403.972)"/></g><g transform="translate(526.484 403.972)"><path class="c" d="M530.922,403.972l29.034,23.688L546.11,433.4l11.932,22.826-30.036-23.995,14.905-6.337Z" transform="translate(-528.004 -403.972)"/><path class="c" d="M0,28.256l14.906-6.336,17.046,1.768L18.1,29.426,30.038,52.251Zm14.908-6.336L2.918,0,31.951,23.689Z" transform="translate(0)"/></g><path class="c" d="M2.9-9.614h9.028c.534,0,.748-.214.748-.748v-.454c0-.534-.214-.721-.748-.721H4.96l7.131-10.6a1.87,1.87,0,0,0,.321-.935v-.374c0-.534-.214-.748-.721-.748H3.037c-.507,0-.721.214-.721.748v.454c0,.534.214.721.721.721h6.6L2.5-11.67a1.7,1.7,0,0,0-.347.962v.347C2.156-9.827,2.37-9.614,2.9-9.614Zm17.121.267a7.17,7.17,0,0,0,4.621-1.522v.507a.654.654,0,0,0,.748.748h.588c.507,0,.721-.24.721-.748V-18.8c0-3.739-1.923-5.662-5.689-5.662a12.827,12.827,0,0,0-4.38.8.639.639,0,0,0-.347.881l.187.614c.16.427.454.507,1.148.267a9.334,9.334,0,0,1,3.1-.588c2.564,0,3.739,1.229,3.739,3.953V-18c-6.544.027-9.215,1.362-9.215,4.567C15.243-10.842,16.98-9.347,20.024-9.347Zm.427-1.87c-1.923,0-2.911-.775-2.911-2.217,0-2.03,1.816-2.8,6.918-2.858v3.739A6.514,6.514,0,0,1,20.452-11.216ZM34.5-9.347c3.739,0,5.823-1.469,5.823-4.086,0-2-1.122-3.232-3.526-4.06l-1.442-.481c-2.03-.694-2.644-1.229-2.644-2.377,0-1.362,1.229-2.137,3.445-2.137a7.62,7.62,0,0,1,2.511.454c.668.24.908.187,1.068-.294l.187-.668a.629.629,0,0,0-.347-.855,9.549,9.549,0,0,0-3.419-.614c-3.579,0-5.769,1.6-5.769,4.14,0,1.976,1.122,3.232,3.526,4.06l1.442.481c2.03.694,2.644,1.229,2.644,2.377,0,1.416-1.148,2.083-3.632,2.083a8.8,8.8,0,0,1-3.5-.694c-.614-.24-.908-.107-.908.507v.721a.667.667,0,0,0,.427.694A10.777,10.777,0,0,0,34.5-9.347Zm9.936,4.38h.775c.534,0,.721-.214.721-.748V-9.908a8.375,8.375,0,0,0,3.125.561c4.22,0,6.49-2.751,6.49-7.906,0-4.728-1.923-7.211-5.555-7.211a6.564,6.564,0,0,0-4.247,1.469v-.454c0-.534-.214-.748-.721-.748h-.588c-.534,0-.748.214-.748.748V-5.714C43.689-5.18,43.9-4.966,44.436-4.966Zm4.3-6.357a5.657,5.657,0,0,1-2.8-.668v-9.215a5.827,5.827,0,0,1,3.632-1.282c2.484,0,3.659,1.683,3.659,5.262C53.224-13.219,51.781-11.323,48.737-11.323ZM65.59-9.347a11.632,11.632,0,0,0,4.167-.748.757.757,0,0,0,.454-.748v-.721c0-.534-.321-.721-.935-.481a9.177,9.177,0,0,1-3.5.694c-3.018,0-4.354-1.335-4.541-4.487l4.567-.321c3.178-.24,4.861-1.629,4.861-4.033,0-2.644-2-4.273-5.235-4.273-4.247,0-6.517,2.7-6.517,7.746C58.913-11.724,61.076-9.347,65.59-9.347Zm-4.38-8.2c.053-3.259,1.549-5.075,4.193-5.075,1.923,0,3.018.881,3.018,2.431,0,1.5-1.068,2.217-3.392,2.377ZM75.018-9.614h.775c.534,0,.721-.214.721-.748V-20.885a8.3,8.3,0,0,1,4.22-1.175h.481c.454,0,.641-.24.641-.721v-.828c0-.561-.214-.748-.8-.748a8.356,8.356,0,0,0-4.674,1.709h-.027v-.828c0-.507-.214-.721-.721-.721h-.614c-.534,0-.748.214-.748.748v13.087C74.27-9.827,74.484-9.614,75.018-9.614Z" transform="translate(567.644 447.497)"/></g></svg>