<svg xmlns="http://www.w3.org/2000/svg" viewBox="0 0 41.52 54.08"><defs><style>.a{fill:rgba(222,217,245,0);stroke:#fff;}.b{fill:#443e5f;}.c{fill:#fff;}</style></defs><g transform="translate(-521.699 -403.972)"><circle class="a" cx="20.262" cy="20.262" r="20.262" transform="translate(522.199 409.836)"/><g transform="translate(527.093 405.794)"><path class="b" d="M530.922,403.972l29.034,23.688L546.11,433.4l11.932,22.826-30.036-23.995,14.905-6.337Z" transform="translate(-528.006 -403.972)"/><path class="b" d="M558.042,466.243l-30.036-23.995,18.1,1.169Z" transform="translate(-528.006 -413.992)"/><path class="b" d="M528.006,440l18.1,1.169,13.846-5.737-17.045-1.768Z" transform="translate(-528.006 -411.745)"/><path class="b" d="M560.99,427.661l-17.045-1.768-11.989-21.92Z" transform="translate(-529.04 -403.972)"/></g><g transform="translate(526.484 403.972)"><path class="c" d="M530.922,403.972l29.034,23.688L546.11,433.4l11.932,22.826-30.036-23.995,14.905-6.337Z" transform="translate(-528.004 -403.972)"/><path class="c" d="M0,28.256l14.906-6.336,17.046,1.768L18.1,29.426,30.038,52.251Zm14.908-6.336L2.918,0,31.951,23.689Z" transform="translate(0)"/></g></g></svg>