<svg xmlns="http://www.w3.org/2000/svg" xmlns:xlink="http://www.w3.org/1999/xlink" width="55.44" height="55.44" viewBox="0 0 55.44 55.44"><defs><clipPath id="a"><rect width="55.44" height="55.44" transform="translate(1417.004 -159)" fill="#fff"/></clipPath></defs><g transform="translate(-1417.004 159)" clip-path="url(#a)"><g transform="translate(215.238 -6749.203)"><path d="M1245.455,6636.114h-31.573c-.05,0-.1,0-.146,0-.065,0-.131,0-.2,0a11.773,11.773,0,0,1-.883-23.513,10.852,10.852,0,0,1,11-6.354,14.869,14.869,0,0,1,12.3-6.517c7.664,0,14.048,6.237,14.774,14.151a11.742,11.742,0,0,1-5.275,22.234Zm-31.316-3.959h31.316a7.782,7.782,0,0,0,2.68-15.09,1.979,1.979,0,0,1-1.3-1.835c-.077-6.363-4.957-11.54-10.878-11.54a10.914,10.914,0,0,0-9.575,5.68,1.982,1.982,0,0,1-2.2.981,6.867,6.867,0,0,0-8.246,4.777,1.973,1.973,0,0,1-2,1.424l-.2-.013c-.065,0-.129-.01-.195-.01a7.814,7.814,0,0,0,0,15.627h.069l.206-.012a2.116,2.116,0,0,1,.32.008Z" fill="#564d7b"/><g transform="translate(1223.692 6613.317)"><path d="M1239.359,6633.23a1.98,1.98,0,0,1-1.98-1.98v-11.219a1.98,1.98,0,1,1,3.96,0v11.219a1.979,1.979,0,0,1-1.979,1.98Z" transform="translate(-1232.896 -6618.055)" fill="#564d7b"/><path d="M1233.316,6626.493a1.98,1.98,0,0,1-1.4-3.382l4.477-4.478a1.978,1.978,0,0,1,2.8,0l4.45,4.45a1.98,1.98,0,1,1-2.8,2.8l-3.049-3.05-3.078,3.078A1.976,1.976,0,0,1,1233.316,6626.493Z" transform="translate(-1231.335 -6618.055)" fill="#564d7b"/></g></g></g></svg>